<svg xmlns="http://www.w3.org/2000/svg" viewBox="0 0 1200 795">
  <path fill="#009698" fill-rule="nonzero" stroke="#009698" d="M209.744214 399.954933c.243606 6.333739-.730816 9.744214-2.923264 13.398295h-.243605c-.243606 0-.730816-.243606-.974422-.243606v-6.577344c-.243605 0-.243605-.243606-.48721-.243606-2.923265 1.461633-4.872108 3.16687-9.500609 2.192449-.243606 1.705237-.974422 2.679659-1.948843 3.410475 4.141291 3.897685 1.461632 8.769793-1.948843 11.936662-1.948843-.243605-2.192448-.974421-3.16687-1.948843-1.218027.487211-2.192448 1.218027-3.410475 1.705238.974422 1.948843 3.65408 1.218027 6.333739 1.705237 1.218027 1.705238 4.872108 5.359318.974422 6.82095-1.461632.487211-3.410475 0-4.384897.730817.243606.48721.730816.974421.974422 1.461632 1.218027-.974422 1.705237-1.705238 3.897686-1.948843.243605 0 .243605.243605.48721.243605 0 1.461632-.243605 2.679659-.243605 4.141291.243605.243606.730816.730816.974421.974422.243606 0 .243606-.243606.487211-.243606.730816-1.218026 1.218027-2.436053 1.948843-3.65408 16.80877-1.948843 9.013398 8.038977 11.449452 18.757613.487211 0 1.218027.243605 1.705237.243605v.730816c0 .243605-.243605.243605-.243605.487211-1.948843 0-3.65408-.243606-5.602923-.243606-.243606-1.705237-1.461632-1.948842-2.679659-2.679659 1.461632 3.410475 3.166869 4.141292 6.090134 6.090134v1.461633c-.730816 1.705237-1.948843 2.679659-3.654081 3.65408-.730816-.243605-1.218026-.487211-1.948842-.730816 0 2.192448-.487211 3.410475-1.461633 4.628502-1.218026 0-3.166869 0-3.65408.48721v6.820951c.974421.730816 1.705237 1.461632 2.679659 2.192448-.730816-2.192448-.730816-5.846529 0-7.795372.730816 0 1.218027.243606 1.948843.243606 1.948843 1.705237 5.359318 7.551766 5.846528 10.231425.974422 4.384896-.974421 8.038977.730816 11.693057 8.526188 1.461632 12.667479 6.577345 18.270402 10.718636 17.783192-1.948843 35.322778-3.654081 53.105969-5.602923 0-2.192449-.487211-6.820951.730816-7.795372 16.077954-.974421 32.399513-1.705238 48.477466-2.679659 0-17.783191-.243605-35.322777-.243605-53.105968h-1.218027c.243606-2.436054.730816-5.115713.974422-7.551766-1.461633 0-3.410475.243605-4.141291-.487211-.243606-1.461632-.487211-3.16687-.730817-4.628502 3.410475-1.705237 12.180268-6.577345 17.783192-2.436054 1.948843-1.218026 4.141291-2.192448 6.090134-3.410475.730816-.730816 0-1.705237.974421-2.192448 2.192448-1.218027 7.551766-2.679659 9.98782-2.436053v1.461632c3.897686-1.461632 21.437271-8.5261878 24.604141-7.7953718.243605 1.7052378.243605 3.6540808.487211 5.3593178h2.923264v-1.461632c.243606-.243605.243606-.243605.487211-.487211 5.359318-.243605 8.038977.487211 10.962241 2.192449.487211-1.461633.974421-2.923265 2.923264-2.923265 2.923265 1.461632 6.090134 2.679659 9.013399 4.141291 2.923264 0 5.602923.243606 8.526187.243606v1.705237c3.16687.730816 6.577345 1.461632 9.744215 2.192448 0-1.461632.243605-2.679659.243605-4.141291 7.064555.243606 14.859927 6.82095 21.924482 8.282583 6.090134.243605 11.936663.48721 18.026797.730816 13.398295 2.192448 28.014616 1.218026 41.900122 1.218026v5.359318c18.514007-.48721 37.27162-1.218026 55.785627-1.705237-.730816-2.192448-1.705238-5.846529-1.218027-8.282582 8.282582-.243606 14.859927 2.679659 21.680877 4.628501 3.654081.974422 7.551766 1.948843 11.205847 2.923265.243605 12.423873.730816 26.552984.730816 39.951279 15.834348-7.551767 31.668696-14.859927 47.503045-22.411693h9.744214c1.461632-2.436054 2.679659-4.628502 4.141291-7.064556h3.16687c1.461632-4.384896 3.16687-8.526187 4.628502-12.911084 2.679659 0 5.359318-.243605 8.038977-.243605 5.846528-7.064556 19.001218-14.372716 27.040195-19.488429 2.192448-1.2180268 4.628501.4872107 5.846528-.9744214 3.897686-3.4104751 7.551766-7.0645554 11.449452-10.4750305 3.16687-.7308161 7.551766 1.2180268 10.475031 0 2.679658-4.3848964 5.602923-9.0133983 8.282582-13.3982947l10.231425.730816c.243605-1.4616321.730816-3.1668696.974421-4.6285018h2.436054c-.487211-2.1924482-2.436054-8.5261876-.974422-10.2314251.974422-.4872107 2.679659-1.2180268 3.654081-.7308161 1.948843.7308161 2.192448 2.4360536 3.65408 3.8976858h1.705238c.974421-.9744214 1.948843-2.1924482 2.923264-3.1668697 2.192448.2436054 3.410475 1.7052375 4.872107 2.679659.243606 1.9488428.487211 4.1412911.730816 6.090134 6.577345.4872107 12.911084 1.2180267 19.488429 1.7052375 3.65408 2.4360536 7.551766 4.8721072 11.205847 7.3081607 2.679659 0 5.359317.2436054 8.038976.2436054 2.679659.9744214 5.115713 1.9488429 7.795372 2.9232643v9.0133983c2.923264.2436054 6.090134.4872107 9.013398.7308161 1.705238 4.8721072 8.282582 7.7953715 11.936663 10.7186358 6.577345 5.1157124 16.565164 14.8599274 20.219245 22.4116934 6.090134 0 12.423873.243605 17.29598-1.218027 3.410475 2.192448 6.577345 7.795371 8.769793 11.205846h7.551766c.243606-.974421.487211-1.948842.730816-2.923264 1.461632-.487211 6.33374-.730816 7.308161.243605.243605 2.436054.487211 4.628502.730816 7.064556 3.654081.730816 22.411693 8.038977 23.62972 7.064555.487211-.730816.487211-1.461632 1.218027-1.948843l.243605-.243605c1.948843.974421 3.654081 1.705238 5.602923 2.679659 6.33374 1.705238 18.270402-3.16687 23.873326-.730816.243605 1.461632.48721 2.923264.730816 4.384896h5.846528v3.654081c3.410475 0 6.82095.243605 10.231425.243605.243606.974422 0 .487211.487211.974422 3.654081.243605 7.064556.243605 10.718636.48721 0 .487211.243605 1.218027.243605 1.705238h11.693058c0-1.461632 0-2.679659.48721-3.654081h8.038975v3.410475c2.67966-.243605 15.10353-.974421 16.56517.243606.2436 2.923264.48721 5.846528.73081 8.769793 7.30816 0 11.93667.974421 19.48843.974421v3.897686c5.11571 0 13.3983-.730816 17.53959 1.218027 0 .974421.2436 1.705237.2436 2.679659 6.82095 0 13.6419.243605 20.46285.243605 0-2.192448-.73081-7.551766.73082-8.526188 4.14129.243606 8.28258.243606 12.42387.487211 0-1.461632 0-2.679659.48721-3.410475h7.30816v.487211c.48721 1.218027.24361 2.923264 1.21803 3.65408 3.41048 1.218027 9.257-.730816 12.42387.730816.48721 1.705238.73082 3.410475 1.21803 5.115713h6.33374c0-1.461632 0-2.923264.48721-3.897686 2.43605 0 8.76979-.730816 10.23143.487211-.24361 2.679659-.48721 5.602923-.73082 8.282582h8.76979c0-1.461632-.2436-2.679659.73082-3.410475 2.43605-.730816 11.44945-.243605 13.6419.730816 0 1.948843.2436 4.141291.2436 6.090134h9.25701c0-1.948843 0-4.384896.48721-5.602923h6.09013v3.65408h4.87211c0-1.705237 0-3.166869.48721-4.141291h8.52619v5.359318h10.96224c0-2.679659-.48721-6.82095.48721-8.769793H1200v322.533496H0V492.037759c5.1157125.487211 21.4372716-.487211 24.1169306.974421.2436053 5.602924-2.9232643 9.744215-1.7052375 16.077954 1.7052375 8.282582 15.3471376 28.258222 22.1680877 31.425091.2436053-.243605.2436053-.48721.4872107-.730816 1.7052375-3.410475 1.9488428-7.064555 3.8976857-9.987819 6.090134-8.526188 21.9244824-14.129111 34.3483557-16.077954-1.9488429-.974422-3.410475-.974422-4.8721072-2.436054 0-4.141291 2.1924482-4.628502 2.679659-8.282582-4.1412912-6.090134-13.3982948-5.846529-18.270402-10.962241v-1.461632c1.9488429-2.679659 5.1157125-3.16687 6.5773447-6.577345 0-.243605-.2436054-.487211-.2436054-.730816-1.2180268-.974422-2.4360535-1.705238-3.6540803-2.679659l3.6540803-2.192448c-2.4360535-1.705238-5.8465286-5.846529-3.6540803-10.475031h.9744214c1.7052375 2.436054 14.6163216 10.718636 18.5140073 9.744215-.7308161-4.141291-5.6029233-4.628502-7.7953715-7.308161.2436054-.243606.4872107-.243606.7308161-.487211 1.4616321-.487211 3.1668697-1.218027 4.6285018-1.705237v-.243606c-1.7052375-1.218027-3.6540804-2.436053-5.3593179-3.65408.7308161-.487211.9744214-.730816 2.1924482-.730816-.9744214-2.436054 0-5.115713.7308161-7.308161.2436054 0 .2436054-.243605.4872107-.243605 2.4360536 1.218026 5.1157126 2.436053 7.5517662 3.65408.7308161-2.192448 2.6796589-2.923264 5.3593179-2.192448.7308161.487211.9744214.730816 1.2180268 1.948843 4.6285018-.974422 3.8976857-4.872108 4.6285018-9.013399 2.1924484 0 4.1412914.243606 5.6029234.730816-.243605 1.218027-.487211.974422-.487211 1.948843 2.679659 3.16687 6.090134 5.115713 9.013398 8.038977 0 .730816-.243605 1.218027-.243605 1.948843-.974421.487211-2.192448 1.218027-3.16687 1.705238.243606.48721.730816.730816.974422 1.218026.974421.487211 2.192448.974422 3.16687 1.461633 2.436053-1.218027 6.82095-4.141292 9.987819-2.679659v.974421c-1.218027 1.705238-2.679659 3.16687-3.897685 4.872107.243605.487211.243605.730816.48721 1.218027.730816.243605 1.461632.487211 2.192448.730816v.487211c-2.436053.730816-4.384896 7.064555-1.705237 9.257003 1.705237 1.218027 4.384896.974422 7.064555.730817-.48721 2.923264-2.436053 3.410475-2.679659 6.577344.243606.243606.487211.243606.730816.487211 1.461633.487211 1.705238-.243605 2.679659-.974421 1.218027-3.16687 1.948843-8.526188 4.384897-10.718636.730816.243605 1.705237.48721 2.436053.730816.730817-7.551766 6.090134-4.628502 8.769793-.974422-.243605 1.461633-1.218026 1.948843-.730816 3.410475.243606.243606.243606.730816.487211.974422h.243605c1.461633-1.461632 2.436054-3.16687 3.897686-4.628502v-.730816c-1.948843-1.461632-4.141291-2.923264-6.090134-4.384897.730816-4.628501-.243605-5.602923-1.948843-9.013398 2.436054-2.679659 5.359318-.487211 8.526188-1.218027-.243605-1.948843-.487211-3.897685-.730816-5.846528 1.705237-1.218027 3.410475-2.923265 3.897686-5.115713-2.436054.974422-5.115713 1.948843-7.551767 2.923264-.243605-.243605-.243605-.48721-.48721-.730816-1.218027-1.461632-1.461632-3.166869-.487211-4.872107 3.65408-.243605 7.308161-3.410475 6.82095-6.090134-1.218027.487211-2.436054 1.218027-3.65408 1.705238l-.487211-.487211c0-3.16687-1.461632-5.359318-1.218027-7.795371 1.461632-.730817 4.872107-3.16687 7.308161-2.436054 1.218027.487211 1.705237 1.948843 3.65408 1.218027.730816-.487211.974422-.730816.974422-1.948843-2.436054-5.846529-4.628502-7.064556-2.679659-15.347138.243605 0 .243605-.243605.487211-.243605 2.436053.487211 7.795371 4.628502 10.231425 2.436053v-.243605c-5.602924-.487211-7.064556-7.795371-8.282583-12.667479-.730816.730817-1.705237 1.461633-2.436053 2.192449-.487211 0-.730816-.243606-1.218027-.243606.243605-1.705237.243605-1.218026-.487211-2.436053-1.461632-.730816-3.166869-1.705238-4.628502-2.436054 0-2.9232642.730817-3.4104749 2.192449-4.6285017-.487211-1.2180268-.974422-2.4360536-1.461632-3.6540804.974421-.4872107 2.192448-.9744214 3.166869-1.4616322-.243605-3.410475-.487211-4.6285018.974422-6.5773447h-3.654081c.730816-3.1668696-1.705237-4.8721071-3.166869-7.3081607.243605-.2436054.243605-.4872108.48721-.7308161.730816-.4872107 1.461632-.9744215 2.192449-1.4616322-.487211-1.9488428-.974422-4.1412911-.243606-6.3337393 1.461632-.4872107 2.923264-.4872107 4.384897-.7308161v-.2436054c-2.923265-3.1668696-7.551766-7.0645554-8.038977-12.4238733 2.923264-3.410475.243605-7.7953715-.487211-10.9622411-.974421-3.8976858 1.218027-8.0389769 1.948843-10.9622412 1.218027-.4872107 2.679659-1.2180268 3.897686-1.7052375-.487211-.9744215-.974422-1.9488429-1.461632-2.9232643 1.218026-2.4360536 3.65408-3.6540804 5.115712-5.6029233 1.218027-1.7052375 0-4.3848965 1.218027-5.6029233 2.436053.9744215 3.16687 2.9232643 4.628502 4.8721072 1.705237-.2436053 2.192448-.7308161 3.166869-1.2180268-.243605-.2436053-.730816-.7308161-.974421-.9744214-.487211-.9744215-.730816-2.1924483-1.218027-3.1668697.730816-1.2180268 2.192448-1.7052375 2.679659-2.9232643 0-1.9488429-.243605-4.1412911-.243605-6.090134.48721-.4872107 6.090134.4872107 9.013398-1.2180268.974421-1.9488429 1.705238-3.8976857 2.679659-5.8465286 2.192448-.4872107 4.141291-.730816 6.333739-1.2180268 2.679659 1.4616322 5.359318 2.679659 8.038977 4.1412911 2.192448.4872107 4.628502.730816 6.82095 1.2180268.243606 0 .243606.2436054.487211.2436054 2.436054 1.9488428 5.846529 8.2825822 6.090134 11.9366626-3.410475 1.4616321-6.82095 4.1412911-6.333739 8.7697929 4.872107 1.7052375 7.551766 11.9366626 5.359318 19.001218-1.218027 4.3848965-5.602924 6.8209501-4.384897 13.8855055.974421 5.6029233 6.090134 16.8087698 10.962241 13.8855055.730816-.9744214 1.218027-1.9488429 1.948843-2.9232643h.974422c1.461632 2.4360536 6.090134 7.5517661 4.628501 11.4494519-.730816.9744214-2.679659.730816-3.65408 1.2180268-.487211 2.1924482-.974421 4.1412911-1.461632 6.3337393-.974422.2436054-1.705238.2436054-2.679659.4872107-.487211 1.2180268-.730816 2.679659-1.218027 3.8976858 0 1.4616321.974421 2.1924482.487211 4.1412911.730816-.4872107.974421-.7308161 2.436053-.7308161zm-60.901339-50.4263094c.243605 0 .48721.2436054.730816.2436054-.243606 0-.487211-.2436054-.730816-.2436054zM872.350792 425.28989c-.487211.243606-1.218027.243606-1.705238.487211 1.218027 0 1.948843 0 2.436054-.487211h-.730816zm-276.492083 3.16687c0 2.923264.243605 5.602923.243605 8.526188 0-2.923265-.243605-5.602924-.243605-8.526188zm-216.565165 3.410475c.243606 8.282582.730817 16.80877.974422 25.091352 1.218027 8.526188 0 17.783191 1.461632 25.578563 1.705238-1.705238 3.16687-3.654081 4.872107-5.359318 0-11.693057 3.897686-38.489647-.974421-45.310597h-6.33374zm33.861145 43.605359c1.948843.243606 3.654081.487211 5.602924.730816 0-11.205846 3.65408-35.322777.48721-43.361753-2.923264-.243606-6.333739-1.461633-8.282582-.243606.730816 14.372716 1.461632 28.501827 2.192448 42.874543zm-17.29598-42.874543c.730816 15.103532 1.218027 30.207065 1.948843 45.310597h4.872107c0-9.98782 3.65408-40.682095-1.218027-45.066991-1.948843 0-3.65408-.243606-5.602923-.243606zm-31.668697.243606c.730816 14.616321 1.218027 29.476248 1.948843 44.09257h5.846529c0-5.359318.243605-10.718636.243605-16.077954.243605-8.769793.487211-17.295981.730816-26.065774-.730816 0-1.705237-.243605-2.436053-.243605v-1.461632c-2.192449 0-4.141292-.243605-6.33374-.243605zm63.093788 0c.730816 14.372716 1.461632 28.989037 2.192448 43.361753h2.679659c.243606-9.744214.243606-19.488428.487211-29.232643 0-3.65408-.243605-7.551766-.243605-11.205846-.730816-.974422-1.218027-1.705238-1.948843-2.679659-.974422 0-2.192448-.243605-3.16687-.243605zm-76.735688 44.336175h5.359318c.487211-14.129111 1.218027-28.014616 1.705237-42.143727-3.166869-.243606-6.333739-.243606-9.500609-.487211v.243605c.730817 14.129111 1.705238 28.258222 2.436054 42.387333zm-13.398295-1.218027h2.192449c0-7.795371 2.679658-36.784409.243605-40.43849h-.243605c-1.218027.243606-2.679659.487211-3.897686.730817v5.602923c.48721 11.449452 1.218027 22.655298 1.705237 34.10475z"/>
</svg>