<svg xmlns="http://www.w3.org/2000/svg" width="1200" height="795">
  <path fill="#FDBE02" fill-rule="evenodd" d="M785.863459 368.0017264c-13.436563 2.829778-23.876224 2.9408086-23.876224.2520693 0-.9152516-.641979-.3450949-2.123931 1.8965215l-1.53895 2.3286402-1.892938.0900248-1.892939.0900247-.527982 1.7374778c-.647979 2.1335866-.509984 2.0195552-1.781942 1.4884092-1.589949-.6631823-1.86594-.5641551-2.414922.876241-.536982 1.4073869-.824973 1.5514265-1.724944.8702392-1.247959-.94526-2.372923-.5701568-3.323892 1.1073044-.479984.8462327-1.481952 2.3196378-2.225928 3.2739002-1.622947 2.0825726-1.640946 2.2596213-.326989 3.3069092 1.184962.9452599 1.259959 1.5394233.575981 4.444222-.548982 2.3346419-1.184961 3.4329439-2.243927 3.8710643-1.187961.4921354-1.025966.9752682.776975 2.3376428 2.213928 1.6714595 2.243927 1.9565379.452985 4.1531419-5.294828 6.4937855-5.52282 14.8870932-.683977 25.0748944l1.292958 2.72775-1.142963 3.1358622c-2.705912 7.4180396-5.324827 18.1369868-5.324827 21.7769876 0 .6271724-.131996 1.1373127-.293991 1.1373127-.161994 0-.29399.2040561-.29399.4531246 0 .2460676-.29699.8522343-.659979 1.3413688-.647979.8792417-.731976 1.6654579-.536982 5.0924001.026999.4831329-.035999 1.4523994-.140996 2.1515916-.119996.7922179-.068997 1.3923829.131996 1.596439.800974.8012203-.059998 3.2438921-1.079965 3.0728451-.30899-.051014-.497984.132036-.521983.507139-.101997 1.734477-1.658946 3.754032-2.702912 3.507965-.61498-.14404-.797974.096026-1.901938 2.487684-1.496952 3.23789-3.338892 3.763034-4.157865 1.182325-.224993-.705194-1.184962-.771212-1.556949-.10803-.221993.39911-.296991.351097-.458986-.294081-.368988-1.470404-2.261926-.834229-3.101899 1.041287l-.527983 1.176323-.812973-1.494411-.812974-1.494411h-2.882906c-2.687913 0-2.882906.042012-2.882906.588162 0 .321088-.131996.585161-.293991.585161-.158995 0-.29099-.3631-.29099-.804221 0-1.551427-2.204929-4.177149-3.506886-4.177149h-1.115964l-.251992-1.686464c-.155995-1.047287-.389987-1.671459-.61798-1.653454-.200993.015004-1.619947.048013-3.149897.07202l-2.78391.045012v1.026282c0 1.326365-1.073965 1.401386-3.218895.21906l-1.460953-.807222-.003-1.9835449c-.003-1.6444521.125996-2.178599.746976-3.1208581 1.24196-1.8755157.950969-3.3669257-.677978-3.4839579l-1.24496-.0900248v-1.20033c0-1.251344-1.121963-3.1598688-1.859939-3.1598688-.461985 0-2.534918 2.1035784-2.534918 2.5747079 0 .669184-4.496854.4651279-5.126833-.2310635-.467985-.5161419-.902971-.5881617-3.671881-.5881617-2.432921 0-3.221895-.0990273-3.503886-.4381205-.710977-.858236-6.086802-.6151691-6.500789.2940809-.326989.7171972-.398987.7322013-3.602883.7322013-3.257894 0-3.275893.0030008-4.688847 1.0082772l-1.421954 1.0112781-1.646946-1.1583185c-1.487952-1.0442871-1.820941-1.1553177-3.464888-1.1553177h-1.817941v1.7584835h-5.858809v-2.0345594c0-1.1193077-.131996-2.1155817-.293991-2.2146089-.170994-.1050289-.29399-1.7614843-.29399-3.9730924 0-3.5979893-.029999-3.7930429-.584981-3.7930429-.524983 0-.584981-.1950536-.584981-1.9055239 0-1.3983845-.104997-1.9025231-.395987-1.9025231-.299991 0-.482985-1.2423416-.776975-5.2754505-.257992-3.5649802-.491984-5.2754505-.719977-5.2754505-.218993 0-.584981 1.8905198-1.028966 5.2754505-.506984 3.8560602-.794974 5.2754505-1.082965 5.2754505-.284991 0-.389987.5191427-.389987 1.9475355v1.9475354l-3.149898-.1830503c-9.809681-.5731576-13.256569-.5971642-13.256569-.0960264 0 .3811048-.287991.4861337-1.316957.4861337h-1.319957v-1.1733226c0-.9752682-.095997-1.1703218-.584981-1.1703218-.524983 0-.584981-.1980545-.584981-1.9055239v-1.905524h-1.757943c-1.367956 0-1.757943.0990273-1.757943.4381205 0 .7982195-.836973.4681287-.93297-.3661007-.113996-.9782689-5.21983-1.4884092-5.21983-.5221435 0 .2460676-.197994.4501237-.440986.4501237-.239992 0-.437986-.1980544-.437986-.4381204 0-.3480957-.407986-.4411213-1.904938-.4411213-1.706944 0-1.904938.0600165-1.904938.5851609 0 .4321188-.194993.5881617-.731976.5881617-.584981 0-.731976-.1470404-.731976-.7322013 0-.7141964-.056998-.7352022-2.048934-.7352022-1.172961 0-2.051933-.1230338-2.051933-.29108 0-.1800495-1.415954-.2940809-3.662881-.2940809h-3.659881v2.0525644h-2.198928c-2.000935 0-2.195929.051014-2.195929.5851609 0 .4561254-.194994.5851609-.878972.5851609-.683977 0-.878971-.1290355-.878971-.5851609s-.194994-.5851609-.872972-.5851609c-.686977 0-.91197-.1560429-1.058965-.7322013-.158995-.6451774-.341989-.7352022-1.469952-.7352022-1.175962 0-1.286959.0630173-1.286959.7352022 0 .6391757-.125995.7322013-1.025966.7322013-.896971 0-1.022967-.0930256-1.022967-.7322013 0-.6751857-.107996-.7352022-1.319957-.7352022-1.208961 0-1.316957.0600165-1.316957.7352022 0 .6991922-.077998.7322013-1.757943.7322013-1.562949 0-1.757943-.0660182-1.757943-.5881617 0-.5251444-.194994-.5851609-1.904938-.5851609-1.496951 0-1.904938-.0930256-1.904938-.4381205 0-.3480957-.404987-.4411213-1.901938-.4411213-1.835941 0-1.904938.0270075-1.904938.7322013v.7322014h-4.100867c-3.905873 0-4.103867-.0270075-4.103867-.5851609 0-.4741304-.194993-.5851609-1.022967-.5851609-.830973 0-1.025966-.1110305-1.025966-.5881617 0-.5071395-.194994-.5851609-1.463953-.5851609-1.271958 0-1.466952.0780214-1.466952.5851609 0 .549151-.191994.5881617-3.002902.5851609-4.63185-.0060017-5.198831-.1530421-5.198831-1.356373v-.9872714h-1.610948c-1.415954 0-1.610948-.069019-1.610948-.5851609 0-.4501238-.194993-.5851609-.839972-.5851609-.911971 0-1.199961-.789217-1.208961-3.2979068-.003-.7802145-.128996-1.098302-.440986-1.098302-.275991 0-.440985-.2760759-.440985-.7322013 0-.5371477-.155995-.7322013-.584981-.7322013-.473985 0-.584981-.1950536-.584981-1.0262822 0-.9242541-.080998-1.0262821-.806974-1.029283-1.013967-.0030008-1.53895-1.0202805-1.53895-2.9858209 0-1.0562905-.107997-1.407387-.437986-1.407387-.341989 0-.440986.3901073-.440986 1.7584835 0 1.3683762-.095997 1.7584835-.437985 1.7584835-.293991 0-.440986.2940809-.440986.8792418 0 .6871889-.128996.8792417-.593981.8792417-.326989 0-.671978.1980545-.764975.4411213-.092997.240066-.416986.4381205-.722976.4381205-.395988 0-.554982.2100577-.554982.7322013 0 .5371477-.155995.7322013-.584981.7322013-.524983 0-.584981.1950536-.584981 1.9055239 0 1.836505-.449986 2.5446997-1.025967 1.6114431-.104997-.1680462-1.661946-.29108-3.67788-.29108-2.138931 0-3.500887.1140313-3.500887.29108 0 .6781865-1.943937.3060841-2.345923-.447123-.395988-.7352021-.422987-.7412037-3.785877-.6601815l-3.38689.0810223-.092997.9542624-.092997.9512615h-2.030934c-1.835941 0-2.030934-.0570156-2.030934-.5851609 0-.5071394-.197994-.5851608-1.466953-.5851608h-1.463952v-1.0172798c0-.7141963-.173994-1.1073044-.584981-1.3293655-.341989-.1830503-.587981-.6121683-.587981-1.0352846 0-1.0682937-3.99887-1.1373127-4.151865-.0720198-.083997.58216-.239992.6421766-1.484952.5641551-1.322957-.0810223-1.391954-.0480132-1.391954.669184 0 1.7554827-2.846908.2340643-3.473888-1.8575107-.344988-1.1523169-1.21496-1.6954662-1.21496-.7592088 0 .2430669-.131996.4411213-.290991.4411213-.161994 0-.29399.1980545-.29399.4381205 0 .309085-.30899.4411213-1.025967.4411213h-1.025966v-2.1996048c0-1.7584835-.086998-2.196604-.437986-2.196604-.245992 0-.440986.2610718-.440986.5851609 0 .3240891-.131996.5851609-.29099.5851609-.161995 0-.293991-.3931081-.293991-.8762409 0-.5881617-.146995-.8792418-.440985-.8792418-.305991 0-.437986.309085-.437986 1.0232814 0 .7171972-.131996 1.0262822-.437986 1.0262822-.242992 0-.440986-.1980545-.440986-.4381205 0-.2430668-.197993-.4411213-.437985-.4411213-.245992 0-.440986-.2610718-.440986-.5851609 0-.3270899-.194994-.5851609-.437986-.5851609-.30899 0-.440986.309085-.440986 1.0232814 0 .5641551-.131995 1.0262822-.29399 1.0262822-.158995 0-.290991-.396109-.290991-.8792418 0-.6841881-.131995-.8792417-.58798-.8792417-.485985 0-.584981.1950536-.584981 1.1733226 0 .6451774-.131996 1.1703217-.290991 1.1703217-.161995 0-.29399-.4591262-.29399-1.0232813 0-.8312286-.110997-1.0262822-.584981-1.0262822-.515984 0-.587981.1950536-.587981 1.6114431 0 1.5964389-.009 1.6114431-.878972 1.6114431-.482984 0-.878971.1320363-.878971.2940808 0 .1590437-.329989.29108-.731976.29108-.455986 0-.731977.1680462-.731977.4411213 0 .2430669-.260991.4381205-.584981.4381205-.323989 0-.58798.1320363-.58798.2940808 0 .1620446-.458986.2940809-1.022967.2940809-.977968 0-1.025967-.051014-1.025967-1.0262822v-1.0262821h-2.783909c-2.750911 0-2.78391-.0090025-2.78391-.7111956 0-.8282277-1.019967-.9512615-10.178669-1.218335l-5.054836-.1470404v.6991922c0 .3841056-.251992.927255-.557982 1.2063317-.30899.2790768-.641979.8282277-.737976 1.218335-.266991 1.0592913-1.925937 1.0412863-1.925937-.0210058 0-.7802145-4.376858-1.1793242-4.832843-.4411213-.101997.1620446-1.163962.2940809-2.360923.2940809h-2.180929v-4.1021279h-1.445953c-1.265959 0-1.454953-.0810223-1.535951-.6481782-.065997-.4531246-.359988-.7051939-.971968-.8282277-1.964936-.4021106-2.198928-.7081947-2.195929-2.8567855.003-2.8597863-.60298-6.5087896-1.079964-6.5087896-.212994 0-.389988.2940809-.392988.6571807-.017999 3.0128284-.668978-.0840231-1.769942-8.4203152-.782975-5.9506361-1.409954-9.7856906-1.589948-9.7256741-.176995.0570157-.464985 3.327915-.710977 8.0602162-.30899 5.8876188-.509984 7.9611889-.776975 7.9611889-.224993 0-.452985.7051939-.596981 1.8335042l-.233992 1.8305033-.281991-1.3923829c-.365988-1.800495-.770975-1.7854909-.770975.0300083 0 3.1658704-.341989 5.026382-.92097 5.026382-.29999 0-.542982.1980544-.542982.4381204 0 .2430669-.131996.4411213-.293991.4411213-.161994 0-.29399.2100578-.29399.4681287 0 .4201156-.557982.447123-5.345826.2760759-5.996806-.2190602-8.423727-.5641551-8.423727-1.2063316 0-.5941634-2.879906-.5911626-3.107899.0030008-.404987 1.0532896-13.004577.90925-13.004577-.1470404 0-2.0135537-5.708815-4.684288-7.835745-3.6670083-1.697945.8102228-2.042934.6511791-2.273926-1.0382855l-.206994-1.4974117-1.139963.1530421c-1.283958.171047-1.595948-.5611543-.671978-1.5814348.60898-.6751857.359988-1.0322838-.887971-1.2663482-.968969-.1800495-1.016967-.2490685-1.100964-1.5694315-.089997-1.3803796-1.409954-2.418665-1.406954-1.1103053 0 .3661007-.356989.4591262-1.757943.4591262-.977969 0-1.757943-.1290354-1.757943-.29108 0-.1620445-.395987-.2940809-.878972-.2940809-.482984 0-.878971.1320364-.878971.2940809 0 .1590437-.596981.29108-1.328957.29108-.90897 0-1.379955.1410388-1.496951.4411213-.272991.7171972-2.15393.5881617-2.15393-.1470404 0-.3901073-.197994-.5851609-.587981-.5851609-.32099 0-.584981.1320363-.584981.29108 0 .687189-.848973.2310636-.93297-.5011378-.167994-1.4493985-1.652946-1.5634298-3.530885-.2700742-1.829941 1.2603465-2.177929 1.3053589-2.621915.3330916-.30599-.6751857-.485984-.7322013-2.306925-.7322013h-1.973936l-.206993-2.0525644c-.191994-1.9295305-.245992-2.0495635-.92697-2.0495635-.395987 0-1.154962-.3300908-1.682945-.7352022-.554982-.4231163-1.349956-.7322013-1.883939-.7322013-.62698 0-.92397-.1410388-.92397-.4381205 0-.2460676-.260991-.4411212-.584981-.4411212-.401987 0-.587981.1950536-.587981.6151691 0 .6241716-.860972 2.316637-1.178961 2.316637-.095997 0-.428987-.1950537-.740976-.429118-.659979-.5011378-4.817844-.6361749-4.817844-.1560429 0 .1650454-.830973.29108-1.904938.29108h-1.901938v-2.0015503c0-1.8335041-.062998-2.0345594-.731976-2.3916576-1.364956-.7322013-2.198929-.0270074-2.198929 1.8575107v1.5754332l-1.637947.6271724c-2.039933.7802145-2.46292.7862162-2.46292.0210058 0-.9182525-1.865939-.6961914-1.997935.240066-.116996.8162244-.638979.8762409-.638979.0720198 0-.4891345-.194994-.5851609-1.172962-.5851609-.974968 0-1.169962.0960264-1.169962.5851609 0 .3270899-.194993.5881617-.440985.5881617-.242992 0-.437986-.2610718-.437986-.5881617 0-.4741304-.194994-.5851609-1.025967-.5851609-.935969 0-1.025966.0750206-1.025966.8462327 0 .7502063-.116997.8612368-1.025967.9662657-.989968.1170321-1.022967.0900247-1.022967-.8642377 0-1.3593737-2.132931-1.3773787-2.288925-.0180049-.077998.6721848-.263992.8102228-1.319958.9722673-1.970936.3060842-2.114931.3901073-2.804908 1.6174447-.359989.6421766-.845973 1.167321-1.076965 1.167321-.338989 0-.419987.61817-.419987 3.225887v3.2228861h-.737976c-1.154962 0-2.543917 2.3736526-3.341891 5.7075693-.92997 3.8890693-2.933905 5.6355495-4.367858 3.8110478-2.204929-2.8057714-5.615818-3.7450297-5.615818-1.5484257 0 .4591262-.269991.5281452-2.048933.5281452h-2.051933v4.3962088h-4.916841l-.107996-2.3316411c-.176994-3.9370825-2.978903-5.8276023-5.255829-3.5469753-.833973.8342294-.893971.8492335-1.871939.4381205-1.817941-.7592088-3.665881-.2250619-3.665881 1.0592912 0 .5101403-.215993.5701568-2.051934.5701568-1.51795 0-2.051933-.102028-2.051933-.3931081 0-.8522343-2.639914-20.9487599-2.939904-22.3921567-.63898-3.0488383-.962969-1.9445347-2.765911 9.452599l-1.739943 10.9890214h-.788974c-.725977 0-.806974-.120033-.992968-1.4644026l-.200994-1.4674035h-2.288925v-1.7584835c0-1.2603465-.107997-1.7554827-.386988-1.7554827-.28199 0-.536982-1.2483432-.935969-4.5432491-.392987-3.2648977-.653979-4.5432492-.92997-4.5432492-.209993 0-.383987.2790767-.383987.6211708 0 .3390932-.215993 2.2506188-.482985 4.2491683l-.482984 3.6279975h-1.85394l-.695977-4.3962087c-.863972-5.473505-1.23896-5.6595561-1.754943-.8792418-.260992 2.4036609-.497984 3.516967-.746976 3.516967-.563982 0-.719976.7261997-.719976 3.3939332v2.4666782h-1.169962c-1.163963 0-1.172962.0090025-1.172962 1.1253094 0 1.4103878-.893971 1.9715421-2.291926 1.4433969-1.21196-.4591263-2.393922.3030833-2.393922 1.5424241v.8732401l-5.054836.0030008c-9.338696.0090025-12.884581.6661832-14.957514 2.7667607-2.048933 2.0825726-4.89584 2.1725974-10.601655.3390933-2.726911-.876241-3.491887-1.0112781-4.979838-.8702393-2.057933.189052-6.593786 1.7764884-6.593786 2.3046336 0 .4141139-1.286958.7292005-2.966903.7292005-1.127964 0-1.133964.0060017-1.133964 1.1733226v1.1733227h-1.445953c-1.445953 0-1.448953-.0030009-2.270926-1.5394233l-.824973-1.5394233-2.636914-.2100577c-3.356891-.2700743-3.368891-.2640726-3.368891 1.5034133 0 1.5574282-.029999 1.6054414-1.202961 1.8845182-.671978.1620445-.797974.069019-1.034966-.7652104-.263992-.9212533-.329989-.9512616-2.312925-1.1583185-2.519918-.2640726-2.77191-.1770487-2.77191.9362574 0 1.9445347-4.430856 1.1073045-5.180831-.9812698l-.539983-1.5004125h-4.364858l-.266991 1.1283102-.266992 1.1283102-1.82694-.1950536c-1.961937-.2100577-3.959872.9722673-3.959872 2.3406436 0 .4981369-.428986.5161419-7.958741.3330916-4.373858-.1080297-9.989675-.1950537-12.479594-.1950537h-4.520853l.209993-4.9423589.212993-4.9453597-3.770878-.1980545c-2.075932-.1080297-4.133865-.2670734-4.577851-.3540973l-.803974-.1560429v5.0293828h-.91797c-.695977 0-1.484952-.4621271-3.248894-1.9055239l-2.330925-1.9055239-2.099931-.0030009c-3.482887-.0060016-3.413889.0480132-3.413889-2.8147739 0-2.4246667.008999-2.4576757.731976-2.4576757.626979 0 .731976-.1320363.731976-.9212533v-.9242542l-4.175864.1830504c-4.187864.1860511-8.408727.7292005-11.753618 1.5064142-.986968.2310635-5.22283 1.1613193-9.4106944 2.0645676-9.5126908 2.058566-8.6427191 1.7764885-8.6427191 2.8027706v.858236H87.630152c-1.7699425 0-2.0369338-.0720198-2.1719294-.5851609-.1379955-.531146-.398987-.5881617-2.76891-.5881617-1.4399532 0-5.999805-.0870239-10.1336707-.1920528l-7.5177556-.1950536v.6331741c0 .5731576-.155995.6331741-1.6109477.6331741-1.415954 0-1.6139475.0720198-1.6139475.5881617 0 .3240891.1979935.5851609.4409856.5851609.3179897 0 .4379858.3240891.4379858 1.1733226v1.1703218h-3.8068763v-4.1771486l-7.9827405.2040561c-8.7957142.2220611-9.0087072.2490685-9.0087072 1.0622921 0 .5281452-.2369923.567156-3.5158858.567156H34.861867v-2.6377253h-7.0317715v1.0262822c0 .8942459-.092997 1.0262822-.7169767 1.0262822-.5909808 0-.7559754-.1860512-.9119703-1.0262822-.2369923-1.2663482-3.3508911-1.6744604-3.3508911-.4411213 0 .3270899-.1949937.5881617-.4379858.5881617s-.4409857-.1980544-.4409857-.4411213c0-.3811047-1.1699619-.4381204-8.7867144-.4381204H4.3948572v-6.7398532H2.6369143v-3.5169669H0V900h1200l-.063-229.731165-.063-229.7341656-1.05596-.1650454c-4.99484-.7802145-28.00409-2.1575932-37.52878-2.2476179-2.72991-.0270075-6.42579-.2670735-8.49573-.5551527-2.01293-.2820775-5.44182-.7382029-7.61675-1.0172797-46.78048-5.9776435-113.50131-23.520467-165.042634-43.3919306l-6.698783-2.5837104-1.796941.5011377c-7.460758 2.0735702-13.160573 2.4066618-17.366436 1.0112781-5.507821-1.8275025-77.862469-18.9892211-80.055398-18.9892211-.344989 0-2.435921.3330916-4.643849.7412038-7.124769 1.3173622-9.146703 1.4463977-14.036544.9122508-16.571461-1.8215008-40.192694-3.0038259-42.538617-2.1305858-2.882907 1.0742954-7.175767.153042-16.586461-3.549976-2.255927-.8882443-4.226863-1.7284753-4.379858-1.869514-.401987-.3691016-.950969-.2970818-6.1678.8012202"/>
</svg>