<?xml version="1.0" encoding="UTF-8"?>
<svg viewBox="0 0 1202 801" version="1.1" xmlns="http://www.w3.org/2000/svg" xmlns:xlink="http://www.w3.org/1999/xlink">
  <path d="M1105.72917,214.180245 C1105.72917,219.414214 1105.98958,224.386485 1105.98958,229.620454 C1109.89583,229.882152 1113.54167,230.405549 1117.44792,230.667248 C1117.44792,231.714042 1117.44792,233.022534 1117.44792,234.069328 C1120.57292,233.807629 1123.69792,233.545931 1126.82292,233.284232 C1128.125,233.545931 1129.16667,233.807629 1130.46875,234.069328 C1134.11458,231.97574 1137.5,229.882152 1141.14583,227.788565 C1142.96875,227.788565 1145.05208,227.788565 1146.875,227.788565 C1151.30208,225.694977 1155.46875,223.339691 1159.89583,221.246103 C1163.80208,221.246103 1167.44792,221.246103 1171.35417,221.246103 C1171.35417,215.227039 1171.61458,209.207974 1171.61458,203.18891 C1174.47917,203.18891 1177.08333,203.18891 1179.94792,203.18891 C1179.94792,197.954941 1179.42708,192.720972 1180.20833,188.0104 C1186.45833,180.159446 1192.44792,183.299827 1200,186.440209 C1200,393.967084 1200,601.493959 1200,809.020833 C800,809.020833 400,809.020833 0,809.020833 C0,674.507827 0,539.733123 0,405.220117 C1.82291667,405.481816 2.34375,406.005213 3.38541667,406.790308 C3.38541667,408.622197 2.86458333,409.930689 2.34375,410.977483 C1.82291667,411.239182 1.04166667,411.239182 0.520833333,411.50088 C2.86458333,416.473151 13.0208333,436.100535 4.42708333,439.764313 C4.6875,440.026012 4.6875,440.026012 4.94791667,440.28771 C6.51041667,442.904695 8.07291667,445.521679 9.63541667,448.138664 C12.7604167,448.400362 13.8020833,448.400362 16.1458333,447.615267 C16.9270833,444.474885 14.84375,440.549409 14.3229167,437.409027 C13.28125,430.866566 17.7083333,426.679391 17.96875,421.445421 C18.2291667,418.30504 15.3645833,415.688055 15.8854167,411.239182 C16.9270833,410.977483 18.2291667,410.977483 19.2708333,410.715785 C19.2708333,409.930689 19.2708333,409.145594 19.2708333,408.360499 C15.3645833,408.360499 14.84375,405.220117 16.6666667,402.603133 C19.2708333,401.818037 21.6145833,402.341434 22.9166667,404.173323 C22.9166667,406.790308 22.3958333,407.837102 20.0520833,408.360499 C20.0520833,409.145594 20.3125,409.930689 20.3125,410.715785 C21.6145833,410.977483 22.9166667,411.239182 24.21875,411.50088 C25.78125,414.641262 24.7395833,418.566738 25.78125,423.277311 C27.34375,428.249581 29.1666667,433.48355 30.7291667,438.455821 C31.7708333,442.904695 28.3854167,446.045076 30.2083333,450.232252 C31.7708333,453.89603 35.15625,454.681125 37.5,457.29811 C37.2395833,458.083205 37.2395833,458.606602 36.9791667,459.391697 C37.5,459.391697 37.7604167,459.129999 38.28125,459.129999 C39.3229167,451.540744 35.4166667,447.09187 36.1979167,441.596202 C37.5,436.100535 39.0625,430.343169 40.3645833,424.847501 C40.3645833,422.230517 40.3645833,419.613532 40.3645833,416.996548 C41.1458333,414.641262 42.96875,415.688055 42.96875,411.50088 C40.8854167,411.239182 40.625,410.454086 39.3229167,409.407293 C39.3229167,406.790308 40.3645833,406.266911 41.40625,404.69672 C41.40625,404.69672 41.6666667,404.69672 41.6666667,404.69672 C42.7083333,404.69672 43.75,404.958419 44.7916667,404.958419 C45.3125,405.743514 46.09375,406.266911 46.6145833,407.052006 C46.6145833,409.668991 45.8333333,410.977483 43.75,411.50088 C43.75,412.809372 43.75,413.856166 43.75,415.164659 C45.5729167,415.164659 46.3541667,415.688055 47.3958333,416.473151 C48.1770833,419.351834 47.3958333,423.015612 48.1770833,426.417692 C50,431.91336 51.5625,437.147329 53.3854167,442.642996 C54.1666667,447.09187 52.0833333,449.185458 51.5625,451.802442 C50.5208333,456.513014 57.5520833,462.793777 60.9375,464.10227 C60.6770833,466.719254 59.6354167,467.50435 58.3333333,469.07454 C58.59375,470.383033 58.59375,471.953223 58.8541667,473.261716 C59.8958333,472.738319 60.9375,472.47662 61.9791667,471.953223 C62.2395833,470.644731 62.5,469.07454 62.7604167,467.766048 C64.5833333,467.50435 65.625,466.457556 66.9270833,465.410762 C67.1875,463.578873 67.4479167,461.485285 66.6666667,459.915094 C65.625,459.129999 64.5833333,458.083205 63.5416667,457.29811 C59.375,451.017347 65.1041667,439.240916 66.1458333,433.745249 C66.9270833,429.558074 64.5833333,426.417692 65.8854167,422.753914 C66.9270833,422.753914 68.2291667,422.492215 69.2708333,422.492215 C69.2708333,421.183723 69.2708333,420.136929 69.2708333,418.828437 C66.6666667,418.828437 66.1458333,417.781643 64.5833333,416.734849 C64.5833333,416.734849 64.5833333,416.473151 64.5833333,416.473151 C64.5833333,414.379563 65.1041667,413.332769 65.8854167,412.024277 C67.7083333,411.762579 69.2708333,411.762579 71.09375,411.50088 C71.875,412.285976 72.3958333,412.809372 73.1770833,413.594468 C73.1770833,416.996548 71.875,417.519945 70.3125,419.351834 C70.3125,420.398628 70.3125,421.183723 70.3125,422.230517 C72.9166667,422.230517 73.6979167,422.753914 75,423.800708 C75,429.034677 74.4791667,434.006947 75.78125,438.194123 C77.34375,442.904695 79.9479167,447.09187 80.9895833,452.587538 C82.03125,458.344904 76.8229167,459.653396 78.90625,465.149063 C80.46875,469.859636 85.6770833,469.859636 88.0208333,473.785112 C85.9375,477.972288 84.6354167,476.925494 84.6354167,483.991352 C86.1979167,483.206257 87.7604167,482.68286 89.3229167,481.897765 C88.28125,480.589272 88.0208333,479.019082 88.28125,477.187192 C90.3645833,477.187192 91.1458333,476.925494 92.4479167,476.140399 C93.2291667,474.046811 93.75,471.953223 94.53125,469.859636 C88.28125,460.961888 91.1458333,453.110935 93.2291667,442.119599 C94.0104167,437.670726 90.625,435.838836 91.9270833,432.175058 C92.7083333,430.343169 94.7916667,430.08147 97.1354167,429.558074 C97.1354167,428.51128 97.1354167,427.202787 97.1354167,426.155994 C95.3125,426.155994 94.2708333,425.632597 93.2291667,424.847501 C93.2291667,424.585803 92.96875,424.585803 92.96875,424.324104 C92.7083333,421.968818 92.96875,420.660326 94.2708333,419.875231 C96.09375,418.566738 100,418.828437 101.041667,420.660326 C101.302083,421.445421 101.5625,421.968818 101.822917,422.753914 C100.78125,424.585803 100.260417,425.632597 97.9166667,426.155994 C97.9166667,427.202787 98.1770833,428.51128 98.1770833,429.558074 C100.78125,429.558074 102.083333,430.08147 103.645833,430.866566 C103.645833,435.31544 103.645833,439.502615 103.645833,443.951489 C105.729167,448.662061 107.8125,453.634331 109.895833,458.344904 C111.197917,463.840571 108.072917,466.980953 107.552083,470.644731 C106.25,477.710589 113.802083,480.589272 117.708333,482.944558 C117.708333,483.991352 117.447917,484.776448 117.447917,485.823241 C116.927083,487.131734 116.145833,487.393432 114.84375,487.655131 C115.104167,489.748718 115.104167,491.842306 115.364583,493.935893 C115.885417,493.674195 116.666667,493.412497 117.1875,493.150798 C116.40625,492.365703 115.364583,491.318909 116.145833,489.748718 C119.53125,485.561543 122.135417,487.655131 122.65625,479.019082 C113.28125,477.187192 120.052083,461.223587 120.3125,454.419427 C120.3125,449.447156 117.1875,443.951489 119.53125,440.549409 C121.354167,440.28771 123.177083,439.764313 124.21875,438.455821 C123.958333,437.409027 123.958333,436.362233 123.697917,435.31544 C121.09375,435.31544 120.572917,434.268646 119.010417,433.221852 C119.270833,431.91336 119.270833,430.866566 119.53125,429.558074 C120.3125,427.726184 122.65625,427.202787 125,427.726184 C125.78125,428.249581 126.5625,429.034677 127.34375,429.558074 C127.34375,430.866566 127.083333,431.91336 127.083333,433.221852 C126.302083,434.006947 125.260417,435.053741 124.479167,435.838836 C124.739583,436.88563 125,437.932424 125.260417,438.979218 C127.864583,438.455821 129.947917,438.455821 131.770833,439.764313 C132.552083,443.166393 130.989583,447.876965 132.03125,451.279045 C134.375,459.129999 144.270833,471.953223 136.71875,480.327574 C138.28125,484.253051 139.583333,489.225321 142.447917,491.580607 C144.53125,493.150798 146.875,493.412497 148.697917,495.244386 C148.177083,497.337973 146.875,498.384767 144.791667,498.908164 C145.052083,501.26345 145.052083,503.357038 145.3125,505.712324 C147.65625,504.927229 149.739583,504.403832 152.083333,503.618736 C152.083333,502.571943 152.083333,501.26345 152.083333,500.216656 C158.59375,500.478355 158.854167,496.814576 159.375,491.318909 C150.260417,485.561543 156.770833,472.738319 158.59375,464.10227 C159.895833,457.821507 154.166667,453.372633 156.770833,448.923759 C158.854167,448.662061 160.9375,448.138664 163.020833,447.876965 C163.020833,446.045076 162.760417,444.213187 162.760417,442.381298 C160.416667,442.381298 159.635417,441.596202 158.333333,440.811107 C158.072917,439.240916 157.8125,437.670726 157.552083,436.100535 C158.333333,434.268646 160.9375,431.389963 164.0625,432.960153 C168.229167,434.530344 167.708333,441.072806 163.541667,442.381298 C163.541667,444.213187 163.802083,445.783378 163.802083,447.615267 C165.364583,447.615267 166.927083,447.876965 168.489583,447.876965 C170.3125,451.540744 169.010417,458.083205 170.3125,462.532079 C173.177083,472.47662 183.072917,481.374368 174.739583,492.8891 C175.78125,499.431561 181.25,504.66553 187.5,506.235721 C187.5,507.282515 187.5,508.591007 187.5,509.637801 C186.458333,510.422896 185.416667,510.946293 184.375,511.731388 C184.635417,515.918564 184.895833,520.105739 185.15625,524.292914 C188.28125,522.722724 191.145833,520.890834 194.270833,519.320644 C193.489583,517.750453 192.1875,515.656865 192.708333,514.086675 C192.96875,513.039881 192.708333,513.301579 193.229167,512.778182 C194.270833,513.301579 195.052083,513.563278 196.09375,514.086675 C199.21875,511.731388 200,507.544213 201.5625,503.357038 C191.145833,492.365703 201.302083,483.467955 203.125,471.429826 C202.34375,468.027746 201.5625,464.363968 200.78125,460.961888 C201.302083,460.176793 202.083333,459.391697 202.604167,458.606602 C204.166667,458.344904 205.989583,458.083205 207.552083,457.821507 C207.552083,456.251316 207.552083,454.419427 207.552083,452.849236 C205.46875,452.587538 204.427083,451.540744 203.385417,450.232252 C203.645833,449.185458 203.645833,447.876965 203.90625,446.830172 C204.6875,444.736584 206.770833,444.213187 209.635417,444.474885 C211.979167,445.521679 214.583333,447.09187 212.760417,450.49395 C210.677083,454.419427 208.072917,450.232252 208.333333,457.821507 C209.895833,457.821507 211.71875,457.821507 213.28125,457.821507 C215.104167,461.746984 213.541667,468.027746 214.84375,473.000017 C217.1875,479.542478 219.791667,485.823241 222.135417,492.365703 C222.916667,495.506084 223.177083,502.310244 220.833333,503.880435 C220.052083,504.142133 219.010417,504.403832 218.229167,504.66553 C219.53125,509.637801 221.614583,515.656865 225.260417,518.27385 C227.34375,519.844041 229.947917,519.582342 231.510417,521.937628 C230.729167,524.292914 229.6875,525.339708 227.864583,526.386502 C228.125,531.358773 228.385417,536.069345 228.645833,541.041615 C231.510417,538.948028 234.635417,537.116139 237.5,535.022551 C236.458333,533.45236 235.416667,531.620471 234.375,530.05028 C234.635417,528.741788 235.15625,527.694994 235.9375,526.909899 C242.1875,529.526883 244.791667,522.722724 245.833333,517.750453 C230.989583,514.348373 244.270833,491.318909 245.833333,483.467955 C246.875,479.019082 242.96875,477.187192 242.708333,473.000017 C244.270833,470.383033 245.833333,469.597937 250,469.597937 C250,467.766048 249.739583,466.195857 249.739583,464.363968 C247.395833,464.363968 246.354167,463.840571 245.052083,462.793777 C244.53125,461.223587 243.75,460.176793 243.75,457.821507 C245.3125,454.419427 248.697917,453.89603 252.604167,454.942824 C253.90625,456.513014 254.6875,457.559808 254.947917,460.176793 C253.645833,462.27038 252.34375,463.055476 250.78125,464.625667 C250.78125,466.195857 250.78125,468.027746 250.78125,469.597937 C253.125,469.336239 255.46875,469.336239 257.03125,470.383033 C258.854167,475.093605 257.291667,482.944558 258.854167,488.178527 C261.71875,497.337973 267.96875,500.478355 266.927083,511.993087 C266.927083,511.993087 267.1875,511.993087 267.1875,511.993087 C274.21875,509.899499 280.989583,507.544213 288.020833,505.450626 C291.145833,504.403832 294.010417,504.403832 296.354167,503.095339 C297.395833,497.599672 293.75,492.8891 295.052083,487.131734 C296.875,485.823241 297.257233,483.729654 300.642649,483.729654 C300.490813,482.66157 300.490813,476.840556 300.642649,476.840556 C300.794485,476.840556 302.083333,476.840556 302.083333,476.840556 C302.083333,476.840556 302.083333,482.159463 302.083333,483.991352 C302.083333,483.729654 302.84551,483.729654 302.84551,483.729654 C304.147593,483.206257 305.989583,483.467955 307.552083,483.729654 C310.416667,486.08494 309.114583,494.197592 309.635417,498.123069 C309.635417,498.123069 309.895833,498.123069 309.895833,498.123069 C338.020833,489.225321 366.145833,480.065875 394.270833,471.168128 C394.270833,467.50435 394.270833,463.578873 394.270833,459.915094 C390.885417,456.513014 387.239583,452.849236 383.854167,449.447156 C383.854167,449.185458 383.854167,448.923759 383.854167,448.662061 C407.552083,438.194123 430.989583,427.726184 454.6875,417.258246 C463.28125,419.875231 471.875,422.492215 480.46875,425.1092 C497.135417,429.819772 513.802083,434.792043 530.46875,439.502615 C531.25,440.549409 532.03125,441.334504 532.8125,442.381298 C539.583333,445.783378 546.354167,449.185458 553.125,452.587538 C553.385417,454.419427 553.385417,456.251316 553.645833,458.083205 C552.604167,458.083205 551.5625,458.344904 550.520833,458.344904 C550.520833,459.129999 550.78125,459.915094 550.78125,460.70019 C553.125,461.485285 555.46875,462.27038 557.8125,463.055476 C604.6875,470.644731 651.822917,477.972288 698.697917,485.561543 C698.177083,485.038146 697.65625,484.514749 697.135417,483.991352 C693.75,479.804177 690.364583,475.355303 686.979167,471.168128 C684.114583,470.644731 681.25,470.383033 678.385417,469.859636 C676.5625,468.551143 674.739583,466.980953 672.916667,465.67246 C666.145833,460.438491 659.635417,455.466221 652.864583,450.232252 C652.083333,447.353568 651.041667,444.474885 650.260417,441.596202 C638.020833,431.91336 625.78125,421.968818 613.541667,412.285976 C610.416667,401.556339 607.291667,390.565004 604.166667,379.835367 C601.041667,376.433287 598.177083,372.769509 595.052083,369.367429 C595.052083,346.337965 595.052083,323.570199 595.052083,300.540735 C595.572917,300.279037 596.09375,300.017338 596.614583,299.75564 C596.354167,295.045068 596.09375,290.334495 595.833333,285.623923 C599.21875,284.053733 597.135417,281.698446 598.697917,280.389954 C598.958333,280.389954 599.479167,280.389954 599.739583,280.389954 C607.03125,279.081462 611.458333,278.819763 616.666667,276.726176 C616.666667,273.062397 615.364583,272.277302 616.927083,270.183714 C614.84375,267.56673 615.364583,263.117856 616.927083,260.500872 C616.927083,260.500872 617.1875,260.500872 617.1875,260.500872 C625.260417,262.332761 641.145833,263.902952 650.520833,261.024269 C650.520833,261.024269 650.520833,260.76257 650.520833,260.76257 C649.739583,259.715776 648.958333,258.407284 648.177083,257.36049 C649.21875,256.313696 651.041667,256.313696 652.083333,255.266903 C652.604167,248.201044 652.864583,240.873487 653.385417,233.807629 C655.729167,234.331026 657.552083,249.771235 657.552083,253.435013 C657.8125,253.435013 658.072917,253.173315 658.333333,253.173315 C658.854167,247.15425 659.114583,240.873487 659.635417,234.854423 C660.15625,234.854423 660.677083,234.854423 661.197917,234.854423 C661.458333,235.116121 661.458333,235.116121 661.71875,235.37782 C661.458333,241.658583 662.5,247.415949 664.583333,251.603124 C664.84375,251.603124 665.104167,251.341426 665.364583,251.341426 C665.885417,251.079727 666.666667,250.55633 667.1875,250.294632 C667.447917,249.247838 667.447917,247.939346 667.708333,246.892552 C667.96875,246.892552 668.229167,246.892552 668.489583,246.892552 C669.010417,247.15425 669.270833,247.15425 669.791667,247.415949 C669.791667,247.939346 669.791667,248.724441 669.791667,249.247838 C677.34375,246.107457 685.15625,242.705377 692.708333,239.564995 C699.479167,237.994804 711.71875,244.537266 715.885417,246.630854 C715.885417,245.58406 716.145833,244.537266 716.145833,243.490472 C717.447917,243.228774 718.489583,243.228774 719.791667,242.967075 C719.791667,244.013869 719.791667,244.798964 719.791667,245.845758 C722.135417,246.107457 724.739583,246.107457 727.083333,246.369155 C727.083333,243.490472 726.822917,240.611789 726.822917,237.733106 C727.34375,237.733106 728.125,237.733106 728.645833,237.733106 C729.166667,240.350091 729.427083,242.967075 729.947917,245.58406 C729.947917,245.58406 730.208333,245.58406 730.208333,245.58406 C734.895833,243.228774 739.84375,241.135186 744.53125,238.7799 C756.510417,238.256503 768.489583,237.994804 780.46875,237.471408 C783.59375,238.7799 786.979167,240.350091 790.104167,241.658583 C793.229167,241.658583 796.09375,241.658583 799.21875,241.658583 C803.645833,242.18198 808.072917,242.967075 812.5,243.490472 C812.5,242.705377 812.760417,241.920281 812.760417,241.135186 C813.28125,241.135186 814.0625,241.396884 814.583333,241.396884 C815.364583,245.845758 820.3125,245.845758 824.21875,247.15425 C832.8125,250.032933 829.947917,247.939346 836.197917,245.845758 C843.75,245.845758 851.302083,245.58406 858.854167,245.58406 C858.333333,233.284232 858.072917,220.984405 857.552083,208.684578 C862.5,207.376085 867.1875,205.805895 872.135417,204.497402 C872.135417,203.450608 872.395833,202.142116 872.395833,201.095322 C874.739583,201.095322 876.822917,201.357021 879.166667,201.357021 C881.510417,205.805895 886.979167,204.759101 890.364583,207.899482 C890.625,218.105722 891.145833,228.57366 891.40625,238.7799 C895.3125,238.7799 899.21875,238.518201 903.125,238.518201 C903.125,233.807629 902.864583,229.358755 902.864583,224.648183 C903.385417,224.386485 904.166667,224.386485 904.6875,224.124786 C904.6875,219.675913 904.6875,215.488737 906.25,212.871753 C906.25,212.871753 906.510417,212.871753 906.510417,212.871753 C907.291667,212.871753 908.333333,213.133451 909.114583,213.133451 C911.979167,219.414214 912.5,229.358755 912.5,238.518201 C916.666667,239.041598 923.177083,242.443678 927.083333,239.826694 C929.166667,238.518201 930.208333,235.639518 932.552083,234.069328 C932.8125,235.901217 933.333333,237.209709 934.375,238.256503 C934.375,238.256503 934.635417,238.256503 934.635417,238.256503 C934.635417,237.471408 934.635417,236.424614 934.635417,235.639518 C935.677083,235.639518 936.458333,235.639518 937.5,235.639518 C937.5,236.948011 937.5,238.256503 937.5,239.564995 C939.84375,239.564995 941.927083,239.564995 944.270833,239.564995 C944.270833,237.994804 944.270833,236.686312 944.270833,235.116121 C944.791667,235.116121 945.3125,235.116121 945.833333,235.116121 C945.833333,228.050263 948.4375,224.124786 949.739583,218.629119 C950.260417,218.629119 950.520833,218.629119 951.041667,218.629119 C951.822917,224.386485 953.90625,228.835359 953.90625,235.639518 C954.6875,235.639518 955.46875,235.639518 956.25,235.639518 C956.25,240.350091 956.25,245.322361 956.25,250.032933 C958.59375,250.032933 960.9375,250.032933 963.28125,250.032933 C963.802083,249.247838 964.322917,248.462743 964.84375,247.677647 C970.3125,251.079727 980.208333,249.771235 988.541667,249.771235 C988.541667,245.322361 987.5,237.733106 989.0625,234.331026 C992.1875,232.499137 995.052083,230.667248 998.177083,228.835359 C998.177083,214.96534 998.177083,201.095322 998.177083,187.225304 C998.697917,187.225304 999.479167,187.487003 1000,187.487003 C1000.52083,184.60832 1001.30208,181.991335 1001.82292,179.112652 C1003.90625,178.065858 1005.98958,176.757366 1008.07292,175.710572 C1009.11458,174.140381 1008.59375,172.308492 1009.89583,171 C1010.15625,172.570191 1010.67708,174.40208 1010.9375,175.972271 C1013.02083,177.019064 1015.10417,178.327557 1017.1875,179.374351 C1016.92708,181.20624 1016.92708,183.038129 1016.66667,184.870018 C1018.22917,185.131717 1019.53125,185.393415 1021.09375,185.655113 C1021.09375,199.001735 1021.09375,212.348356 1021.09375,225.694977 C1036.97917,229.882152 1058.85417,225.433279 1077.34375,224.909882 C1078.38542,222.554596 1079.16667,219.937611 1081.77083,219.152516 C1082.29167,220.722706 1082.8125,222.554596 1083.33333,224.124786 C1085.67708,222.554596 1088.28125,221.246103 1090.625,219.675913 C1090.36458,213.918547 1090.10417,206.852688 1093.22917,204.235704 C1094.27083,208.684578 1095.3125,213.133451 1095.3125,219.152516 C1097.91667,219.937611 1099.73958,221.507802 1101.82292,222.816294 C1101.82292,218.890817 1103.125,216.79723 1104.42708,214.180245 C1104.94792,214.180245 1105.20833,214.180245 1105.72917,214.180245 Z M301.171875,476.989583 C303.976446,476.989583 306.25,474.890918 306.25,472.302083 C306.25,469.713249 303.976446,467.614583 301.171875,467.614583 C298.367304,467.614583 296.09375,469.713249 296.09375,472.302083 C296.09375,474.890918 298.367304,476.989583 301.171875,476.989583 Z M813.541667,242.967075 C813.802083,243.228774 813.802083,243.490472 814.0625,243.75217 C813.802083,242.967075 814.0625,243.490472 813.541667,242.967075 Z M964.84375,249.247838 C964.84375,249.509537 964.84375,249.771235 964.84375,250.032933 C965.364583,250.032933 965.885417,249.771235 966.40625,249.771235 C965.885417,249.509537 965.364583,249.509537 964.84375,249.247838 Z" stroke="#E8299B" fill="#E8299B" fill-rule="nonzero"></path>
</svg>