<svg xmlns="http://www.w3.org/2000/svg" viewBox="0 0 1202 801">
  <path fill="#E8299B" stroke="#E8299B" d="M1105.72917 214.180245c0 5.233969.26041 10.20624.26041 15.440209 3.90625.261698 7.55209.785095 11.45834 1.046794v3.40208c3.125-.261699 6.25-.523397 9.375-.785096 1.30208.261699 2.34375.523397 3.64583.785096 3.64583-2.093588 7.03125-4.187176 10.67708-6.280763h5.72917c4.42708-2.093588 8.59375-4.448874 13.02083-6.542462h11.45834c0-6.019064.26041-12.038129.26041-18.057193h8.33334c0-5.233969-.52084-10.467938.26041-15.17851 6.25-7.850954 12.23959-4.710573 19.79167-1.570191v622.580624H0V405.220117c1.8229167.261699 2.34375.785096 3.3854167 1.570191 0 1.831889-.5208334 3.140381-1.0416667 4.187175-.5208333.261699-1.3020833.261699-1.8229167.523397 2.34375 4.972271 12.5 24.599655 3.90625 28.263433.2604167.261699.2604167.261699.5208334.523397 1.5625 2.616985 3.125 5.233969 4.6875 7.850954 3.125.261698 4.1666666.261698 6.5104166-.523397.78125-3.140382-1.3020833-7.065858-1.8229166-10.20624-1.0416667-6.542461 3.3854166-10.729636 3.6458333-15.963606.2604167-3.140381-2.6041667-5.757366-2.0833333-10.206239 1.0416666-.261699 2.34375-.261699 3.3854166-.523397v-2.355286c-3.90625 0-4.4270833-3.140382-2.6041666-5.757366 2.6041666-.785096 4.9479166-.261699 6.25 1.57019 0 2.616985-.5208334 3.663779-2.8645834 4.187176 0 .785095.2604167 1.57019.2604167 2.355286 1.3020833.261698 2.6041667.523397 3.90625.785095 1.5625 3.140382.5208333 7.065858 1.5625 11.776431 1.5625 4.97227 3.3854167 10.206239 4.9479167 15.17851 1.0416666 4.448874-2.34375 7.589255-.5208334 11.776431 1.5625 3.663778 4.9479167 4.448873 7.2916667 7.065858-.2604167.785095-.2604167 1.308492-.5208333 2.093587.5208333 0 .78125-.261698 1.3020833-.261698 1.0416667-7.589255-2.8645833-12.038129-2.0833333-17.533797C37.5 436.100535 39.0625 430.343169 40.3645833 424.847501v-7.850953c.78125-2.355286 2.6041667-1.308493 2.6041667-5.495668-2.0833333-.261698-2.34375-1.046794-3.6458333-2.093587 0-2.616985 1.0416666-3.140382 2.0833333-4.710573h.2604167c1.0416666 0 2.0833333.261699 3.125.261699.5208333.785095 1.3020833 1.308492 1.8229166 2.093587 0 2.616985-.78125 3.925477-2.8645833 4.448874v3.663779c1.8229167 0 2.6041667.523396 3.6458333 1.308492.78125 2.878683 0 6.542461.78125 9.944541C50 431.91336 51.5625 437.147329 53.3854167 442.642996c.78125 4.448874-1.3020834 6.542462-1.8229167 9.159446-1.0416667 4.710572 5.9895833 10.991335 9.375 12.299828-.2604167 2.616984-1.3020833 3.40208-2.6041667 4.97227.2604167 1.308493.2604167 2.878683.5208334 4.187176 1.0416666-.523397 2.0833333-.785096 3.125-1.308493.2604166-1.308492.5208333-2.878683.78125-4.187175 1.8229166-.261698 2.8645833-1.308492 4.1666666-2.355286.2604167-1.831889.5208334-3.925477-.2604166-5.495668-1.0416667-.785095-2.0833334-1.831889-3.125-2.616984-4.1666667-6.280763 1.5625-18.057194 2.6041666-23.552861.78125-4.187175-1.5625-7.327557-.2604166-10.991335 1.0416666 0 2.34375-.261699 3.3854166-.261699v-3.663778c-2.6041666 0-3.125-1.046794-4.6875-2.093588v-.261698c0-2.093588.5208334-3.140382 1.3020834-4.448874 1.8229166-.261698 3.3854166-.261698 5.2083333-.523397.78125.785096 1.3020833 1.308492 2.0833333 2.093588 0 3.40208-1.3020833 3.925477-2.8645833 5.757366v2.878683c2.6041667 0 3.3854167.523397 4.6875 1.570191 0 5.233969-.5208333 10.206239.78125 14.393415 1.5625 4.710572 4.1666667 8.897747 5.2083333 14.393415 1.0416667 5.757366-4.1666666 7.065858-2.0833333 12.561525 1.5625 4.710573 6.7708333 4.710573 9.1145833 8.636049-2.0833333 4.187176-3.3854166 3.140382-3.3854166 10.20624 1.5625-.785095 3.125-1.308492 4.6875-2.093587-1.0416667-1.308493-1.3020834-2.878683-1.0416667-4.710573 2.0833333 0 2.8645833-.261698 4.1666667-1.046793.78125-2.093588 1.3020833-4.187176 2.0833333-6.280763-6.25-8.897748-3.3854167-16.748701-1.3020833-27.740037.78125-4.448873-2.6041667-6.280763-1.3020834-9.944541.78125-1.831889 2.8645834-2.093588 5.2083334-2.616984v-3.40208c-1.8229167 0-2.8645834-.523397-3.90625-1.308493 0-.261698-.2604167-.261698-.2604167-.523397-.2604167-2.355286 0-3.663778 1.3020833-4.448873 1.8229167-1.308493 5.7291667-1.046794 6.7708337.785095.260416.785095.520833 1.308492.78125 2.093588-1.041667 1.831889-1.5625 2.878683-3.9062503 3.40208 0 1.046793.2604166 2.355286.2604166 3.40208 2.6041667 0 3.9062497.523396 5.4687497 1.308492v13.084923c2.083334 4.710572 4.166667 9.682842 6.25 14.393415 1.302084 5.495667-1.822916 8.636049-2.34375 12.299827-1.302083 7.065858 6.25 9.944541 10.15625 12.299827 0 1.046794-.260416 1.83189-.260416 2.878683-.520834 1.308493-1.302084 1.570191-2.604167 1.83189.260417 2.093587.260417 4.187175.520833 6.280762.520834-.261698 1.302084-.523396 1.822917-.785095-.78125-.785095-1.822917-1.831889-1.041667-3.40208 3.385417-4.187175 5.989584-2.093587 6.510417-10.729636-9.375-1.83189-2.604167-17.795495-2.34375-24.599655 0-4.972271-3.125-10.467938-.78125-13.870018 1.822917-.261699 3.645833-.785096 4.6875-2.093588-.260417-1.046794-.260417-2.093588-.520833-3.140381-2.604167 0-3.125-1.046794-4.6875-2.093588.260416-1.308492.260416-2.355286.520833-3.663778.78125-1.83189 3.125-2.355287 5.46875-1.83189.78125.523397 1.5625 1.308493 2.34375 1.83189 0 1.308492-.260417 2.355286-.260417 3.663778-.78125.785095-1.822916 1.831889-2.604166 2.616984.260416 1.046794.520833 2.093588.78125 3.140382 2.604166-.523397 4.6875-.523397 6.510416.785095.78125 3.40208-.78125 8.112652.260417 11.514732 2.34375 7.850954 12.239583 20.674178 4.6875 29.048529 1.5625 3.925477 2.864583 8.897747 5.729167 11.253033 2.083333 1.570191 4.427083 1.83189 6.25 3.663779-.520834 2.093587-1.822917 3.140381-3.90625 3.663778.260416 2.355286.260416 4.448874.520833 6.80416 2.34375-.785095 4.427083-1.308492 6.770833-2.093588v-3.40208c6.510417.261699 6.770834-3.40208 7.291667-8.897747-9.114583-5.757366-2.604167-18.58059-.78125-27.216639 1.302083-6.280763-4.427083-10.729637-1.822917-15.178511 2.083334-.261698 4.166667-.785095 6.25-1.046794 0-1.831889-.260416-3.663778-.260416-5.495667-2.34375 0-3.125-.785096-4.427084-1.570191-.260416-1.570191-.520833-3.140381-.78125-4.710572.78125-1.831889 3.385417-4.710572 6.510417-3.140382 4.166667 1.570191 3.645833 8.112653-.520833 9.421145 0 1.831889.260416 3.40208.260416 5.233969 1.5625 0 3.125.261698 4.6875.261698 1.822917 3.663779.520834 10.20624 1.822917 14.655114 2.864583 9.944541 12.760417 18.842289 4.427083 30.357021C175.78125 499.431561 181.25 504.66553 187.5 506.235721v3.40208c-1.041667.785095-2.083333 1.308492-3.125 2.093587.260417 4.187176.520833 8.374351.78125 12.561526 3.125-1.57019 5.989583-3.40208 9.114583-4.97227-.78125-1.570191-2.083333-3.663779-1.5625-5.233969.260417-1.046794 0-.785096.520834-1.308493 1.041666.523397 1.822916.785096 2.864583 1.308493 3.125-2.355287 3.90625-6.542462 5.46875-10.729637-10.416667-10.991335-.260417-19.889083 1.5625-31.927212-.78125-3.40208-1.5625-7.065858-2.34375-10.467938.520833-.785095 1.302083-1.570191 1.822917-2.355286 1.5625-.261698 3.385416-.523397 4.947916-.785095v-4.972271c-2.083333-.261698-3.125-1.308492-4.166666-2.616984.260416-1.046794.260416-2.355287.520833-3.40208.78125-2.093588 2.864583-2.616985 5.729167-2.355287 2.34375 1.046794 4.947916 2.616985 3.125 6.019065-2.083334 3.925477-4.6875-.261698-4.427084 7.327557h4.947917c1.822917 3.925477.260417 10.206239 1.5625 15.17851 2.34375 6.542461 4.947917 12.823224 7.291667 19.365686.78125 3.140381 1.041666 9.944541-1.302084 11.514732-.78125.261698-1.822916.523397-2.604166.785095 1.302083 4.972271 3.385416 10.991335 7.03125 13.60832 2.083333 1.570191 4.6875 1.308492 6.25 3.663778-.78125 2.355286-1.822917 3.40208-3.645834 4.448874.260417 4.972271.520834 9.682843.78125 14.655113 2.864584-2.093587 5.989584-3.925476 8.854167-6.019064-1.041667-1.570191-2.083333-3.40208-3.125-4.972271.260417-1.308492.78125-2.355286 1.5625-3.140381 6.25 2.616984 8.854167-4.187175 9.895833-9.159446-14.84375-3.40208-1.5625-26.431544 0-34.282498 1.041667-4.448873-2.864583-6.280763-3.125-10.467938 1.5625-2.616984 3.125-3.40208 7.291667-3.40208 0-1.831889-.260417-3.40208-.260417-5.233969-2.34375 0-3.385416-.523397-4.6875-1.570191-.520833-1.57019-1.302083-2.616984-1.302083-4.97227 1.5625-3.40208 4.947917-3.925477 8.854167-2.878683 1.302083 1.57019 2.083333 2.616984 2.34375 5.233969-1.302084 2.093587-2.604167 2.878683-4.166667 4.448874v4.97227c2.34375-.261698 4.6875-.261698 6.25.785096 1.822917 4.710572.260417 12.561525 1.822917 17.795494 2.864583 9.159446 9.114583 12.299828 8.072916 23.81456h.260417c7.03125-2.093588 13.802083-4.448874 20.833333-6.542461 3.125-1.046794 5.989584-1.046794 8.333334-2.355287 1.041666-5.495667-2.604167-10.206239-1.302084-15.963605 1.822917-1.308493 2.20515-3.40208 5.590566-3.40208-.151836-1.068084-.151836-6.889098 0-6.889098h1.440684v7.150796c0-.261698.762177-.261698.762177-.261698 1.302083-.523397 3.144073-.261699 4.706573 0 2.864584 2.355286 1.5625 10.467938 2.083334 14.393415h.260416c28.125-8.897748 56.25-18.057194 84.375-26.954941v-11.253034c-3.385416-3.40208-7.03125-7.065858-10.416666-10.467938v-.785095c23.697916-10.467938 47.135416-20.935877 70.833333-31.403815 8.59375 2.616985 17.1875 5.233969 25.78125 7.850954 16.666667 4.710572 33.333333 9.682843 50 14.393415.78125 1.046794 1.5625 1.831889 2.34375 2.878683 6.770833 3.40208 13.541667 6.80416 20.3125 10.20624.260417 1.831889.260417 3.663778.520833 5.495667-1.041666 0-2.083333.261699-3.125.261699 0 .785095.260417 1.57019.260417 2.355286 2.34375.785095 4.6875 1.57019 7.03125 2.355286 46.875 7.589255 94.010417 14.916812 140.885417 22.506067-.520834-.523397-1.041667-1.046794-1.5625-1.570191-3.385417-4.187175-6.770834-8.636049-10.15625-12.823224-2.864584-.523397-5.729167-.785095-8.59375-1.308492-1.822917-1.308493-3.645834-2.878683-5.46875-4.187176-6.770834-5.233969-13.28125-10.206239-20.052084-15.440208-.78125-2.878684-1.822916-5.757367-2.604166-8.63605-12.239584-9.682842-24.479167-19.627384-36.71875-29.310226-3.125-10.729637-6.25-21.720972-9.375-32.450609-3.125-3.40208-5.989584-7.065858-9.114584-10.467938v-68.826694c.520834-.261698 1.041667-.523397 1.5625-.785095-.260416-4.710572-.520833-9.421145-.78125-14.131717 3.385417-1.57019 1.302084-3.925477 2.864584-5.233969h1.041666c7.291667-1.308492 11.71875-1.570191 16.927084-3.663778 0-3.663779-1.302084-4.448874.260416-6.542462-2.083333-2.616984-1.5625-7.065858 0-9.682842h.260417c8.072917 1.831889 23.958333 3.40208 33.333333.523397v-.261699c-.78125-1.046794-1.5625-2.355286-2.34375-3.40208 1.041667-1.046794 2.864584-1.046794 3.90625-2.093587.520834-7.065859.78125-14.393416 1.302084-21.459274 2.34375.523397 4.166666 15.963606 4.166666 19.627384.260417 0 .520834-.261698.78125-.261698.520834-6.019065.78125-12.299828 1.302084-18.318892h1.5625l.520833.523397c-.260417 6.280763.78125 12.038129 2.864583 16.225304.260417 0 .520834-.261698.78125-.261698.520834-.261699 1.302084-.785096 1.822917-1.046794.260417-1.046794.260417-2.355286.520833-3.40208h.78125c.520834.261698.78125.261698 1.302084.523397v1.831889c7.552083-3.140381 15.364583-6.542461 22.916666-9.682843 6.770834-1.570191 19.010417 4.972271 23.177084 7.065859 0-1.046794.260416-2.093588.260416-3.140382 1.302084-.261698 2.34375-.261698 3.645834-.523397v2.878683c2.34375.261699 4.947916.261699 7.291666.523397 0-2.878683-.260416-5.757366-.260416-8.636049h1.822916c.520834 2.616985.78125 5.233969 1.302084 7.850954h.260416c4.6875-2.355286 9.635417-4.448874 14.322917-6.80416 11.979167-.523397 23.958333-.785096 35.9375-1.308492 3.125 1.308492 6.510417 2.878683 9.635417 4.187175h9.114583c4.427083.523397 8.854167 1.308492 13.28125 1.831889 0-.785095.260417-1.570191.260417-2.355286.520833 0 1.302083.261698 1.822916.261698.78125 4.448874 5.729167 4.448874 9.635417 5.757366 8.59375 2.878683 5.729167.785096 11.979167-1.308492 7.552083 0 15.104166-.261698 22.65625-.261698-.520834-12.299828-.78125-24.599655-1.302084-36.899482 4.947917-1.308493 9.635417-2.878683 14.583334-4.187176 0-1.046794.260416-2.355286.260416-3.40208 2.34375 0 4.427084.261699 6.770834.261699 2.34375 4.448874 7.8125 3.40208 11.197916 6.542461.260417 10.20624.78125 20.674178 1.041667 30.880418 3.90625 0 7.8125-.261699 11.71875-.261699 0-4.710572-.260417-9.159446-.260417-13.870018.520834-.261698 1.302084-.261698 1.822917-.523397 0-4.448873 0-8.636049 1.5625-11.253033h.260417c.78125 0 1.822916.261698 2.604166.261698 2.864584 6.280763 3.385417 16.225304 3.385417 25.38475 4.166667.523397 10.677083 3.925477 14.583333 1.308493 2.083334-1.308493 3.125-4.187176 5.46875-5.757366.260417 1.831889.78125 3.140381 1.822917 4.187175h.260417v-2.616985H937.5v3.925477h6.770833v-4.448874h1.5625c0-7.065858 2.604167-10.991335 3.90625-16.487002h1.302084c.78125 5.757366 2.864583 10.20624 2.864583 17.010399H956.25v14.393415h7.03125c.520833-.785095 1.041667-1.57019 1.5625-2.355286 5.46875 3.40208 15.364583 2.093588 23.697917 2.093588 0-4.448874-1.041667-12.038129.520833-15.440209 3.125-1.831889 5.989583-3.663778 9.114583-5.495667v-41.610055c.520834 0 1.302084.261699 1.822917.261699.52083-2.878683 1.30208-5.495668 1.82292-8.374351 2.08333-1.046794 4.16666-2.355286 6.25-3.40208 1.04166-1.570191.52083-3.40208 1.82291-4.710572.26042 1.570191.78125 3.40208 1.04167 4.972271 2.08333 1.046793 4.16667 2.355286 6.25 3.40208-.26042 1.831889-.26042 3.663778-.52083 5.495667 1.5625.261699 2.86458.523397 4.42708.785095v40.039864c15.88542 4.187175 37.76042-.261698 56.25-.785095 1.04167-2.355286 1.82292-4.972271 4.42708-5.757366.52084 1.57019 1.04167 3.40208 1.5625 4.97227 2.34375-1.57019 4.94792-2.878683 7.29167-4.448873-.26042-5.757366-.52083-12.823225 2.60417-15.440209 1.04166 4.448874 2.08333 8.897747 2.08333 14.916812 2.60417.785095 4.42708 2.355286 6.51042 3.663778 0-3.925477 1.30208-6.019064 2.60416-8.636049h1.30209zM301.171875 476.989583c2.804571 0 5.078125-2.098665 5.078125-4.6875 0-2.588834-2.273554-4.6875-5.078125-4.6875s-5.078125 2.098666-5.078125 4.6875c0 2.588835 2.273554 4.6875 5.078125 4.6875zm512.369792-234.022508c.260416.261699.260416.523397.520833.785095-.260417-.785095 0-.261698-.520833-.785095zm151.302083 6.280763v.785095c.520833 0 1.041667-.261698 1.5625-.261698-.520833-.261698-1.041667-.261698-1.5625-.523397z"/>
</svg>