<svg xmlns="http://www.w3.org/2000/svg" viewBox="0 0 1200 795">
  <path fill="green" fill-rule="nonzero" stroke="green" d="M811.600081 256.8704117c.730075 0 1.216792.2433583 1.946867.2433583 1.46015 25.5526263 2.9203 50.861894 4.38045 76.41452.730075 4.867167 1.946867 8.030826 1.946867 13.141351 4.137092-.243358 9.977692-.730075 10.951125 2.190225 16.548368-2.676942 29.44636 2.9203 32.853377 15.818293h1.46015c1.703508-11.437843 10.464409-19.468668 19.712026-23.362402 2.433583-.973433 9.977692-1.703508 11.924559-2.9203.730075-.973433 1.216792-1.946866 1.946867-2.9203 3.650375-.973433 7.544108-2.190225 11.194484-3.163658.973433.730075 1.946866 1.703508 2.9203 2.433583-1.216792 5.8406-15.088218 3.893734-21.658893 5.8406-11.437842 3.407017-20.198743 9.977693-24.092476 20.928818-1.703509 5.110525-.486717 12.654634.973433 17.278443.486717 6.083958.730075 11.924559 1.216792 18.008517.486717 9.734334 1.216792 19.468668 1.703508 29.203002.730075 1.216791 1.216792 2.190225 1.946867 3.407016.730075 15.331576 1.46015 30.90651 2.190225 46.238086 0 1.703508.243359 3.163658.243359 4.867167.973433 1.946867 1.946866 1.216792 1.946866 4.38045 12.897993-.730075 25.552627-1.46015 38.450619-2.190225-.243358-14.844859 3.650375-22.632326 17.765159-22.632326-.243358 1.46015-.730075 2.190225-1.46015 2.9203-13.141351-.243358-15.331576 6.327317-15.088217 19.225309 3.893733-.243358 8.030825-.486716 11.924558-.730075 0-1.46015.243359-2.9203.243359-4.38045 3.650375-1.216792 20.685459-5.597242 23.119043-4.623809.243358 1.946867.730075 4.137092.973433 6.083959 13.384709-1.703508 27.012776-3.407017 40.397485-5.110525-.730075-10.707767-1.703508-21.415534-2.433583-32.123302-.973434-6.814033-.243358-14.114784-1.946867-20.198742-.973433-3.650376-3.163658-7.544109-6.083959-9.490976-6.083958-3.893733-26.526059-.243358-33.583451-.243358 0-.243358-.243359-.486717-.243359-.730075-.486716-.486717-.486716-.486717-.486716-1.46015.486716-.486717.730075-1.216792 1.216792-1.703509 4.137091 0 6.814033-.243358 9.247617 1.216792h5.353883c5.597242.730075 14.844859-.730075 18.981951 1.703508 4.137092 2.433584 4.137092 6.814034 7.057392 10.464409 1.46015-13.628067 17.765157-13.871425 29.202997-17.765159 3.40702-1.216792 11.19449-5.353883 14.60151-1.946867-.48672 1.216792-1.2168 2.433584-1.70351 3.650376-3.40702 0-7.30075-.243359-9.73434-1.703509-11.19448 3.650375-29.933073 5.110525-31.393223 18.495234.486716 2.9203.973433 5.840601 1.46015 8.760901l2.190225 23.362401c1.46015 0 2.9203.243358 4.38045.243358.243358 3.407017 2.433588 8.030826 1.460148 10.464409-1.21679 0-2.433581.243358-3.650373.243358.730075 6.814034 1.216792 13.384709 1.946867 20.198743.973436 5.8406.486716 12.167917 1.946866 17.278443.73008.243358 1.46015.486716 2.19023.730075 0 1.703508.24335 3.163658.24335 4.867167h-.48671c-.48672 0-.73008.243358-1.21679.243358 0 1.46015.24335 3.163658.24335 4.623808h4.1371c-.24336-9.734333-4.1371-32.610018 0-38.20726 2.43358-3.407017 7.30075-4.137092 12.65463-4.623808v-21.658893c1.21679-.730075 2.67694-1.216792 3.89373-1.946867-.73007-9.004259-1.70351-17.765159-2.43358-26.769418.73007-.243358 1.21679-.243358 1.94687-.486716 0-.730075-.24336-1.216792-.24336-1.946867 2.9203 0 5.8406-.243359 8.7609-.243359v1.460151c.48672 0 1.21679.243358 1.70351.243358v1.216792c-2.67694 4.867166-.24336 14.358142 0 20.928817 5.59724 1.46015 11.43784 5.110526 12.89799 10.707767h.24336c.97343-5.110525 15.08821-14.6015 19.95538-11.194483v.243358c-.24336.730075-.73007 1.46015-.97343 2.190225-9.97769 2.190225-15.33158 1.46015-18.25188 10.707767-.24336.973434-1.21679 5.110525-.48671 6.814034.73007 1.946867 1.94686 2.9203 2.19022 6.327317 1.21679-.486717 1.94687-.730075 2.9203 0-.24336.486717-.24336.973433-.48672 1.46015 3.40702 0 3.89374 1.46015 5.8406 3.650375h.24336c.73008-.486717 1.21679-.973433 1.94687-1.703508.97343 1.216791 1.70351 2.190225 2.67694 3.407017-.24336.243358-.24336.486716-.48672.730075-1.21679.486716-1.7035.730075-2.43358 1.703508v.730075c2.19023-.486717 5.35389-2.190225 7.78747-1.216792.48672.243359.73007.486717 1.21679.730075-.24336 2.190225-.97343 2.433584-1.94687 3.893734.48672.243358.73008.486717 1.94687.486717 3.65038-1.703509 7.05739-3.407017 10.22105-5.597242 1.46015.243358 1.70351.730075 2.67694 1.46015.73008-1.216792 1.21679-2.190225 1.94687-3.407017 1.94687 0 2.67694.730075 3.16366 1.946867.73007-.243359 1.46015-.730075 2.19022-.973434.97344 1.946867 1.94687 3.650375 2.9203 5.597242.73008.243359 1.70351.486717 2.43359.730075 1.46015 1.46015 3.16365 2.676942 4.62381 4.137092 1.21679-1.216792 2.43358-2.190225 3.65037-3.407017-.73007-.973433-1.21679-.973433-.97343-2.433583h6.32731c.48672-.486717.24336-1.216792 1.2168-1.46015 3.65037-.243359 7.5441-.486717 11.19448-.730075 0-12.167918-11.19448-9.977692-21.17218-9.734334 0-.730075-.24335-1.703509-.24335-2.433584.48671-.243358.97343-.730075 1.46015-.973433 7.30075 0 19.2253 2.190225 20.4421 8.517542 0-.243358.24335-.243358.24335-.486717 1.46015-2.190225 2.43359-4.38045 4.62381-5.8406 1.21679-.486717 2.43359-.730075 3.65038-1.216792 0 0-.48672-3.893733 0-4.623808.97343-.730075 2.19022-1.216792 3.16366-1.946867.24336-.730075.24336-1.46015.48671-2.190225 1.2168-1.46015 2.43359-2.676942 3.65038-4.137092-.24336-.243358-.24336-.243358-.48672-.486717-1.94686.730075-6.32732 3.407017-8.03082 2.433584 0-.243358.24335-.486717.24335-.730075 1.94687-1.216792 4.1371-2.676942 6.08396-3.893734-.24335 0-.48671-.243358-.73007-.243358-1.94687-.730075-2.9203-1.46015-5.11053-.486717-.24336 0-.73007.243359-.97343.243359v-.973434c.24336-.486716.73007-.730075.97343-1.216791h.24336c3.40702 0 4.62381 1.46015 6.57068 1.946866 1.46015.243359 2.67694-1.216791 3.89373-.973433.24336.973433.48672 1.703508.73008 2.676942.24335-.243359.73007-.730075.97343-.973434 2.19022-.730075 2.9203-.486716 4.62381-1.703508.24336 0 .24336.243358.48671.243358.24336.973434.73008 1.703509.97344 2.676942.48671-.243358.97343-.486717 1.46015-.730075 0-.243358-.24336-.486717-.24336-.730075-5.8406-6.814034-8.03083-6.083959-18.49524-4.867167l-.24335-.243358v-1.216792c2.67694-.973433 5.35388-1.946867 8.03082-2.9203v-.243358c-.48671-.973434-.73007-2.190226-1.21679-3.163659l.24336-.243358c2.67694.243358 5.35388.730075 7.05739-.730075-.73007-.486717-1.21679-.973434-1.94687-1.46015 0-.243359.24336-.730075.24336-.973434 2.67694 0 5.59724.973434 6.57068.730075.24336-.486716.48671-.730075.73007-1.216791v-.243359c-.73007-.486717-1.21679-.973433-1.94686-1.46015.48671-1.703508.97343-3.163658 1.94686-4.38045 3.40702.486717 5.11053 2.676942 10.22105 2.676942v-.243359c-.73007-1.946866-.48671-3.893733 1.21679-4.38045 0-.243358-.24335-.243358-.24335-.486717-2.43359.243359-4.62381 2.190226-6.32732.973434.24336-.243359.24336-.486717.48672-.730075.24335-.243359.73007-.486717.97343-.730075 0-.243359-.24336-.243359-.24336-.486717-1.21679-.486717-2.43358-1.216792-3.65037-1.703508.24335-.243359.24335-.486717.48671-.730075 3.16366 0 6.08396.243358 9.24762.243358-1.21679-14.114784-2.43358-27.98621-3.65038-42.100994-.73007 0-1.7035-.243358-2.43358-.243358-.24336-1.703509-.73007-3.163659-.97343-4.867167 1.21679-.973433 2.19022-.486717 2.43358-2.676942-3.89373-15.088217-.24336-35.043602-5.8406-48.184952 0-.243359.73008-2.433584.48672-3.407017-.48672 0-.73008-.243358-1.21679-.243358v-.973434c.48671-.243358 1.21679-.730075 1.7035-.973433-.24335-1.946867-1.7035-6.083959-.48671-7.544109 1.70351-1.703508 6.81403-1.946867 9.24761-.730075 0 2.676942.24336 5.597242 1.46015 7.300751.97344.243358.97344.243358 1.46015.730075-.48671.486716-.73007.973433-1.21679 1.46015.97344 6.083958 1.46015 15.574934 2.9203 23.362401 1.46015 9.734334 2.67695 19.225309 4.1371 28.959643.73007.243358 1.46015.243358 2.19022.486717 0 2.433583.48672 4.867166 0 6.327317-.97343.243358-.73007 0-1.21679.486716 2.19022 17.035084 4.62381 34.313527 6.81403 51.348611.97344 2.433583 2.9203 3.893734 3.16366 7.544109.97343-.243359 1.21679-.486717 2.19023 0 .24335 1.946866 1.21679 3.163658 2.19022 4.38045 5.59724-.730075 10.95113.243358 16.30501.973433V795H0c0-93.206246.730075-233.44494.730075-326.651186v-79.578179c0-6.814034-1.46015-28.472927.4867167-32.853377 3.8937336-2.9203 7.5441087-5.8406 11.4378422-8.7609 11.924559.243358 27.7428514 21.172176 42.8310688 16.791726.730075-2.676942 1.7035084-5.353884 2.4335834-8.030826 1.7035085 0 3.4070169.243359 5.1105253.243359v3.893733h9.4909755c0-2.676942.2433583-5.110525.2433583-7.787467 6.5706753 0 6.5706753 1.703508 10.4644088 2.9203 2.1902252 0 4.3804503.243358 6.5706754.243358 0 1.216792.2433583 2.433584.2433583 3.650376 5.5972419 0 11.1944843.243358 16.7917263.243358v-4.867167c6.327317-5.110525 11.6812-8.7609 20.198742-2.433583 1.46015 1.216791 2.676942 2.190225 4.137092 3.407016.243358 1.703509.243358 3.650376.486717 5.353884h6.083958v-4.623808c2.920301-1.216792 5.840601-2.190226 8.760901-3.407017-3.163659-6.327317-1.46015-13.141351 4.38045-15.574934 1.216792-.243359 2.433583-.730075 3.650375-.973434v-.730075c.973434-3.893733.243359-6.570675 1.46015-9.734334 1.46015-3.893733 2.676942-7.544108 4.137092-11.437842.486717-6.327317.730075-13.628067 1.946867-20.442101.973433-5.353883 2.433583-11.1944837.243358-14.8448589.243359-.4867167.486717-.730075.730075-1.2167917 1.46015-.4867167 2.676942-.7300751 4.623809-.4867167.730075 2.4335834-1.216792 4.6238085-1.216792 9.0042587 0 8.7609006 1.216792 20.4421006-.730075 27.9862096 1.216792 5.353884 2.676942 10.951126 3.893734 16.305009-.243359 2.190225-.730075 4.38045-.973434 6.570676 9.734334 1.46015 7.544109 9.734333 5.597242 17.035084 1.946867.973433 4.137092 2.190225 6.083959 3.163658-.486717 1.46015-.973434 2.676942-1.46015 4.137092.486716.973433.730075 1.946867 1.216791 2.9203 6.327317.730075 12.654634 1.703509 18.981951 2.433584v-2.9203c3.163659-.730075 4.137092-3.407017 6.814034-4.380451 6.814034-2.676941 15.088217 1.946867 15.574934 7.787467.973433.243359 1.946867.486717 2.9203.730075v.973434c-1.216791.243358-2.433583.730075-3.650375.973433v1.46015c1.216792.243359 1.216792.243359 1.46015 1.46015-.730075 0-1.46015-.243358-2.190225-.243358v2.190225c3.407017 0 7.057392-.243358 10.464409-.243358-.730075-.243359-1.46015-.243359-2.190225-.486717.243358-.243358.486716-.730075.730075-.973433 3.163658.486716 6.570675 1.216791 9.734334 1.703508v-2.190225c-.486717-.243358-.730075-.486717-1.216792-.730075 0-.243358.243358-.730075.243358-.973433 4.137092-.243359 4.38045-1.946867 6.814034-3.407017 6.327317-3.650375 11.924559 1.703508 14.844859 4.623808 2.676942-1.46015 13.628067-5.597242 17.278442-4.623808v4.137092c5.353884.730075 10.464409 1.46015 15.818293 2.190225.730075-1.703509 1.946867-3.893734 3.893733-4.137092.730075 2.190225 1.703509 4.137092 2.433584 6.327317 7.30075.730075 17.278442 5.110525 19.712026-2.676942 0-1.946867.243358-3.650375.243358-5.597242 3.163659 0 4.38045-.730075 6.570675-1.216792.243359-2.9203.243359-5.597242.486717-8.517542 1.216792-2.190225 4.867167-4.38045 8.030826-4.623808 1.46015 1.946866 3.163658 3.893733 4.623808 5.8406 1.46015 4.623809-1.216792 7.30075 1.46015 10.951126h.243359c.243358 0 .730075-.243359.973433-.243359 0-2.9203 0-6.814033.973433-8.7609h.243359c.486716 0 .973433.243358 1.46015.243358-.243359 7.544109-1.216792 20.442101 3.650375 23.849118 4.623808.973433 9.247617 1.946867 13.871426 2.9203.973433-1.703508 2.190225-4.867167 4.623808-5.110525.973434 2.190225 1.946867 4.623808 2.9203 6.814033 4.137092 0 5.110526-1.216791 8.760901-1.46015v-6.083958h.486716c4.137092.243358 8.274184.486716 12.411276.730075v-10.951126c.486717 0 .973433.243359 1.46015.243359 0 6.083958-.243358 12.167917-.243358 18.251876 4.623808 0 7.544108-1.946867 11.194484-2.920301-.243359-6.327317 1.703508-8.7609 6.327317-10.22105 0-9.247617 4.38045-13.141351 5.353883-20.198743 0-3.163658-.243358-6.083958-.243358-9.247617 0-4.38045-.486717-9.734334.973433-12.654634 0-6.083958.243359-12.411275.243359-18.495234h.973433v18.495234c.243358.973434 1.216792 1.46015.973433 3.407017 0 6.083959-.243358 12.167917-.243358 18.251876 1.216792 3.893733 2.433583 7.544109 3.650375 11.437842.730075 1.946867 0 7.544109.973434 8.760901 1.703508 1.703508 3.650375 3.163658 5.353883 4.867166.730075 1.216792.730075 3.407017 1.703509 4.623809-.730076 1.46015-1.216792 2.676942-1.946867 4.137092 1.46015 0 2.190225 0 2.9203.486717.243358 1.216791.730075 2.433583 1.703508 2.9203 1.46015.486716 3.163659.730075 4.623809 1.216791v.243359c0 .243358-.243358.486716-.243358.730075-.730076.243358-1.703509.243358-2.433584.486716-.243358.730076-.243358 1.460151-.486717 2.190226-.973433.243358-1.703508.486716-2.676941.730075v.243358c.243358 1.46015 1.216791 1.946867 1.46015 2.9203.486716 1.946867-1.703509 2.433584-.973434 4.38045.730075.730075 1.216792 1.46015 1.946867 2.190225-.486717.243359-.730075.730075-1.216792.973434.730075.730075 1.216792 1.46015 1.946867 2.190225 0 .486717-.243358.730075-.243358 1.216792-.730075.243358-1.46015.486716-2.190225.730075v.973433c1.946866 1.46015 2.9203 3.650375 4.137091 5.8406-.973433 1.703509.486717 1.46015-.243358 3.407017h-1.46015c.486717 2.190225-.486717 4.137092-1.216792 5.353884 0 2.9203-.243358 5.8406-.243358 8.7609 2.190225 1.216792 4.137092 2.190225 6.327317 3.407017 0 2.433583.243358 4.867167.243358 7.30075 1.703509.486717 3.893734.973434 4.867167 2.190226-1.46015 2.190225-2.9203 4.137091-5.353883 5.353883-1.216792-.730075-3.163659-.973433-5.110526-.486717 0 3.650376-.243358 7.057392-.243358 10.707768 2.190225.973433 4.137092 1.946866 6.327317 2.9203v2.433583c1.703508.486717 2.190225 1.46015 3.407017 2.190225 5.110525-.730075 10.464409-1.216791 15.574934-1.946866 0-1.703509 0-3.407017.486717-4.380451 2.190225 0 4.137092-.243358 6.327317-.243358 0-1.703508-.243359-2.9203.243358-3.893734 1.46015 0 1.703508.243359 2.433583.730075 0-1.703508-.243358-2.676941.243359-3.650375.730075.243359 1.703508.243359 2.433583.486717.730075 2.433583 1.46015 4.137092 1.46015 8.030825 2.676942 0 4.867167.973434 6.327317.973434 4.623809-.486717 9.247617-1.216792 13.871426-1.703509 0-1.703508 0-2.9203.730075-3.650375 2.433583-.973433 5.110525-10.951125 8.274184-12.411275 2.190225-.243359 4.623808-.730075 6.814033-.973434 0-1.46015 0-2.190225.486717-2.9203 5.8406-2.190225 11.681201-4.38045 17.521801-6.570675 6.570675-1.46015 14.844859 3.163658 21.658893 1.946866.243358-1.46015.730075-2.190225 1.216791-3.163658 1.703509 0 2.433584.486717 3.163659 1.46015 0 .973433.243358 1.703508.243358 2.676942 2.9203.243358 6.083959.486717 9.004259.730075 0-.973433.243358-1.703509.243358-2.676942 3.163659-.243358 6.083959-.486717 8.517542-.973433 2.920301 3.163658 10.707768 3.650375 15.818293 4.38045v.730075c-1.946867 3.407017.486716 4.137092 2.190225 6.327317 1.703508-.243358 3.407017-.243358 5.110525-.486717.730075 1.216792 1.46015 2.190225 3.407017 2.190225-.486717-.973433-.486717-1.946866-.243358-3.163658h4.623808v3.163658c5.597242 0 11.437842-.243358 17.035084-.243358 0-.973433-.243358-.730075.243359-1.46015 1.216791 0 2.190225-.243358 3.407017-.243358v-8.030826h.730075c.243358 0 .243358.243359.486716.243359v7.544108h.730075c0-1.946866-.243358-3.650375.486717-4.38045.243358.243358.243358.486717.486717.730075 0 1.216792.243358 2.676942.243358 3.893734h4.38045v-6.327317h.973434v.486716c0 1.946867.243358 4.137092.243358 6.083959h1.46015v-6.083959h.973433v.486717c0 1.703508.243359 3.650375.243359 5.353884 4.137092 0 9.247617 1.946866 12.654634 1.946866v-1.46015c.730075-.486716 1.46015-1.216791 2.190225-1.703508 2.433583 0 2.676942.730075 4.38045.973433 0-1.703508.243358-3.163658.243358-4.867167 1.46015 0 2.433584 0 3.163659.486717.243358 1.46015.243358 2.9203.486717 4.38045 1.46015 0 2.676941 0 3.407016.486717 0 .486717.243359.973433.243359 1.46015h5.597242c0-.730075.243358-1.216792.243358-1.946867 1.703508 0 3.163659 0 4.137092.486717v1.703508c1.46015 0 2.676942 0 3.407017-.486716v-6.570676c1.216791 0 1.216791.243359 1.946866.486717 0 1.703508.243359 3.650375.243359 5.353884 4.867167.973433 4.623808 0 9.004259-1.46015 0-2.433584.243358-4.867167.243358-7.300751 1.46015 0 1.46015-.243358 2.190225.243359.243358 1.703508.486717 3.163658.730075 4.867166 5.353884 0 9.734334-.243358 13.871426.730076 0-1.703509-.243359-2.920301.243358-3.650376 1.946867-.243358 4.623809-.243358 7.544109-.243358v-1.46015c.243358-.243358.243358-.243358.486716-.486717h8.274184v1.216792c5.110525-.243358 10.221051-.243358 15.331576-.486717 2.190225-1.216791 5.110525-2.676942 8.517542-2.9203.243358-.730075.243358-1.46015.486717-2.190225 5.8406-.730075 14.844859-1.703508 21.415534-.486717.243358.973434.243358 2.190225.486717 3.163659h1.216792c0-1.703509-.243359-2.190225.243358-3.163659 2.190225-.243358 13.384709-.973433 14.601501.243359 0 1.46015.243358 2.676941.243358 4.137092 6.570675 0 14.601501-1.703509 21.658893-1.216792 0 .243358.243358.243358.243358.486716v1.216792c.486717 0 1.216792-.243358 1.703508-.243358.973434-4.38045 5.353884-7.787467 9.734334-8.517542 0-17.765159.730075-39.910769-2.190225-58.89272-.486717-9.977692-1.216792-19.712026-1.703508-29.689718-.730075-4.137092 1.216791-7.30075 1.216791-9.977692-1.946866-27.256135-3.650375-54.5122693-5.597242-81.768404h1.946867c.243359-34.556885-17.035084-46.7248022-46.96816-51.3486108-5.353884-.730075-12.167918.2433583-16.061651 1.2167917-3.163659.2433584-6.570675.2433584-9.734334.4867167-.486717.4867167-.973433 1.2167917-1.46015 1.7035084-2.676942 0-5.353884-.2433583-8.030825-.2433583-.973434-.9734334-2.190226-1.9468668-3.163659-2.9203002 0-3.4070168.243358-6.0839586.973433-8.517542h.243359c7.544109.9734333 15.088217 2.1902251 22.632326 3.1636584v2.1902252c29.689718-3.1636585 55.972419 9.0042587 61.81302 30.6631514h.243358c2.190225-20.1987426 21.172176-29.9330764 38.937335-34.8002433 6.327317-.9734334 12.897992-1.9468668 19.225309-2.9203002 2.433584-2.190225 19.712026-9.0042587 23.119043-7.5441087.730075 1.2167918 1.46015 2.1902251 2.190225 3.4070169 0 3.4070168-2.190225 5.3538836-3.650375 7.787467-1.946867.4867167-3.893733.7300751-5.8406 1.2167917-1.946867.4867167-2.676942-.730075-3.650375-.9734333-.973434-.2433584-14.114784 0-15.331576.2433583-24.822551 4.1370919-41.857635 9.0042588-49.888461 29.4463598-2.676942 6.5706753-1.46015 18.4952342-1.46015 27.499493zm8.760901 95.8831883c1.46015 25.309268 2.676941 50.618535 4.137091 75.927803.730075 1.216792 1.703509 2.676942 2.433584 3.893734.243358 2.9203.730075 5.8406.973433 8.7609.973434 2.433584 2.9203 4.380451 3.893734 7.544109 9.734334-.243358 18.251876-.973433 21.658892 5.8406-2.433583 3.163659-2.190225 9.247617-1.216791 14.601501.973433 11.437842 1.703508 22.875684 2.676942 34.313527 4.623808.243358 9.490975.486716 14.114784.730075-.243359-7.057392-.243359-13.871426-.486717-20.928818.243358-1.46015 1.46015-2.676942.973433-5.110525-1.216791-15.818293-2.433583-31.393227-3.650375-47.211519 0-1.703509 1.216792-3.407017.730075-5.8406-.730075-9.490976-1.46015-18.738593-2.190225-28.229569-2.676942-17.278442 2.433583-33.826809-9.247617-42.831068-5.353884-4.137092-16.791726-6.814034-26.039343-3.893734-3.163659.973434-5.597242 2.433584-8.7609 2.433584zm210.748328 48.184952c-2.19023.486717-4.38045 1.216792-6.57068 1.703508 2.67694.243359 5.11053.486717 7.78747.730075.24336-.730075.48672-1.216791.73008-1.946866-.24336 0-.24336-.243359-.48672-.243359-.48672 0-.97343-.243358-1.46015-.243358zm-80.308255 7.787467c-.243359.486717-.243359.973433-.486717 1.46015h3.407017c1.216791-.973433 2.433583-.730075 4.38045-1.46015h-7.30075zm41.12756 24.335835v.973433h.243358c0-.243358-.243358-.730075-.243358-.973433zm.243358 2.433583c0 .730075.243359 1.216792.243359 1.946867 0-.730075-.243359-1.216792-.243359-1.946867zm71.303997 4.623809c-1.70351.486716-3.16366 1.216791-4.86717 1.703508v.486717c2.19023 0 4.38045-.486717 5.8406-1.216792v-.243358-.486717c-.24336 0-.73007-.243358-.97343-.243358zM930.602312 461.53478c.243358 0 .730075.243358.973433.243358-.243358 0-.730075-.243358-.973433-.243358zm169.134048 2.676942c-.24336.243358-.48671.243358-.73007.486716v.486717h1.70351c.48671-.243358.97343-.243358 1.46015-.486717-.73008-.243358-1.70351-.243358-2.43359-.486716zm-632.001621 2.9203v.730075c0-.243358.243359-.486717.243359-.730075h-.243359zm533.198131 43.561144c0 2.676941.24336 5.597242.24336 8.274183 0-2.676941-.24336-5.597242-.24336-8.274183z"/>
</svg>