<?xml version="1.0" encoding="UTF-8"?>
<svg viewBox="0 0 1200 795" version="1.1" xmlns="http://www.w3.org/2000/svg" xmlns:xlink="http://www.w3.org/1999/xlink">
    <!-- Generator: Sketch 53.2 (72643) - https://sketchapp.com -->
    <title>Artboard</title>
    <desc>Created with Sketch.</desc>
    <g id="Artboard" stroke="none" stroke-width="1" fill="none" fill-rule="evenodd">
        <g id="athens" transform="translate(0.000000, 303.000000)" fill="rgb(224, 17, 95)" fill-rule="nonzero" stroke="rgb(224, 17, 95)">
            <path d="M209.744214,96.954933 C209.98782,103.288672 209.013398,106.699147 206.82095,110.353228 C206.82095,110.353228 206.577345,110.353228 206.577345,110.353228 C206.333739,110.353228 205.846529,110.109622 205.602923,110.109622 C205.602923,107.917174 205.602923,105.724726 205.602923,103.532278 C205.359318,103.532278 205.359318,103.288672 205.115713,103.288672 C202.192448,104.750305 200.243605,106.455542 195.615104,105.481121 C195.371498,107.186358 194.640682,108.16078 193.666261,108.891596 C197.807552,112.789281 195.127893,117.661389 191.717418,120.828258 C189.768575,120.584653 189.52497,119.853837 188.550548,118.879415 C187.332521,119.366626 186.3581,120.097442 185.140073,120.584653 C186.114495,122.533496 188.794153,121.80268 191.473812,122.28989 C192.691839,123.995128 196.34592,127.649208 192.448234,129.11084 C190.986602,129.598051 189.037759,129.11084 188.063337,129.841657 C188.306943,130.328867 188.794153,130.816078 189.037759,131.303289 C190.255786,130.328867 190.742996,129.598051 192.935445,129.354446 C193.17905,129.354446 193.17905,129.598051 193.422655,129.598051 C193.422655,131.059683 193.17905,132.27771 193.17905,133.739342 C193.422655,133.982948 193.909866,134.470158 194.153471,134.713764 C194.397077,134.713764 194.397077,134.470158 194.640682,134.470158 C195.371498,133.252132 195.858709,132.034105 196.589525,130.816078 C213.398295,128.867235 205.602923,138.855055 208.038977,149.573691 C208.526188,149.573691 209.257004,149.817296 209.744214,149.817296 C209.744214,150.060901 209.744214,150.304507 209.744214,150.548112 C209.744214,150.791717 209.500609,150.791717 209.500609,151.035323 C207.551766,151.035323 205.846529,150.791717 203.897686,150.791717 C203.65408,149.08648 202.436054,148.842875 201.218027,148.112058 C202.679659,151.522533 204.384896,152.25335 207.308161,154.202192 C207.308161,154.689403 207.308161,155.176614 207.308161,155.663825 C206.577345,157.369062 205.359318,158.343484 203.65408,159.317905 C202.923264,159.0743 202.436054,158.830694 201.705238,158.587089 C201.705238,160.779537 201.218027,161.997564 200.243605,163.215591 C199.025579,163.215591 197.076736,163.215591 196.589525,163.702801 C196.589525,165.89525 196.589525,168.331303 196.589525,170.523752 C197.563946,171.254568 198.294762,171.985384 199.269184,172.7162 C198.538368,170.523752 198.538368,166.869671 199.269184,164.920828 C200,164.920828 200.487211,165.164434 201.218027,165.164434 C203.16687,166.869671 206.577345,172.7162 207.064555,175.395859 C208.038977,179.780755 206.090134,183.434836 207.795371,187.088916 C216.321559,188.550548 220.46285,193.666261 226.065773,197.807552 C243.848965,195.858709 261.388551,194.153471 279.171742,192.204629 C279.171742,190.01218 278.684531,185.383678 279.902558,184.409257 C295.980512,183.434836 312.302071,182.704019 328.380024,181.729598 C328.380024,163.946407 328.136419,146.406821 328.136419,128.62363 C327.649208,128.62363 327.405603,128.62363 326.918392,128.62363 C327.161998,126.187576 327.649208,123.507917 327.892814,121.071864 C326.431181,121.071864 324.482339,121.315469 323.751523,120.584653 C323.507917,119.123021 323.264312,117.417783 323.020706,115.956151 C326.431181,114.250914 335.200974,109.378806 340.803898,113.520097 C342.752741,112.302071 344.945189,111.327649 346.894032,110.109622 C347.624848,109.378806 346.894032,108.404385 347.868453,107.917174 C350.060901,106.699147 355.420219,105.237515 357.856273,105.481121 C357.856273,105.968331 357.856273,106.455542 357.856273,106.942753 C361.753959,105.481121 379.293544,98.4165652 382.460414,99.1473812 C382.704019,100.852619 382.704019,102.801462 382.947625,104.506699 C383.922046,104.506699 384.896468,104.506699 385.870889,104.506699 C385.870889,104.019488 385.870889,103.532278 385.870889,103.045067 C386.114495,102.801462 386.114495,102.801462 386.3581,102.557856 C391.717418,102.314251 394.397077,103.045067 397.320341,104.750305 C397.807552,103.288672 398.294762,101.82704 400.243605,101.82704 C403.16687,103.288672 406.333739,104.506699 409.257004,105.968331 C412.180268,105.968331 414.859927,106.211937 417.783191,106.211937 C417.783191,106.699147 417.783191,107.429963 417.783191,107.917174 C420.950061,108.64799 424.360536,109.378806 427.527406,110.109622 C427.527406,108.64799 427.771011,107.429963 427.771011,105.968331 C434.835566,106.211937 442.630938,112.789281 449.695493,114.250914 C455.785627,114.494519 461.632156,114.738124 467.72229,114.98173 C481.120585,117.174178 495.736906,116.199756 509.622412,116.199756 C509.622412,117.904994 509.622412,119.853837 509.622412,121.559074 C528.136419,121.071864 546.894032,120.341048 565.408039,119.853837 C564.677223,117.661389 563.702801,114.007308 564.190012,111.571255 C572.472594,111.327649 579.049939,114.250914 585.870889,116.199756 C589.52497,117.174178 593.422655,118.148599 597.076736,119.123021 C597.320341,131.546894 597.807552,145.676005 597.807552,159.0743 C613.6419,151.522533 629.476248,144.214373 645.310597,136.662607 C648.477467,136.662607 651.887942,136.662607 655.054811,136.662607 C656.516443,134.226553 657.73447,132.034105 659.196102,129.598051 C660.170524,129.598051 661.388551,129.598051 662.362972,129.598051 C663.824604,125.213155 665.529842,121.071864 666.991474,116.686967 C669.671133,116.686967 672.350792,116.443362 675.030451,116.443362 C680.876979,109.378806 694.031669,102.070646 702.070646,96.954933 C704.263094,95.7369062 706.699147,97.4421437 707.917174,95.9805116 C711.81486,92.5700365 715.46894,88.9159562 719.366626,85.5054811 C722.533496,84.774665 726.918392,86.7235079 729.841657,85.5054811 C732.521315,81.1205847 735.44458,76.4920828 738.124239,72.1071864 C741.534714,72.3507917 744.945189,72.5943971 748.355664,72.8380024 C748.599269,71.3763703 749.08648,69.6711328 749.330085,68.2095006 C750.060901,68.2095006 751.035323,68.2095006 751.766139,68.2095006 C751.278928,66.0170524 749.330085,59.683313 750.791717,57.9780755 C751.766139,57.4908648 753.471376,56.7600487 754.445798,57.2472594 C756.394641,57.9780755 756.638246,59.683313 758.099878,61.1449452 C758.587089,61.1449452 759.317905,61.1449452 759.805116,61.1449452 C760.779537,60.1705238 761.753959,58.952497 762.72838,57.9780755 C764.920828,58.2216809 766.138855,59.683313 767.600487,60.6577345 C767.844093,62.6065773 768.087698,64.7990256 768.331303,66.7478685 C774.908648,67.2350792 781.242387,67.9658952 787.819732,68.453106 C791.473812,70.8891596 795.371498,73.3252132 799.025579,75.7612667 C801.705238,75.7612667 804.384896,76.0048721 807.064555,76.0048721 C809.744214,76.9792935 812.180268,77.953715 814.859927,78.9281364 C814.859927,81.8514007 814.859927,85.0182704 814.859927,87.9415347 C817.783191,88.1851401 820.950061,88.4287454 823.873325,88.6723508 C825.578563,93.544458 832.155907,96.4677223 835.809988,99.3909866 C842.387333,104.506699 852.375152,114.250914 856.029233,121.80268 C862.119367,121.80268 868.453106,122.046285 873.325213,120.584653 C876.735688,122.777101 879.902558,128.380024 882.095006,131.790499 C884.53106,131.790499 887.210719,131.790499 889.646772,131.790499 C889.890378,130.816078 890.133983,129.841657 890.377588,128.867235 C891.83922,128.380024 896.711328,128.136419 897.685749,129.11084 C897.929354,131.546894 898.17296,133.739342 898.416565,136.175396 C902.070646,136.906212 920.828258,144.214373 922.046285,143.239951 C922.533496,142.509135 922.533496,141.778319 923.264312,141.291108 C923.264312,141.291108 923.507917,141.047503 923.507917,141.047503 C925.45676,142.021924 927.161998,142.752741 929.11084,143.727162 C935.44458,145.4324 947.381242,140.560292 952.984166,142.996346 C953.227771,144.457978 953.471376,145.91961 953.714982,147.381242 C955.663825,147.381242 957.612667,147.381242 959.56151,147.381242 C959.56151,148.599269 959.56151,149.817296 959.56151,151.035323 C962.971985,151.035323 966.38246,151.278928 969.792935,151.278928 C970.036541,152.25335 969.792935,151.766139 970.280146,152.25335 C973.934227,152.496955 977.344702,152.496955 980.998782,152.74056 C980.998782,153.227771 981.242387,153.958587 981.242387,154.445798 C985.140073,154.445798 989.037759,154.445798 992.935445,154.445798 C992.935445,152.984166 992.935445,151.766139 993.422655,150.791717 C996.102314,150.791717 998.781973,150.791717 1001.46163,150.791717 C1001.46163,152.009744 1001.46163,152.984166 1001.46163,154.202192 C1004.14129,153.958587 1016.56516,153.227771 1018.0268,154.445798 C1018.2704,157.369062 1018.51401,160.292326 1018.75761,163.215591 C1026.06577,163.215591 1030.69428,164.190012 1038.24604,164.190012 C1038.24604,165.408039 1038.24604,166.869671 1038.24604,168.087698 C1043.36175,168.087698 1051.64434,167.356882 1055.78563,169.305725 C1055.78563,170.280146 1056.02923,171.010962 1056.02923,171.985384 C1062.85018,171.985384 1069.67113,172.228989 1076.49208,172.228989 C1076.49208,170.036541 1075.76127,164.677223 1077.2229,163.702801 C1081.36419,163.946407 1085.50548,163.946407 1089.64677,164.190012 C1089.64677,162.72838 1089.64677,161.510353 1090.13398,160.779537 C1092.57004,160.779537 1095.00609,160.779537 1097.44214,160.779537 C1097.44214,161.023143 1097.44214,161.023143 1097.44214,161.266748 C1097.92935,162.484775 1097.68575,164.190012 1098.66017,164.920828 C1102.07065,166.138855 1107.91717,164.190012 1111.08404,165.651644 C1111.57125,167.356882 1111.81486,169.062119 1112.30207,170.767357 C1114.49452,170.767357 1116.44336,170.767357 1118.63581,170.767357 C1118.63581,169.305725 1118.63581,167.844093 1119.12302,166.869671 C1121.55907,166.869671 1127.89281,166.138855 1129.35445,167.356882 C1129.11084,170.036541 1128.86724,172.959805 1128.62363,175.639464 C1131.54689,175.639464 1134.47016,175.639464 1137.39342,175.639464 C1137.39342,174.177832 1137.14982,172.959805 1138.12424,172.228989 C1140.56029,171.498173 1149.57369,171.985384 1151.76614,172.959805 C1151.76614,174.908648 1152.00974,177.101096 1152.00974,179.049939 C1155.17661,179.049939 1158.09988,179.049939 1161.26675,179.049939 C1161.26675,177.101096 1161.26675,174.665043 1161.75396,173.447016 C1163.7028,173.447016 1165.89525,173.447016 1167.84409,173.447016 C1167.84409,174.665043 1167.84409,175.883069 1167.84409,177.101096 C1169.54933,177.101096 1171.01096,177.101096 1172.7162,177.101096 C1172.7162,175.395859 1172.7162,173.934227 1173.20341,172.959805 C1176.12667,172.959805 1178.80633,172.959805 1181.7296,172.959805 C1181.7296,174.665043 1181.7296,176.613886 1181.7296,178.319123 C1185.38368,178.319123 1189.03776,178.319123 1192.69184,178.319123 C1192.69184,175.639464 1192.20463,171.498173 1193.17905,169.54933 C1195.3715,169.54933 1197.80755,169.54933 1200,169.54933 C1200,276.979294 1200,384.652862 1200,492.082826 C800,492.082826 400,492.082826 0,492.082826 C0,390.986602 0,290.133983 0,189.037759 C5.11571255,189.52497 21.4372716,188.550548 24.1169306,190.01218 C24.3605359,195.615104 21.1936663,199.756395 22.4116931,206.090134 C24.1169306,214.372716 37.7588307,234.348356 44.5797808,237.515225 C44.8233861,237.27162 44.8233861,237.028015 45.0669915,236.784409 C46.772229,233.373934 47.0158343,229.719854 48.9646772,226.79659 C55.0548112,218.270402 70.8891596,212.667479 83.3130329,210.718636 C81.36419,209.744214 79.9025579,209.744214 78.4409257,208.282582 C78.4409257,204.141291 80.6333739,203.65408 81.1205847,200 C76.9792935,193.909866 67.7222899,194.153471 62.8501827,189.037759 C62.8501827,188.550548 62.8501827,188.063337 62.8501827,187.576127 C64.7990256,184.896468 67.9658952,184.409257 69.4275274,180.998782 C69.4275274,180.755177 69.183922,180.511571 69.183922,180.267966 C67.9658952,179.293544 66.7478685,178.562728 65.5298417,177.588307 C66.7478685,176.857491 67.9658952,176.126675 69.183922,175.395859 C66.7478685,173.690621 63.3373934,169.54933 65.5298417,164.920828 C65.773447,164.920828 66.2606577,164.920828 66.5042631,164.920828 C68.2095006,167.356882 81.1205847,175.639464 85.0182704,174.665043 C84.2874543,170.523752 79.4153471,170.036541 77.2228989,167.356882 C77.4665043,167.113276 77.7101096,167.113276 77.953715,166.869671 C79.4153471,166.38246 81.1205847,165.651644 82.5822168,165.164434 C82.5822168,165.164434 82.5822168,164.920828 82.5822168,164.920828 C80.8769793,163.702801 78.9281364,162.484775 77.2228989,161.266748 C77.953715,160.779537 78.1973203,160.535932 79.4153471,160.535932 C78.4409257,158.099878 79.4153471,155.420219 80.1461632,153.227771 C80.3897686,153.227771 80.3897686,152.984166 80.6333739,152.984166 C83.0694275,154.202192 85.7490865,155.420219 88.1851401,156.638246 C88.9159562,154.445798 90.864799,153.714982 93.544458,154.445798 C94.2752741,154.933009 94.5188794,155.176614 94.7624848,156.394641 C99.3909866,155.420219 98.6601705,151.522533 99.3909866,147.381242 C101.583435,147.381242 103.532278,147.624848 104.99391,148.112058 C104.750305,149.330085 104.506699,149.08648 104.506699,150.060901 C107.186358,153.227771 110.596833,155.176614 113.520097,158.099878 C113.520097,158.830694 113.276492,159.317905 113.276492,160.048721 C112.302071,160.535932 111.084044,161.266748 110.109622,161.753959 C110.353228,162.241169 110.840438,162.484775 111.084044,162.971985 C112.058465,163.459196 113.276492,163.946407 114.250914,164.433618 C116.686967,163.215591 121.071864,160.292326 124.238733,161.753959 C124.238733,161.997564 124.238733,162.484775 124.238733,162.72838 C123.020706,164.433618 121.559074,165.89525 120.341048,167.600487 C120.584653,168.087698 120.584653,168.331303 120.828258,168.818514 C121.559074,169.062119 122.28989,169.305725 123.020706,169.54933 C123.020706,169.792935 123.020706,169.792935 123.020706,170.036541 C120.584653,170.767357 118.63581,177.101096 121.315469,179.293544 C123.020706,180.511571 125.700365,180.267966 128.380024,180.024361 C127.892814,182.947625 125.943971,183.434836 125.700365,186.601705 C125.943971,186.845311 126.187576,186.845311 126.431181,187.088916 C127.892814,187.576127 128.136419,186.845311 129.11084,186.114495 C130.328867,182.947625 131.059683,177.588307 133.495737,175.395859 C134.226553,175.639464 135.200974,175.883069 135.93179,176.126675 C136.662607,168.574909 142.021924,171.498173 144.701583,175.152253 C144.457978,176.613886 143.483557,177.101096 143.970767,178.562728 C144.214373,178.806334 144.214373,179.293544 144.457978,179.53715 C144.457978,179.53715 144.701583,179.53715 144.701583,179.53715 C146.163216,178.075518 147.137637,176.37028 148.599269,174.908648 C148.599269,174.665043 148.599269,174.421437 148.599269,174.177832 C146.650426,172.7162 144.457978,171.254568 142.509135,169.792935 C143.239951,165.164434 142.26553,164.190012 140.560292,160.779537 C142.996346,158.099878 145.91961,160.292326 149.08648,159.56151 C148.842875,157.612667 148.599269,155.663825 148.355664,153.714982 C150.060901,152.496955 151.766139,150.791717 152.25335,148.599269 C149.817296,149.573691 147.137637,150.548112 144.701583,151.522533 C144.457978,151.278928 144.457978,151.035323 144.214373,150.791717 C142.996346,149.330085 142.752741,147.624848 143.727162,145.91961 C147.381242,145.676005 151.035323,142.509135 150.548112,139.829476 C149.330085,140.316687 148.112058,141.047503 146.894032,141.534714 C146.650426,141.291108 146.650426,141.291108 146.406821,141.047503 C146.406821,137.880633 144.945189,135.688185 145.188794,133.252132 C146.650426,132.521315 150.060901,130.085262 152.496955,130.816078 C153.714982,131.303289 154.202192,132.764921 156.151035,132.034105 C156.881851,131.546894 157.125457,131.303289 157.125457,130.085262 C154.689403,124.238733 152.496955,123.020706 154.445798,114.738124 C154.689403,114.738124 154.689403,114.494519 154.933009,114.494519 C157.369062,114.98173 162.72838,119.123021 165.164434,116.930572 C165.164434,116.930572 165.164434,116.686967 165.164434,116.686967 C159.56151,116.199756 158.099878,108.891596 156.881851,104.019488 C156.151035,104.750305 155.176614,105.481121 154.445798,106.211937 C153.958587,106.211937 153.714982,105.968331 153.227771,105.968331 C153.471376,104.263094 153.471376,104.750305 152.74056,103.532278 C151.278928,102.801462 149.573691,101.82704 148.112058,101.096224 C148.112058,98.1729598 148.842875,97.6857491 150.304507,96.4677223 C149.817296,95.2496955 149.330085,94.0316687 148.842875,92.8136419 C149.817296,92.3264312 151.035323,91.8392205 152.009744,91.3520097 C151.766139,87.9415347 151.522533,86.7235079 152.984166,84.774665 C151.766139,84.774665 150.548112,84.774665 149.330085,84.774665 C150.060901,81.6077954 147.624848,79.9025579 146.163216,77.4665043 C146.406821,77.2228989 146.406821,76.9792935 146.650426,76.7356882 C147.381242,76.2484775 148.112058,75.7612667 148.842875,75.274056 C148.355664,73.3252132 147.868453,71.1327649 148.599269,68.9403167 C150.060901,68.453106 151.522533,68.453106 152.984166,68.2095006 C152.984166,68.2095006 152.984166,67.9658952 152.984166,67.9658952 C150.060901,64.7990256 145.4324,60.9013398 144.945189,55.5420219 C147.868453,52.1315469 145.188794,47.7466504 144.457978,44.5797808 C143.483557,40.682095 145.676005,36.5408039 146.406821,33.6175396 C147.624848,33.1303289 149.08648,32.3995128 150.304507,31.9123021 C149.817296,30.9378806 149.330085,29.9634592 148.842875,28.9890378 C150.060901,26.5529842 152.496955,25.3349574 153.958587,23.3861145 C155.176614,21.680877 153.958587,19.001218 155.176614,17.7831912 C157.612667,18.7576127 158.343484,20.7064555 159.805116,22.6552984 C161.510353,22.4116931 161.997564,21.9244823 162.971985,21.4372716 C162.72838,21.1936663 162.241169,20.7064555 161.997564,20.4628502 C161.510353,19.4884287 161.266748,18.2704019 160.779537,17.2959805 C161.510353,16.0779537 162.971985,15.590743 163.459196,14.3727162 C163.459196,12.4238733 163.215591,10.2314251 163.215591,8.28258222 C163.702801,7.7953715 169.305725,8.76979294 172.228989,7.06455542 C173.20341,5.11571255 173.934227,3.16686967 174.908648,1.2180268 C177.101096,0.730816078 179.049939,0.487210719 181.242387,0 C183.922046,1.46163216 186.601705,2.67965895 189.281364,4.14129111 C191.473812,4.62850183 193.909866,4.87210719 196.102314,5.3593179 C196.34592,5.3593179 196.34592,5.60292326 196.589525,5.60292326 C199.025579,7.55176614 202.436054,13.8855055 202.679659,17.5395859 C199.269184,19.001218 195.858709,21.680877 196.34592,26.3093788 C201.218027,28.0146163 203.897686,38.2460414 201.705238,45.3105968 C200.487211,49.6954933 196.102314,52.1315469 197.320341,59.1961023 C198.294762,64.7990256 203.410475,76.0048721 208.282582,73.0816078 C209.013398,72.1071864 209.500609,71.1327649 210.231425,70.1583435 C210.47503,70.1583435 210.962241,70.1583435 211.205847,70.1583435 C212.667479,72.5943971 217.295981,77.7101096 215.834348,81.6077954 C215.103532,82.5822168 213.154689,82.3386114 212.180268,82.8258222 C211.693057,85.0182704 211.205847,86.9671133 210.718636,89.1595615 C209.744214,89.4031669 209.013398,89.4031669 208.038977,89.6467722 C207.551766,90.864799 207.308161,92.3264312 206.82095,93.544458 C206.82095,95.0060901 207.795371,95.7369062 207.308161,97.6857491 C208.038977,97.1985384 208.282582,96.954933 209.744214,96.954933 Z M148.842875,46.5286236 C149.08648,46.5286236 149.330085,46.772229 149.573691,46.772229 C149.330085,46.772229 149.08648,46.5286236 148.842875,46.5286236 Z M872.350792,122.28989 C871.863581,122.533496 871.132765,122.533496 870.645554,122.777101 C871.863581,122.777101 872.594397,122.777101 873.081608,122.28989 C872.838002,122.28989 872.594397,122.28989 872.350792,122.28989 Z M595.858709,125.45676 C595.858709,128.380024 596.102314,131.059683 596.102314,133.982948 C596.102314,131.059683 595.858709,128.380024 595.858709,125.45676 Z M379.293544,128.867235 C379.53715,137.149817 380.024361,145.676005 380.267966,153.958587 C381.485993,162.484775 380.267966,171.741778 381.729598,179.53715 C383.434836,177.831912 384.896468,175.883069 386.601705,174.177832 C386.601705,162.484775 390.499391,135.688185 385.627284,128.867235 C383.434836,128.867235 381.485993,128.867235 379.293544,128.867235 Z M413.154689,172.472594 C415.103532,172.7162 416.80877,172.959805 418.757613,173.20341 C418.757613,161.997564 422.411693,137.880633 419.244823,129.841657 C416.321559,129.598051 412.911084,128.380024 410.962241,129.598051 C411.693057,143.970767 412.423873,158.099878 413.154689,172.472594 Z M395.858709,129.598051 C396.589525,144.701583 397.076736,159.805116 397.807552,174.908648 C399.512789,174.908648 400.974421,174.908648 402.679659,174.908648 C402.679659,164.920828 406.333739,134.226553 401.461632,129.841657 C399.512789,129.841657 397.807552,129.598051 395.858709,129.598051 Z M364.190012,129.841657 C364.920828,144.457978 365.408039,159.317905 366.138855,173.934227 C368.087698,173.934227 370.036541,173.934227 371.985384,173.934227 C371.985384,168.574909 372.228989,163.215591 372.228989,157.856273 C372.472594,149.08648 372.7162,140.560292 372.959805,131.790499 C372.228989,131.790499 371.254568,131.546894 370.523752,131.546894 C370.523752,131.059683 370.523752,130.572473 370.523752,130.085262 C368.331303,130.085262 366.38246,129.841657 364.190012,129.841657 Z M427.2838,129.841657 C428.014616,144.214373 428.745432,158.830694 429.476248,173.20341 C430.45067,173.20341 431.181486,173.20341 432.155907,173.20341 C432.399513,163.459196 432.399513,153.714982 432.643118,143.970767 C432.643118,140.316687 432.399513,136.419001 432.399513,132.764921 C431.668697,131.790499 431.181486,131.059683 430.45067,130.085262 C429.476248,130.085262 428.258222,129.841657 427.2838,129.841657 Z M350.548112,174.177832 C352.25335,174.177832 354.202192,174.177832 355.90743,174.177832 C356.394641,160.048721 357.125457,146.163216 357.612667,132.034105 C354.445798,131.790499 351.278928,131.790499 348.112058,131.546894 C348.112058,131.546894 348.112058,131.790499 348.112058,131.790499 C348.842875,145.91961 349.817296,160.048721 350.548112,174.177832 Z M337.149817,172.959805 C337.880633,172.959805 338.611449,172.959805 339.342266,172.959805 C339.342266,165.164434 342.021924,136.175396 339.585871,132.521315 C339.585871,132.521315 339.342266,132.521315 339.342266,132.521315 C338.124239,132.764921 336.662607,133.008526 335.44458,133.252132 C335.44458,135.200974 335.44458,136.906212 335.44458,138.855055 C335.93179,150.304507 336.662607,161.510353 337.149817,172.959805 Z" id="Shape"></path>
        </g>
    </g>
</svg>