<svg xmlns="http://www.w3.org/2000/svg" viewBox="0 0 400 265">
  <path fill="#196E36" fill-rule="evenodd" d="M223.14 119.3l-1.3 13.3-2.17.15c-2.64.18-2.44.35-2.61-2.26l-.14-2.16h-9.66l.2.8c.19.75.09.81-1.71 1.08l-1.92.29-.1 3.42c-.07 2.66-.19 3.41-.55 3.41-.4 0-.44.98-.27 6l.2 6h-2.05l-.21-2.91c-.12-1.6-.3-3.63-.4-4.5l-.18-1.59H196v-8.24l-1.42-.19c-.78-.1-4-.37-7.16-.6l-5.75-.43V128H177v5h-4.91l-1.54 1.53-1.53 1.54.82 1.08c.92 1.2 1.08 3.19.47 5.8-.46 2-.03 2.47 2.16 2.33 2.6-.17 3.03 2.9 1.01 7.19-1.34 2.87-1.25 2.83-3.6 1.68-1.68-.83-2.38-1.41-5.19-4.37-1.3-1.36-3.46-2.17-4.34-1.62-.9.55-.39 3.16.73 3.82 1.72 1.01 2.12 1.57 2.57 3.58.55 2.45 1.33 3.98 2.27 4.41.4.2.75.64.75 1 0 .34.52 1.26 1.16 2.03 1.34 1.6 1.51 3.16.54 4.83-.69 1.18-2.62 1.57-3.36.69-.68-.83-1.14-.61-1.73.82l-.56 1.33h-2.05c-1.89 0-2.12-.08-2.94-1.06-.94-1.1-2.39-3.83-2.4-4.5-.02-2.93-8.41-5.38-10.78-3.16-.65.61-1.23.77-2.93.82l-2.12.06-.1-1.21c-.06-.76.15-1.7.58-2.49l.68-1.27-.75-.8c-.4-.43-1.15-1-1.65-1.26-1.12-.58-1.46-2.15-.85-3.89.42-1.22 1.2-1.84 3.67-2.97 2.27-1.04.02-3.27-3.29-3.27-.72 0-.79.13-.79 1.62 0 1.73-.33 2.03-2.27 2.04-.86 0-2.73-.87-2.73-1.28 0-.39-2.5-3.05-2.87-3.05-.16 0-.57-.71-.9-1.59-.34-.87-.83-1.98-1.1-2.48-.57-1.07-.1-3.56.92-4.9.82-1.05.78-1.74-.2-2.87-.82-.96-1.85-.78-1.85.33 0 1.87-3.21 1.57-4.55-.43-1.31-1.95-1.4-2.26-.75-2.67 4.38-2.74-4.39-4.93-9.53-2.38-1.09.55-2.18.99-2.41.99-.23 0-.43.16-.43.36 0 .64.94 1.3 1.82 1.3a4.8 4.8 0 0 1 3.64 1.82c.33.5 1 1.05 1.5 1.22 2.22.78 1.76 2.57-1.04 4-1.64.84-1.85 3.54-.42 5.24 1.16 1.38 1.19 3.75.05 4.5-.43.28-1.04.77-1.35 1.08-.8.8-3.14 1-4.36.34-1.32-.69-1.53-.02-.53 1.67.82 1.39.83 1.47.25 1.47-.25 0-.95.25-1.55.55-2.85 1.42-4.87.74-8.8-2.97-1.6-1.5-3.92-.97-4.36 1-.19.87-2.19 2.09-3.43 2.09-.56 0-.52.96.08 2.12 1.31 2.5-2.13 4.78-4.75 3.15-1.74-1.07-2.2-.32-1.96 3.08.22 3.05-.21 3.65-2.64 3.65-1.48 0-3.8-1.73-3.81-2.84 0-.19-.38-.62-.84-.96-.45-.35-.83-.81-.83-1.03 0-.49-4.65-.92-6.77-.63-1.34.17-1.42.13-2.03-1.01-1.14-2.14-1.87-1.64-1.87 1.26 0 2.86-.28 3.33-2.8 4.7-2 1.09-2.73 1-6.39-.78-3.23-1.57-3.68-2.07-3.88-4.29-.35-3.8-4-6.06-6.1-3.76-.32.37-.85.67-1.15.67-3.15 0-2.3 5.34 1.12 7.05 4.59 2.29 5.53 3.5 5.78 7.46.2 3.14.39 2.92-3.73 4.62-3.35 1.38-3.5 1.53-3.5 3.29-.01 1.23 0 1.25 1.27 1.25 1.25 0 2.38.75 2.38 1.58 0 .2.18.42.4.5 1.43.47-3.5 4.11-5.15 3.78-1.64-.32-1.35 2.32.34 3.02 1.43.6 1.73.96 1.74 2.07 0 1.14-3.33 5.05-4.32 5.05-.3 0-.68.14-.86.3-1.3 1.3-9.18.3-11.82-1.48-1.68-1.12-1.82-1.16-4.98-1.16-1.79 0-3.92-.09-4.74-.2l-1.48-.2-.4 1.32c-.21.73-.41 3.49-.43 6.12-.06 7.02-.3 9.1-1.11 9.25-.36.06-1.22.48-1.91.92-.7.44-1.46.8-1.7.8-.23 0-.72.2-1.09.44-.82.57-2.01.87-4.99 1.29-4.02.55-4.26.53-4.53-.4-.13-.46-.25 11.13-.27 25.75L0 265h400V123.9l-4.33.22-4.34.22v-1.8c0-3.35-.23-3.87-1.7-3.87h-1.3v3h-3V124.6l-3.58.2-6.13.34-2.55.13-.21-1.39a7.13 7.13 0 0 0-12.25-3.96 7.2 7.2 0 0 0-1.46 7.6l.48 1.15h-2.6c-4.7 0-4.59.07-4.84-3.29-.12-1.58-.3-3.52-.4-4.3l-.2-1.41h-5.26v4.83c0 4.02-.08 4.83-.48 4.83-.27 0-2-.17-3.84-.38l-3.34-.38V125h-1.92c-1.05 0-2.7-.1-3.67-.22l-1.75-.2v4.09h-3.08c-1.7 0-3.86-.1-4.8-.22l-1.73-.2-.23-1.64-.22-1.64-2.89.1-2.88.1-.1 2.91-.1 2.92h-1.73c-.95 0-2.97-.1-4.49-.22l-2.75-.21v-2.9H305c-1.26 0-1.33.05-1.33 1v1.02l-3.75-.1-3.75-.09-.61-1.72c-.59-1.63-.7-1.72-2-1.9-2.13-.3-8.5-.33-10.64-.05l-1.92.25v2.56l-2.42.1-2.41.1-.17 1.33-.17 1.33-2.4.36c-2.36.35-2.39.35-2.58-.42l-.2-.77h-12.99v1.6l-7.74.13c-4.27.08-7.8.1-7.86.07-.06-.04-.43-2.4-.83-5.27l-.73-5.2H236v1.15c0 1.1-.04 1.15-1.42 1.25l-1.41.1-.1 3.92-.1 3.91h-1.89l-1.53-6.41-3.11-13.17c-.88-3.71-1.68-6.75-1.8-6.75-.1 0-.78 5.98-1.5 13.3"/>
</svg>
