<svg xmlns="http://www.w3.org/2000/svg" viewBox="0 0 400 267">
  <path fill="#E8299B" fill-rule="evenodd" d="M336.325 55.794c-.351 1.268-.239 1.125-1.364 1.738l-1.02.557v.517c0 .435-.034.551-.217.733a.707.707 0 0 0-.218.496c-.003.757-.085.937-.401.878l-.292-.055-.001 6.889v6.889l-1.397.911c-.769.502-1.491.962-1.606 1.023l-.208.111v4.943l-.803.009c-.442.005-.94.02-1.107.034-.167.013-1.027.071-1.91.129l-1.606.105-1.255-.476c-1.409-.535-1.382-.534-1.581-.06l-.146.345h-2.356v-4.774h-.796l.024-1.207.024-1.207-.514-1.614c-.698-2.19-.662-2.198-1.538.328-.648 1.871-.672 1.97-.672 2.734v.793h-.521v1.475H312.587v-1.302h-.955v.432c0 .52-.373.496-.48-.032-.222-1.094-.331-1.155-.698-.387-.313.658-1.324 1.38-2.227 1.591l-.525.122-.577-.29c-.517-.26-.693-.3-1.686-.376-.61-.048-1.132-.11-1.161-.138-.028-.029-.07-1.025-.093-2.214l-.042-2.163-.205-.093c-.203-.093-.205-.11-.205-1.426 0-2.038-.236-2.578-1.124-2.578-.829 0-.995.396-.969 2.315l.018 1.403-.315.114-.316.114.029 2.268.029 2.268-1.164.056a49.86 49.86 0 0 1-1.919.056h-.755l-.054-1.15c-.031-.633-.118-2.947-.196-5.144-.095-2.706-.172-4.026-.24-4.095-.054-.056-.848-.4-1.763-.765-1.656-.661-1.665-.666-1.802-1.008l-.137-.343-1.107.024-1.106.024-.026.541-.026.542-.451.131-2.387.685c-1.065.305-1.96.579-1.99.609-.03.03.053 2.772.184 6.095.131 3.322.213 6.066.181 6.097-.031.031-1.727.077-3.77.101l-3.713.043-.876.584-.877.584-2.688-.918-2.688-.918.046-.286c.09-.553-.579-.888-.874-.438-.077.118-.14.274-.14.347 0 .177-.243.171-1.954-.047-2.184-.277-2.785-.328-4.007-.334l-1.143-.006-1.148-.45c-.906-.354-1.177-.498-1.284-.683-.137-.24-.748-.659-1.029-.707-.086-.015-.182-.062-.213-.106-.082-.113-1.293-.074-2.113.066-.81.14-1.754.168-1.824.056-.026-.043-.105-.056-.175-.03a.44.44 0 0 1-.28-.015c-.229-.098-1.189-.055-2.025.09-.409.071-.976.149-1.258.172-1.226.103-1.79.242-1.947.483-.025.037-.467.096-.984.13l-.939.063-2.479 1.119c-1.364.615-2.495 1.103-2.513 1.085-.018-.018-.138-.607-.267-1.308l-.233-1.276-.307.026c-.355.03-.337-.105-.233 1.741l.062 1.108-.372-.036a59.238 59.238 0 0 0-1.218-.099l-.847-.061v-.934h-.513c-.768 0-.789.017-.789.656v.551l-1.541-.742c-1.183-.57-1.651-.752-2.018-.786-.262-.024-1.254-.215-2.203-.424-2.071-.458-1.412-.601-5.739 1.244-4.259 1.815-3.863 1.682-3.863 1.301 0-.451-.698-.751-.754-.325-.132 1.021-.095.943-.551 1.174-.501.253-.518.256-.518.082 0-.074-.075-.24-.166-.369-.13-.185-.225-.726-.445-2.536-.298-2.45-.316-2.517-.702-2.517-.236 0-.25.02-.251.369-.005 1.655-.187 4.26-.31 4.448-.115.175-.12.256-.031.502.123.34.018.785-.195.826-.101.02-.146-.091-.19-.465-.032-.269-.104-.574-.161-.676-.056-.103-.221-1.339-.367-2.747l-.264-2.561-.282-.027c-.266-.026-.282-.011-.29.26-.004.158-.072 1.186-.151 2.284l-.145 1.997-.677.055c-.372.03-.69.069-.706.087a8.02 8.02 0 0 0-.262.497c-.227.452-.238.46-.363.282-.146-.209-.379-.245-.379-.059 0 .068-.068.144-.152.167a3.787 3.787 0 0 1-1.115.155c-.34-.012-.362.003-.496.343-.135.345-.149.354-.469.308-.181-.027-1.097-.073-2.037-.105-1.654-.054-1.714-.063-1.903-.264-.271-.289-.378-.261-.535.14-.191.485-.274.442-.671-.348l-.35-.694h-1.04c-.983 0-1.041.01-1.041.174 0 .121-.058.174-.195.175-.76.006-4.031.548-6.033.999-.149.034-.196.106-.196.303 0 .201-.038.259-.174.259-.284 0-4.809.256-6.032.341-.651.045-1.551.047-2.127.004a36.753 36.753 0 0 0-1.31-.08l-.312-.005-.087-.82c-.105-.98-.267-1.3-.619-1.224-.231.05-.235.042-.498-.927-.371-1.366-.451-1.353-.918.144-.326 1.046-.388 1.178-.558 1.178-.167 0-.2.061-.252.477l-.059.478h-1.353c-1.219 0-1.429.023-2.135.235l-.783.235-2.037-.686-2.036-.686-2.354.781-2.354.782-1.476-.46-1.475-.459-3.212.003-3.212.003-1.042.421c-.882.357-1.045.4-1.066.278-.085-.485-.114-.534-.317-.534-.4 0-.483.083-.483.487v.381h-.595c-.328 0-.777.025-.999.055l-.402.055v-.804h-.782v.868h-2.343v.217c0 .269.121.273-1.973-.059-2.012-.318-1.897-.347-1.79.439l.081.602-.46.058c-.437.054-.459.07-.459.311 0 .242-.018.254-.378.254h-.378l-.048-.633c-.055-.722-.897-2.947-1.135-2.996-.123-.025-.201.189-.916 2.501-.112.364-.704.369-.704.005v-.265H146.007v.258c0 .233-.023.254-.239.22a19.06 19.06 0 0 0-1.085-.093c-.79-.051-.847-.067-.851-.242a34.277 34.277 0 0 0-.113-1.205l-.107-1.018.679-.675c1.075-1.068 1.134-1.045-2.723-1.056l-2.921-.009-.057-.239c-.255-1.055-.306-1.087-.775-.484l-.315.404v-1.07l-.543.001c-.929.002-.933.006-.933.747 0 .99-.169.841-.308-.27-.101-.814-.312-1.03-.424-.434-.031.167-.069.303-.084.303s-.507-.097-1.093-.217a55.911 55.911 0 0 0-1.097-.217c-.018 0-.032-.244-.033-.542a6.67 6.67 0 0 0-.055-.868l-.053-.326H131.076v.695c0 .382-.02.694-.046.694-.025 0-.181-.056-.347-.126l-.301-.125V76.974l-.628.062c-.783.077-.761.061-.761.563v.418l-2.45-.944-2.45-.945-.784.004c-.43.002-6.193.232-12.806.512l-12.022.509-3.581 1.441-3.58 1.441h-3.299l-.001-.282a4.634 4.634 0 0 0-.055-.608l-.054-.326-.531.002c-.915.002-.911-.002-.94.803l-.025.699-.651.276c-.732.311-.753.346-.771 1.324l-.01.542-.326.001c-.737.002-.976.089-.976.352 0 .156-.055.26-.152.29-.084.025-.816.225-1.628.443-.812.218-1.544.417-1.628.443-.253.076-.172.272.227.546.389.268.49.538.49 1.313 0 .266-.068.277-2.431.39-.549.026-1.198.068-1.441.092l-.443.046-.05-.665c-.04-.521-.019-.732.095-.97l.145-.304-.52-.471a41.558 41.558 0 0 0-.891-.783l-.37-.312-5.13.13c-3.625.093-5.201.104-5.372.04-.262-.099-5.596.039-5.704.148-.033.032.014.243.104.468.09.225.166.561.17.747l.006.337-2.227.867-2.228.867-1.185-.997c-1.102-.928-1.216-1.002-1.635-1.052-.684-.082-1.441-.067-1.628.034-.142.076-.168.061-.168-.097v-.187l-1.758.056c-.967.031-1.977.078-2.244.104l-.486.048-.058-.628-.059-.629.278-.231c.399-.334.314-.419-.991-.985-1.037-.45-1.183-.539-1.309-.803-.189-.397-.362-.374-.561.072-.149.332-.27.427-1.22.959-1.181.661-1.19.675-.707 1.146.319.311.347.377.347.799v.46h-.395c-.296 0-5.545 1.134-9.045 1.954-.158.037-.196.107-.2.369-.004.306-.059.369-.998 1.139-.99.813-.994.817-.994 1.194.001.425.006.423-.694.26-.653-.152-.662-.33-.041-.825l.475-.378v-1.283l-.282.004c-.155.002-1.61.095-3.234.207-1.623.112-2.964.192-2.98.177-.016-.015-.067-.332-.114-.704-.101-.82.027-.718-.986-.784l-.851-.056.055.404c.052.377.042.405-.138.406-.107 0-.943.04-1.858.088l-1.665.087-.931.385-.93.385-2.994-.222-2.993-.221-.9.897c-1.063 1.059-1.058 1.041-.336 1.397.692.341.692.328-.004.718l-.569.318-.842-.056c-.463-.031-2.112.005-3.663.08-1.552.075-2.89.136-2.973.136-.145 0-.152 4.249-.152 88.021v88.021H400V60.418l-1.562-.782c-1.901-.952-1.536-.972-3.441.192l-1.594.974v5.166l-1.411.024-1.41.024-.023 2.973-.023 2.973h-3.6l-2.375 1.085-2.374 1.085h-1.508l-1.976 1.051-1.976 1.052-.711-.132c-.612-.114-.726-.115-.809-.01-.075.095-.376.122-1.363.122h-1.267l-.025-.586-.026-.586-1.892-.169-1.893-.17.014-2.217c.007-1.22-.015-2.364-.049-2.543-.18-.943-1.149.357-1.3 1.743l-.088.81-.608-.461c-.334-.253-.665-.469-.734-.479a2.571 2.571 0 0 1-.442-.161l-.315-.143-.098-1.403c-.086-1.24-.202-1.924-.546-3.21-.301-1.129-.854.78-.934 3.229l-.056 1.684-.521.277c-.286.153-.813.457-1.169.675-.777.476-.69.515-.999-.45-.347-1.086-.443-1.074-1.147.149l-.538.934-7.909.555-7.91.556-1.47-.417-1.47-.417-.022-6.651-.022-6.651-.709-.121-.708-.12-.03-.438a3.33 3.33 0 0 1 .082-.871c.147-.574.203-.509-.98-1.132l-1.04-.548-.112-.598c-.178-.956-.189-.99-.322-.99-.079 0-.177.184-.264.499"/>
</svg>
