<svg xmlns="http://www.w3.org/2000/svg" viewBox="0 15 400 265">
  <path fill-rule="evenodd" d="M0 67.136v67.137l.304-.232c.168-.127 1.064-.825 1.991-1.552 1.627-1.274 1.7-1.32 2.063-1.32.341 0 .863.265 5.585 2.841l5.209 2.841 1.495-.003 1.494-.003.447-1.357.446-1.357.8-.023c1.003-.029 1.026-.012 1.026.764v.599h3.004v-1.202c0-.826.03-1.231.097-1.298.118-.118 2.06-.138 2.132-.022.025.042.37.261.765.487l.718.411h1.009c1.199 0 1.204.003 1.204.747v.552h.92c.506 0 1.748.024 2.76.054l1.839.053v-1.541l.548-.529c1.173-1.132 1.965-1.483 3.349-1.484 1.483-.001 2.289.382 3.735 1.771l.664.638.044.803.044.803h1.919l.023-.747.023-.748 1.259-.544c.865-.374 1.319-.529 1.454-.498.147.034.183.017.146-.068-.984-2.266-.683-3.822.94-4.872.26-.167.762-.401 1.117-.519l.645-.215v-1.879l.935-2.721c.635-1.85.908-2.748.852-2.804-.137-.137-.11-.381.647-5.773l.729-5.195-.203-.149c-.654-.482-.094-1.183.947-1.188.773-.004 1.077.806.488 1.298l-.256.214v5.385c0 4.766-.014 5.402-.127 5.525-.115.128-.069.381.528 2.906.729 3.081.717 2.986.493 3.922a15.75 15.75 0 0 0-.163.725c0 .027.173.114.385.193 1.916.709 2.607 2.412 1.848 4.546-.159.447-.298.86-.308.919-.01.062.385.314.956.608 1.131.583 1.147.611.769 1.359l-.256.506.213.501.213.502 2.859.372c1.572.205 2.964.399 3.093.432l.235.06-.053-.407c-.06-.449-.032-.493.435-.673.157-.061.503-.31.77-.554 1.237-1.133 2.829-1.31 4.547-.504 1.016.477 1.907 1.47 1.907 2.124 0 .105.099.171.345.233.93.232.806.703-.227.858-.364.055-.472.232-.299.49.067.101 2.73.599 3.228.605.177.001.824.106 1.438.232l1.116.229v-.264c0-.191-.055-.3-.203-.396-.447-.293-.226-.571.521-.652.485-.053.555-.088 1.01-.5 1.23-1.113 2.582-1.234 4.216-.378.491.257 1.355 1.054 1.355 1.249 0 .033 1.083-.303 2.406-.747 3.303-1.107 3.52-1.106 3.52.022 0 .348.018.633.04.633.023 0 1.16.183 2.529.406l2.487.407.13-.182c.072-.099.295-.419.497-.711.591-.854.739-.8 1.256.461.224.545.428 1.011.455 1.036.102.097 4.249.774 4.739.774h.515l.575-.79.575-.79v-.857c0-1.017.024-1.053.684-1.053.335 0 .659-.066 1.027-.211l.537-.211.052-1.322c.029-.727.075-1.381.102-1.452.142-.371 1.85-1.47 2.414-1.554l.363-.055.718.87c.983 1.19.915.985.919 2.763l.003 1.548.227.218c.433.415.463.356.579-1.142.111-1.435.178-1.643.53-1.643.472 0 .489.079.372 1.726l-.108 1.504.184.258c.18.252.182.289.125 1.629l-.058 1.371.521.794.521.794 2.176.441c1.197.243 2.242.444 2.323.446.099.004.331-.263.7-.806.813-1.196.894-1.179 1.481.304l.441 1.117h.623c.584 0 1.319-.196 1.574-.42.043-.037.216-.067.386-.067h.308v-.972c0-1.231-.172-1.153 2.151-.97 1.027.08 1.93.149 2.008.151.128.004.142-.149.162-1.801l.022-1.806.187-.027c.454-.064.452-.08.395 3.183l-.053 2.994.466-.047c.256-.025 1.05-.24 1.765-.477l1.298-.431.052-.74c.093-1.316 1.079-2.629 1.975-2.629.104 0 .124-.145.124-.898v-.898l.852-2.423.852-2.424.021-3.666c.019-3.383.031-3.673.162-3.769.131-.095.143-.336.143-3.022 0-3.084.019-3.247.37-3.18.152.03.158.139.178 3.098.019 2.73.037 3.091.16 3.279.126.191.136.515.113 3.561l-.025 3.35.789 2.663c.835 2.822.847 2.896.642 3.893-.049.238-.024.273.388.546.97.644 1.721 1.627 1.822 2.386.028.212.101.415.161.451.127.075.068.455-.092.584a.7.7 0 0 0-.161.284 1.837 1.837 0 0 1-.176.386c-.113.179-.108.182.242.182.406 0 .467.053.824.721l.243.456.69.105c.858.129 1.079.292.859.628-.101.153-.19.203-.306.173-.295-.077-.542.103-.569.416-.026.311-.103.373-.592.476-.43.091-.468.341-.127.843.291.429.305.583.081.897-.333.468-.305.751.117 1.173.435.435.442.46.174.671l-.202.159.329.374c.405.459.385.606-.11.841-.419.199-.47.325-.222.549.627.567 1.266 1.827 1.041 2.052-.072.072-.058.163.06.382.175.325.104.551-.187.594-.193.029-.264.296-.264.994 0 .418-.026.492-.224.647l-.223.176v2.77l.913.498c1.22.664 1.135.531 1.213 1.909l.066 1.175.667.246c1.071.394 1.115.562.292 1.116-.204.138-.263.228-.233.355.089.366-.88.998-1.243.81-.254-.132-1.196-.177-1.352-.066-.051.037-.093.726-.109 1.769l-.025 1.71.92.389c1.13.477 1.204.539 1.204.992 0 .339.014.357.386.535.212.101.422.267.466.367.064.148.127.175.324.141.323-.054 4.785-.608 4.902-.608.059 0 .091-.211.091-.596 0-.812.029-.833 1.289-.906l1.005-.059-.042-.514c-.051-.642.075-.801.594-.751l.337.032-.049-.362c-.064-.461.092-.659.519-.659.579 0 1.055.952 1.055 2.109v.732h.705c.59 0 .733.026.875.16.169.159.18.159 2.511-.122 1.288-.155 2.374-.281 2.413-.281.039 0 .071-.214.071-.475 0-.485.196-.831.4-.705.052.031.087-.021.087-.129 0-.218 2.303-3.936 2.501-4.037.075-.039.338-.095.583-.124.246-.03.73-.094 1.076-.142l.629-.089v-.343c0-.227.048-.385.142-.465.208-.177 6.028-2.343 6.29-2.341.122.001 1.559.169 3.192.372 3.588.447 3.494.449 3.692-.074.25-.661.753-.939 1.051-.58.055.067.149.122.208.122.189 0 .36.349.36.737v.377l.872.133c.48.074 1.119.134 1.421.133h.548v-.355c0-.537.093-.579 1.303-.579.886 0 1.056-.021 1.197-.148.31-.28.693-.1.876.413.004.012 1.089.218 2.411.46 2.857.521 2.83.509 2.411 1.043-.319.404-.229.915.193 1.101.202.089.417.262.498.399.132.223.165.236.436.173.895-.208 1.957.087 1.957.544 0 .068.082.114.201.114.192 0 .199-.017.152-.363-.087-.632.076-.773.891-.773.807 0 .867.046.867.666v.47h2.506c2.591 0 3.028-.029 2.964-.196-.075-.194.246-.362.74-.387l.486-.025.041-1.339c.036-1.205.055-1.341.186-1.366.289-.055.382.134.382.779v.612l.17-.154c.288-.262.479.068.479.827v.6h1.314l-.025-.954c-.026-1.008.007-1.156.255-1.156.255 0 .323.265.323 1.253 0 .9.007.938.171.938.165 0 .17-.029.142-.913-.03-.962.006-1.116.257-1.116.248 0 .323.261.323 1.131v.817h.434c.322 0 .469.04.572.154.118.13.31.162 1.267.211.92.048 1.15.085 1.255.201.187.206.53.123.53-.127 0-.583 1.432-1.118 1.827-.682.292.323.365.214.365-.552 0-.843.044-.909.612-.909.512 0 .646.127.721.69.134.997.095.933.571.933.466 0 .693.155.693.473 0 .17.031.176.893.176h.893v-.227c0-.349.135-.422.775-.422.649 0 .848.121.848.518 0 .217.007.22.467.196l.467-.024-.029-1.037c-.031-1.135.012-1.276.391-1.276.371 0 .467.201.531 1.116.049.713.078.832.199.832.077 0 .207.073.288.162.224.248.523.199 1.478-.241l.875-.403.01-1.105c.011-1.208.036-1.278.489-1.362.316-.058.474.101.549.554.03.179.092.518.139.754l.084.43 1.678-.006c1.128-.003 1.86.032 2.233.107l.555.113-.026-.456c-.043-.767.114-.849 1.574-.825l1.035.017v-.199c0-.355.185-.416 1.534-.508 1.356-.092 1.551-.054 1.551.302 0 .182-.123.179 2.718.055 2.102-.092 2.196-.103 2.331-.274.105-.133.265-.192.632-.234.27-.03.731-.163 1.025-.295.293-.131.657-.239.809-.239.25 0 .277-.022.277-.231 0-.603.378-.67 4.037-.721 3.395-.046 3.512-.033 3.512.416 0 .382.101.698.224.698.099 0 .114-.076.076-.397-.083-.702-.112-.694 2.648-.723 2.762-.03 2.571-.096 2.571.892v.634h.556c.369 0 .716-.059 1.034-.176.454-.167.621-.177 3.037-.183l2.557-.006.077.264c.128.434.366.348.642-.234.447-.944 1.503-1.882 2.543-2.26.592-.215.63-.335.446-1.371-.103-.583-.1-.612.114-1.137.121-.296.215-.629.209-.741l-.784-13.625c-.859-14.942-.844-14.548-.598-15.233.224-.627.288.592-.742-14.161-.494-7.076-.888-13.121-.875-13.434l.023-.568.304-.025.305-.025v-1.037c0-8.238-4.301-13.692-12.135-15.39-2.374-.514-7.159-.706-8.32-.332-.269.086-1.097.197-2.086.278l-1.64.135-.272.264-.271.263h-2.646l-.56-.54-.561-.541.003-.778c.004-1.419.325-2.388.71-2.148.08.05 1.733.284 3.673.52 3.827.465 3.731.442 3.731.898v.314l.386-.06c.815-.125 5.198-.062 6.229.089 6.436.948 10.936 3.96 13.459 9.008l.49.979.181-.685c1.714-6.452 8.872-10.953 18.275-11.492l.911-.052.306-.409.307-.409 3.442-1.004c1.892-.551 3.486-.985 3.541-.964.055.021.309.342.565.713.571.829.594 1.325.087 1.853-.15.157-.383.506-.518.777-.319.64-.288.622-1.529.874-1.289.261-1.402.264-1.834.044-.313-.16-.407-.168-1.235-.107a56.4 56.4 0 0 1-2.803.078c-9.296.062-15.79 3.751-17.999 10.226l-.305.893-.023 3.835-.023 3.835h.236c.13 0 .272.046.316.102.044.055.435 6.091.87 13.413.499 8.4.831 13.461.899 13.717.296 1.104.444 1.863.444 2.27v.449h1.393c1.487 0 1.87.098 2.195.557.1.141.148.142.877.033 4.492-.675 8.315 1.168 9.872 4.757.331.765.541.864.678.32 1.066-4.221 4.52-7.24 9.446-8.258l1.05-.217.333-.436.333-.435 1.746-.553c.959-.304 1.824-.553 1.92-.555.254-.002 1.164.781 1.162 1-.009.779-1.906 1.789-2.515 1.339l-.237-.175-1.199.146c-.659.08-1.253.174-1.321.208-.068.035-.543.143-1.055.24-4.825.914-8.276 3.959-9.14 8.064-.153.728.106 3.877.372 4.517.13.313.224 1.493.654 8.158l.502 7.792.311.649.312.65.424 8.441.424 8.442.344.375c.316.345.34.402.299.71-.029.216-.013.335.044.335.049 0 2.765-.164 6.037-.365 3.272-.201 6.08-.365 6.241-.365h.292l.048-1.238c.141-3.644 1.234-5.519 3.291-5.643.534-.033.645-.066.785-.234.131-.158.312-.222.938-.329 1.116-.192 1.297-.046.812.659l-.239.347-1.212.055c-2.798.126-3.612 1.231-3.804 5.158l-.053 1.089.805-.052c.443-.028 1.307-.076 1.921-.107l1.116-.055v-.628c0-.953-.278-.83 3.977-1.77 4.32-.955 3.871-.996 4.124.383.094.508.181.934.194.947.029.029 13.243-1.668 13.28-1.705.034-.034-1.015-14.431-1.122-15.392-.294-2.648-1.293-4.555-2.724-5.201-.368-.167-.578-.186-2.672-.246-4.945-.143-5.979-.111-6.194.192-.203.287-1.823.218-2.04-.086-.226-.318-.211-.491.077-.888l.244-.337h1.453c1.44 0 1.456.002 1.603.195l.149.195 2.678.09c1.474.049 3.062.102 3.531.116 1.766.055 3.068 1.089 3.787 3.007.258.686.309.734.385.357.13-.651.644-1.476 1.386-2.224 1.165-1.174 1.853-1.497 4.842-2.271 2.327-.603 4.001-1.106 4.576-1.374.408-.19 2.522-.689 2.922-.689.295 0 .933.451.933.659 0 .166-.331.804-.554 1.066-.151.178-.978.196-1.446.031-.174-.062-.616-.139-.981-.171-.37-.033-.703-.105-.75-.162-.069-.082-.196-.063-.628.094-.298.108-1.494.453-2.657.765-3.419.92-3.546.958-4.232 1.289-1.604.774-2.561 1.907-2.921 3.46-.08.344-.094.563-.042.659.092.17.357 2.397.831 6.982l.347 3.348h.627c.774 0 .687-.145 1.093 1.826.394 1.915.408 1.857-.469 1.944l-.575.056.047.38c.025.209.269 2.864.542 5.899.534 5.941.564 6.129.973 6.129.344 0 .459.213.549 1.014.088.794 0 1.015-.407 1.015-.151 0-.16.035-.114.426.029.234.052.545.052.69l.001.264h1.218l-.005-.264c-.002-.145-.124-2.218-.272-4.606-.166-2.704-.239-4.38-.192-4.44.047-.06.04-.331-.018-.711-.344-2.271.991-3.826 3.526-4.104.404-.045.835-.102.957-.127l.223-.047.021-3.582.021-3.582.629-.353c.346-.194.629-.396.629-.449-.001-.054-.183-1.905-.406-4.115-.508-5.042-.511-4.789.07-4.789.144 0 .154-.029.087-.262-.136-.474-.023-.509 1.611-.509h1.438l.025.207c.018.154.091.227.284.284.362.107.399.474.085.847l-.223.266.225 3.134c.124 1.724.25 3.159.28 3.188.03.029.334.167.674.308 1.532.631 2.667 1.543 3.28 2.636l.247.439.238-.46c.542-1.044 1.882-2.072 3.009-2.308.335-.071.475-.141.522-.264.097-.256.213-.319 1.176-.637 1.106-.365 1.237-.367 1.567-.027.729.753-.076 1.303-2.059 1.407-1.827.096-2.856.659-3.634 1.987-.662 1.131-.892 3.252-.393 3.621.203.15.245.261.361.957.154.929.138.904.525.785.404-.124.645.072.513.417-.045.12-.056.22-.023.222l.394.025c.43.027.686.198 1.014.68.34.499.883.638.883.226 0-.489.42-.265.952.507l.304.442-.202.159c-.111.087-.33.239-.486.339-.309.197-.462.532-.191.42 2.005-.828 3.539-.339 2.544.811-.366.422-.358.526.041.526.311 0 2.535-1.092 3.206-1.575.493-.354.616-.36.977-.051.359.306.36.306.474-.075.247-.825.752-1.025 1.312-.519.293.265.348.286.531.203.476-.217.546-.161 1.044.84.389.782.494.934.649.934.222 0 .682.295 1.182.76.201.186.485.446.631.577l.265.238.566-.561.565-.561-.202-.211c-.462-.482-.253-.615.911-.578l.91.028.232-.254c.261-.285.784-.411 1.714-.412.285 0 .938-.044 1.45-.098l.933-.097-.049-.462c-.145-1.393-.977-2.32-2.406-2.68-.564-.143-3.044-.145-3.186-.004-.103.104-1.328.133-1.385.033a.82.82 0 0 1 .712-1.238c.365 0 1.528.257 1.667.369.071.057.526.116 1.096.143 1.785.084 2.974.67 3.607 1.778l.22.386.144-.303a3.775 3.775 0 0 1 1.981-1.853l.46-.188-.028-.52c-.039-.725.246-1.199.927-1.542.175-.088.278-.221.345-.445.061-.203.316-.558.704-.98.517-.561.702-.822.583-.822-.175 0-1.056.337-1.615.618-.758.38-.961.424-1.114.239-.168-.202.031-.409.907-.943 1.16-.707 1.132-.661.564-.916-.585-.262-.987-.279-1.195-.05-.196.218-.475.178-.511-.073-.101-.717 1.046-.872 2.208-.298l.623.307.5-.224.5-.225.141.174c.077.096.165.317.194.493l.054.319.365-.279c.367-.279.776-.367.885-.19.035.056.141-.005.285-.162.343-.376.499-.286.721.415.089.279.109.294.292.21l.196-.089-.177-.316c-.882-1.567-2.577-2.14-4.881-1.649-1.119.239-1.27.218-1.27-.176 0-.225.365-.415 1.843-.96l.827-.305-.198-.393c-.367-.724-.259-.834.7-.713.603.076.735.069 1.116-.065l.432-.153-.31-.2c-.341-.22-.432-.478-.227-.648.17-.142 1.711.031 1.915.215.118.106.15.09.301-.148.155-.246.158-.271.03-.32-.076-.028-.224-.145-.329-.258l-.192-.206.142-.432c.38-1.161.7-1.385 1.218-.851.33.34 1.033.554 1.985.604l.69.036-.027-.547c-.023-.458 0-.586.144-.78l.172-.233h-.234c-.129 0-.45.109-.713.242-.814.413-1.421.229-.841-.255.319-.268.3-.299-.327-.521-.52-.185-.605-.237-.636-.392-.063-.321.078-.347 1.66-.308l1.514.038-.052-.437c-.061-.524-1.187-13.177-1.187-13.346 0-.084-.094-.119-.32-.119-.398 0-.413-.023-.625-1.014-.198-.928-.164-1.037.352-1.134l.289-.054-.047-.421c-.026-.231-.364-3.854-.751-8.05l-.704-7.63-.212-.174c-.205-.168-.208-.187-.112-.549.158-.59.134-.731-.143-.835-.329-.124-.314-.357.041-.646l.284-.231-.167-.966c-.294-1.707-.059-1.956 1.842-1.956 1.399 0 1.355-.04 1.49 1.321.105 1.054.202 1.317.487 1.317.333 0 .453.307.217.553-.261.273-.274.471-.046.714.163.173.164.192.035.411-.118.201 1.296 11.039 2.114 16.199.043.268.076.305.275.305.359 0 .442.186.537 1.208.095 1.018.042 1.227-.312 1.227-.135 0-.152.04-.114.263.026.145.543 3.99 1.15 8.543.607 4.554 1.145 8.353 1.196 8.442.412.723.886 1.752.927 2.013.047.293.067.313.274.271.283-.056.403.081.641.732.266.729.473.899.918.751.645-.214 2.088-.124 4.104.256.46.086.852.157.873.157.02 0 .036-36.581.036-81.29V0H0v67.136m278.328 64.97a64.91 64.91 0 0 1-1.055.164c-.514.077-.97.166-1.015.198-.045.033-.432.121-.861.197-.694.123-.8.165-.958.378-.167.227-.201.238-.579.187l-.402-.053.003.274c.002.151.325 5.845.717 12.653l.713 12.378.368.649c.359.636.371.681.554 2.066.178 1.356.198 1.431.461 1.776.348.456.483.717.761 1.475l.223.609 1.821-.029 1.822-.029 1.29.344c1.45.385 1.501.417 1.988 1.236l.335.564-.346.353-.345.352.379 5.139c.424 5.745.7 9.721.7 10.093l.001.247 2.285.139c1.258.076 2.303.122 2.324.101.02-.02.003-1.564-.039-3.43-.072-3.263-.069-3.409.083-3.838l.159-.447-.607-8.399c-.566-7.831-.599-8.425-.486-8.779.113-.353.083-.936-.432-8.322-.376-5.392-.571-8.71-.607-10.336l-.053-2.394-.295-.716c-1.069-2.604-3.099-4.24-5.854-4.719-.628-.109-2.655-.163-3.053-.081m-70.753 34.209c0 .29.014.409.032.264a2.588 2.588 0 0 0 0-.528c-.018-.145-.032-.026-.032.264"/>
</svg>
