<?xml version="1.0" encoding="UTF-8"?>
<svg width="1200px" height="795px" viewBox="0 0 1200 795" version="1.1" xmlns="http://www.w3.org/2000/svg" xmlns:xlink="http://www.w3.org/1999/xlink">
    <!-- Generator: Sketch 53.2 (72643) - https://sketchapp.com -->
    <title>Artboard</title>
    <desc>Created with Sketch.</desc>
    <g id="Artboard" stroke="none" stroke-width="1" fill="none" fill-rule="evenodd">
        <g id="wroclawgood" transform="translate(-0.000000, 188.000000)" fill="#04fccc" fill-rule="nonzero" stroke="#04fccc">
            <path d="M811.600081,68.8704117 C812.330156,68.8704117 812.816873,69.11377 813.546948,69.11377 C815.007098,94.6663963 816.467248,119.975664 817.927398,145.52829 C818.657473,150.395457 819.874265,153.559116 819.874265,158.669641 C824.011357,158.426283 829.851957,157.939566 830.82539,160.859866 C847.373758,158.182924 860.27175,163.780166 863.678767,176.678159 C864.165484,176.678159 864.6522,176.678159 865.138917,176.678159 C866.842425,165.240316 875.603326,157.209491 884.850943,153.315757 C887.284526,152.342324 894.828635,151.612249 896.775502,150.395457 C897.505577,149.422024 897.992294,148.448591 898.722369,147.475157 C902.372744,146.501724 906.266477,145.284932 909.916853,144.311499 C910.890286,145.041574 911.863719,146.015007 912.837153,146.745082 C911.620361,152.585682 897.748935,150.638816 891.17826,152.585682 C879.740418,155.992699 870.979517,162.563375 867.085784,173.5145 C865.382275,178.625025 866.599067,186.169134 868.059217,190.792943 C868.545934,196.876901 868.789292,202.717502 869.276009,208.80146 C869.762726,218.535794 870.492801,228.270128 870.979517,238.004462 C871.709592,239.221253 872.196309,240.194687 872.926384,241.411478 C873.656459,256.743054 874.386534,272.317988 875.116609,287.649564 C875.116609,289.353072 875.359968,290.813222 875.359968,292.516731 C876.333401,294.463598 877.306834,293.733523 877.306834,296.897181 C890.204827,296.167106 902.859461,295.437031 915.757453,294.706956 C915.514095,279.862097 919.407828,272.07463 933.522612,272.07463 C933.279254,273.53478 932.792537,274.264855 932.062462,274.99493 C918.921111,274.751572 916.730886,281.322247 916.974245,294.220239 C920.867978,293.976881 925.00507,293.733523 928.898803,293.490164 C928.898803,292.030014 929.142162,290.569864 929.142162,289.109714 C932.792537,287.892922 949.827621,283.512472 952.261205,284.485905 C952.504563,286.432772 952.99128,288.622997 953.234638,290.569864 C966.619347,288.866356 980.247414,287.162847 993.632123,285.459339 C992.902048,274.751572 991.928615,264.043805 991.19854,253.336037 C990.225106,246.522004 990.955182,239.221253 989.251673,233.137295 C988.27824,229.486919 986.088015,225.593186 983.167714,223.646319 C977.083756,219.752586 956.641655,223.402961 949.584263,223.402961 C949.584263,223.159603 949.340904,222.916244 949.340904,222.672886 C948.854188,222.186169 948.854188,222.186169 948.854188,221.212736 C949.340904,220.726019 949.584263,219.995944 950.07098,219.509227 C954.208071,219.509227 956.885013,219.265869 959.318597,220.726019 C961.022105,220.726019 962.968972,220.726019 964.67248,220.726019 C970.269722,221.456094 979.517339,219.995944 983.654431,222.429527 C987.791523,224.863111 987.791523,229.243561 990.711823,232.893936 C992.171973,219.265869 1008.47698,219.022511 1019.91482,215.128777 C1023.32184,213.911985 1031.10931,209.774894 1034.51633,213.18191 C1034.02961,214.398702 1033.29953,215.615494 1032.81282,216.832286 C1029.4058,216.832286 1025.51207,216.588927 1023.07848,215.128777 C1011.884,218.779152 993.145407,220.239302 991.685257,233.624011 C992.171973,236.544311 992.65869,239.464612 993.145407,242.384912 C993.875482,250.172379 994.605557,257.959846 995.335632,265.747313 C996.795782,265.747313 998.255932,265.990671 999.716082,265.990671 C999.95944,269.397688 1002.14967,274.021497 1001.17623,276.45508 C999.95944,276.45508 998.742649,276.698438 997.525857,276.698438 C998.255932,283.512472 998.742649,290.083147 999.472724,296.897181 C1000.44616,302.737781 999.95944,309.065098 1001.41959,314.175624 C1002.14967,314.418982 1002.87974,314.66234 1003.60982,314.905699 C1003.60982,316.609207 1003.85317,318.069357 1003.85317,319.772866 C1003.60982,319.772866 1003.60982,319.772866 1003.36646,319.772866 C1002.87974,319.772866 1002.63638,320.016224 1002.14967,320.016224 C1002.14967,321.476374 1002.39302,323.179882 1002.39302,324.640032 C1003.85317,324.640032 1005.06997,324.640032 1006.53012,324.640032 C1006.28676,314.905699 1002.39302,292.030014 1006.53012,286.432772 C1008.9637,283.025755 1013.83087,282.29568 1019.18475,281.808964 C1019.18475,274.508213 1019.18475,267.450821 1019.18475,260.150071 C1020.40154,259.419996 1021.86169,258.933279 1023.07848,258.203204 C1022.34841,249.198945 1021.37497,240.438045 1020.6449,231.433786 C1021.37497,231.190428 1021.86169,231.190428 1022.59177,230.94707 C1022.59177,230.216995 1022.34841,229.730278 1022.34841,229.000203 C1025.26871,229.000203 1028.18901,228.756844 1031.10931,228.756844 C1031.10931,229.243561 1031.10931,229.730278 1031.10931,230.216995 C1031.59603,230.216995 1032.3261,230.460353 1032.81282,230.460353 C1032.81282,230.94707 1032.81282,231.190428 1032.81282,231.677145 C1030.13588,236.544311 1032.56946,246.035287 1032.81282,252.605962 C1038.41006,254.066112 1044.25066,257.716488 1045.71081,263.313729 C1045.71081,263.313729 1045.95417,263.313729 1045.95417,263.313729 C1046.9276,258.203204 1061.04238,248.712229 1065.90955,252.119246 C1065.90955,252.119246 1065.90955,252.362604 1065.90955,252.362604 C1065.66619,253.092679 1065.17948,253.822754 1064.93612,254.552829 C1054.95843,256.743054 1049.60454,256.012979 1046.68424,265.260596 C1046.44088,266.23403 1045.46745,270.371121 1046.19753,272.07463 C1046.9276,274.021497 1048.14439,274.99493 1048.38775,278.401947 C1049.60454,277.91523 1050.33462,277.671872 1051.30805,278.401947 C1051.06469,278.888664 1051.06469,279.37538 1050.82133,279.862097 C1054.22835,279.862097 1054.71507,281.322247 1056.66193,283.512472 C1056.66193,283.512472 1056.90529,283.512472 1056.90529,283.512472 C1057.63537,283.025755 1058.12208,282.539039 1058.85216,281.808964 C1059.82559,283.025755 1060.55567,283.999189 1061.5291,285.215981 C1061.28574,285.459339 1061.28574,285.702697 1061.04238,285.946056 C1059.82559,286.432772 1059.33888,286.676131 1058.6088,287.649564 C1058.6088,287.892922 1058.6088,288.136281 1058.6088,288.379639 C1060.79903,287.892922 1063.96269,286.189414 1066.39627,287.162847 C1066.88299,287.406206 1067.12634,287.649564 1067.61306,287.892922 C1067.3697,290.083147 1066.63963,290.326506 1065.66619,291.786656 C1066.15291,292.030014 1066.39627,292.273373 1067.61306,292.273373 C1071.26344,290.569864 1074.67045,288.866356 1077.83411,286.676131 C1079.29426,286.919489 1079.53762,287.406206 1080.51105,288.136281 C1081.24113,286.919489 1081.72784,285.946056 1082.45792,284.729264 C1084.40479,284.729264 1085.13486,285.459339 1085.62158,286.676131 C1086.35165,286.432772 1087.08173,285.946056 1087.8118,285.702697 C1088.78524,287.649564 1089.75867,289.353072 1090.7321,291.299939 C1091.46218,291.543298 1092.43561,291.786656 1093.16569,292.030014 C1094.62584,293.490164 1096.32934,294.706956 1097.7895,296.167106 C1099.00629,294.950314 1100.22308,293.976881 1101.43987,292.760089 C1100.7098,291.786656 1100.22308,291.786656 1100.46644,290.326506 C1102.65666,290.326506 1104.60353,290.326506 1106.79375,290.326506 C1107.28047,289.839789 1107.03711,289.109714 1108.01055,288.866356 C1111.66092,288.622997 1115.55465,288.379639 1119.20503,288.136281 C1119.20503,275.968363 1108.01055,278.158589 1098.03285,278.401947 C1098.03285,277.671872 1097.7895,276.698438 1097.7895,275.968363 C1098.27621,275.725005 1098.76293,275.238288 1099.24965,274.99493 C1106.5504,274.99493 1118.47495,277.185155 1119.69175,283.512472 C1119.69175,283.269114 1119.9351,283.269114 1119.9351,283.025755 C1121.39525,280.83553 1122.36869,278.645305 1124.55891,277.185155 C1125.7757,276.698438 1126.9925,276.45508 1128.20929,275.968363 C1128.20929,275.968363 1127.72257,272.07463 1128.20929,271.344555 C1129.18272,270.61448 1130.39951,270.127763 1131.37295,269.397688 C1131.61631,268.667613 1131.61631,267.937538 1131.85966,267.207463 C1133.07646,265.747313 1134.29325,264.530521 1135.51004,263.070371 C1135.26668,262.827013 1135.26668,262.827013 1135.02332,262.583654 C1133.07646,263.313729 1128.696,265.990671 1126.9925,265.017238 C1126.9925,264.77388 1127.23585,264.530521 1127.23585,264.287163 C1129.18272,263.070371 1131.37295,261.610221 1133.31981,260.393429 C1133.07646,260.393429 1132.8331,260.150071 1132.58974,260.150071 C1130.64287,259.419996 1129.66944,258.689921 1127.47921,259.663354 C1127.23585,259.663354 1126.74914,259.906713 1126.50578,259.906713 C1126.50578,259.663354 1126.50578,259.176638 1126.50578,258.933279 C1126.74914,258.446563 1127.23585,258.203204 1127.47921,257.716488 C1127.47921,257.716488 1127.72257,257.716488 1127.72257,257.716488 C1131.12959,257.716488 1132.34638,259.176638 1134.29325,259.663354 C1135.7534,259.906713 1136.97019,258.446563 1138.18698,258.689921 C1138.43034,259.663354 1138.6737,260.393429 1138.91706,261.366863 C1139.16041,261.123504 1139.64713,260.636788 1139.89049,260.393429 C1142.08071,259.663354 1142.81079,259.906713 1144.5143,258.689921 C1144.75766,258.689921 1144.75766,258.933279 1145.00101,258.933279 C1145.24437,259.906713 1145.73109,260.636788 1145.97445,261.610221 C1146.46116,261.366863 1146.94788,261.123504 1147.4346,260.880146 C1147.4346,260.636788 1147.19124,260.393429 1147.19124,260.150071 C1141.35064,253.336037 1139.16041,254.066112 1128.696,255.282904 C1128.696,255.282904 1128.45265,255.039546 1128.45265,255.039546 C1128.45265,254.552829 1128.45265,254.309471 1128.45265,253.822754 C1131.12959,252.849321 1133.80653,251.875887 1136.48347,250.902454 C1136.48347,250.902454 1136.48347,250.659096 1136.48347,250.659096 C1135.99676,249.685662 1135.7534,248.46887 1135.26668,247.495437 C1135.26668,247.495437 1135.51004,247.252079 1135.51004,247.252079 C1138.18698,247.495437 1140.86392,247.982154 1142.56743,246.522004 C1141.83736,246.035287 1141.35064,245.54857 1140.62056,245.061854 C1140.62056,244.818495 1140.86392,244.331779 1140.86392,244.08842 C1143.54086,244.08842 1146.46116,245.061854 1147.4346,244.818495 C1147.67796,244.331779 1147.92131,244.08842 1148.16467,243.601704 C1148.16467,243.601704 1148.16467,243.358345 1148.16467,243.358345 C1147.4346,242.871628 1146.94788,242.384912 1146.21781,241.898195 C1146.70452,240.194687 1147.19124,238.734537 1148.16467,237.517745 C1151.57169,238.004462 1153.2752,240.194687 1158.38572,240.194687 C1158.38572,240.194687 1158.38572,239.951328 1158.38572,239.951328 C1157.65565,238.004462 1157.89901,236.057595 1159.60251,235.570878 C1159.60251,235.32752 1159.35916,235.32752 1159.35916,235.084161 C1156.92557,235.32752 1154.73535,237.274387 1153.03184,236.057595 C1153.2752,235.814236 1153.2752,235.570878 1153.51856,235.32752 C1153.76191,235.084161 1154.24863,234.840803 1154.49199,234.597445 C1154.49199,234.354086 1154.24863,234.354086 1154.24863,234.110728 C1153.03184,233.624011 1151.81505,232.893936 1150.59826,232.40722 C1150.84161,232.163861 1150.84161,231.920503 1151.08497,231.677145 C1154.24863,231.677145 1157.16893,231.920503 1160.33259,231.920503 C1159.1158,217.805719 1157.89901,203.934293 1156.68221,189.819509 C1155.95214,189.819509 1154.97871,189.576151 1154.24863,189.576151 C1154.00527,187.872642 1153.51856,186.412492 1153.2752,184.708984 C1154.49199,183.735551 1155.46542,184.222267 1155.70878,182.032042 C1151.81505,166.943825 1155.46542,146.98844 1149.86818,133.84709 C1149.86818,133.603731 1150.59826,131.413506 1150.3549,130.440073 C1149.86818,130.440073 1149.62482,130.196715 1149.13811,130.196715 C1149.13811,129.953356 1149.13811,129.46664 1149.13811,129.223281 C1149.62482,128.979923 1150.3549,128.493206 1150.84161,128.249848 C1150.59826,126.302981 1149.13811,122.165889 1150.3549,120.705739 C1152.05841,119.002231 1157.16893,118.758872 1159.60251,119.975664 C1159.60251,122.652606 1159.84587,125.572906 1161.06266,127.276415 C1162.0361,127.519773 1162.0361,127.519773 1162.52281,128.00649 C1162.0361,128.493206 1161.79274,128.979923 1161.30602,129.46664 C1162.27946,135.550598 1162.76617,145.041574 1164.22632,152.829041 C1165.68647,162.563375 1166.90327,172.05435 1168.36342,181.788684 C1169.09349,182.032042 1169.82357,182.032042 1170.55364,182.275401 C1170.55364,184.708984 1171.04036,187.142567 1170.55364,188.602718 C1169.58021,188.846076 1169.82357,188.602718 1169.33685,189.089434 C1171.52707,206.124518 1173.96066,223.402961 1176.15088,240.438045 C1177.12432,242.871628 1179.07118,244.331779 1179.31454,247.982154 C1180.28797,247.738795 1180.53133,247.495437 1181.50477,247.982154 C1181.74812,249.92902 1182.72156,251.145812 1183.69499,252.362604 C1189.29223,251.632529 1194.64612,252.605962 1200,253.336037 C1200,355.546542 1200,504.789495 1200,607 C800.162239,607 399.837761,607 -3.14470672e-14,607 C1.79457144e-15,513.793754 0.730075035,373.55506 0.730075035,280.348814 C0.730075035,253.822754 0.730075035,227.296694 0.730075035,200.770635 C0.730075035,193.956601 -0.730075035,172.297708 1.21679173,167.917258 C5.11052525,164.996958 8.76090043,162.076658 12.6546339,159.156358 C24.5791929,159.399716 40.3974853,180.328534 55.4857027,175.948084 C56.2157777,173.271142 57.1892111,170.5942 57.9192861,167.917258 C59.6227946,167.917258 61.326303,168.160617 63.0298114,168.160617 C63.0298114,169.377408 63.0298114,170.837558 63.0298114,172.05435 C66.1934699,172.05435 69.3571284,172.05435 72.5207869,172.05435 C72.5207869,169.377408 72.7641452,166.943825 72.7641452,164.266883 C79.3348205,164.266883 79.3348205,165.970391 83.228554,167.187183 C85.4187792,167.187183 87.6090043,167.430541 89.7992294,167.430541 C89.7992294,168.647333 90.0425877,169.864125 90.0425877,171.080917 C95.6398296,171.080917 101.237072,171.324275 106.834314,171.324275 C106.834314,169.620767 106.834314,168.160617 106.834314,166.457108 C113.161631,161.346583 118.515514,157.696208 127.033056,164.023525 C128.493206,165.240316 129.709998,166.21375 131.170148,167.430541 C131.413506,169.13405 131.413506,171.080917 131.656865,172.784425 C133.603731,172.784425 135.793957,172.784425 137.740823,172.784425 C137.740823,171.324275 137.740823,169.620767 137.740823,168.160617 C140.661124,166.943825 143.581424,165.970391 146.501724,164.7536 C143.338065,158.426283 145.041574,151.612249 150.882174,149.178666 C152.098966,148.935307 153.315757,148.448591 154.532549,148.205232 C154.532549,147.961874 154.532549,147.718516 154.532549,147.475157 C155.505983,143.581424 154.775908,140.904482 155.992699,137.740823 C157.452849,133.84709 158.669641,130.196715 160.129791,126.302981 C160.616508,119.975664 160.859866,112.674914 162.076658,105.86088 C163.050091,100.506997 164.510241,94.6663963 162.320016,91.0160211 C162.563375,90.5293044 162.806733,90.2859461 163.050091,89.7992294 C164.510241,89.3125127 165.727033,89.0691543 167.6739,89.3125127 C168.403975,91.7460961 166.457108,93.9363212 166.457108,98.3167714 C166.457108,107.077672 167.6739,118.758872 165.727033,126.302981 C166.943825,131.656865 168.403975,137.254107 169.620767,142.60799 C169.377408,144.798215 168.890692,146.98844 168.647333,149.178666 C178.381667,150.638816 176.191442,158.912999 174.244575,166.21375 C176.191442,167.187183 178.381667,168.403975 180.328534,169.377408 C179.841817,170.837558 179.3551,172.05435 178.868384,173.5145 C179.3551,174.487933 179.598459,175.461367 180.085175,176.4348 C186.412492,177.164875 192.739809,178.138309 199.067126,178.868384 C199.067126,177.89495 199.067126,176.921517 199.067126,175.948084 C202.230785,175.218009 203.204218,172.541067 205.88116,171.567633 C212.695194,168.890692 220.969377,173.5145 221.456094,179.3551 C222.429527,179.598459 223.402961,179.841817 224.376394,180.085175 C224.376394,180.328534 224.376394,180.81525 224.376394,181.058609 C223.159603,181.301967 221.942811,181.788684 220.726019,182.032042 C220.726019,182.518759 220.726019,183.005476 220.726019,183.492192 C221.942811,183.735551 221.942811,183.735551 222.186169,184.952342 C221.456094,184.952342 220.726019,184.708984 219.995944,184.708984 C219.995944,185.439059 219.995944,186.169134 219.995944,186.899209 C223.402961,186.899209 227.053336,186.655851 230.460353,186.655851 C229.730278,186.412492 229.000203,186.412492 228.270128,186.169134 C228.513486,185.925776 228.756844,185.439059 229.000203,185.195701 C232.163861,185.682417 235.570878,186.412492 238.734537,186.899209 C238.734537,186.169134 238.734537,185.439059 238.734537,184.708984 C238.24782,184.465626 238.004462,184.222267 237.517745,183.978909 C237.517745,183.735551 237.761103,183.248834 237.761103,183.005476 C241.898195,182.762117 242.141553,181.058609 244.575137,179.598459 C250.902454,175.948084 256.499696,181.301967 259.419996,184.222267 C262.096938,182.762117 273.048063,178.625025 276.698438,179.598459 C276.698438,181.058609 276.698438,182.275401 276.698438,183.735551 C282.052322,184.465626 287.162847,185.195701 292.516731,185.925776 C293.246806,184.222267 294.463598,182.032042 296.410464,181.788684 C297.140539,183.978909 298.113973,185.925776 298.844048,188.116001 C306.144798,188.846076 316.12249,193.226526 318.556074,185.439059 C318.556074,183.492192 318.799432,181.788684 318.799432,179.841817 C321.963091,179.841817 323.179882,179.111742 325.370107,178.625025 C325.613466,175.704725 325.613466,173.027783 325.856824,170.107483 C327.073616,167.917258 330.723991,165.727033 333.88765,165.483675 C335.3478,167.430541 337.051308,169.377408 338.511458,171.324275 C339.971608,175.948084 337.294666,178.625025 339.971608,182.275401 C339.971608,182.275401 340.214967,182.275401 340.214967,182.275401 C340.458325,182.275401 340.945042,182.032042 341.1884,182.032042 C341.1884,179.111742 341.1884,175.218009 342.161833,173.271142 C342.161833,173.271142 342.405192,173.271142 342.405192,173.271142 C342.891908,173.271142 343.378625,173.5145 343.865342,173.5145 C343.621983,181.058609 342.64855,193.956601 347.515717,197.363618 C352.139525,198.337051 356.763334,199.310485 361.387143,200.283918 C362.360576,198.58041 363.577368,195.416751 366.010951,195.173393 C366.984385,197.363618 367.957818,199.797201 368.931251,201.987426 C373.068343,201.987426 374.041777,200.770635 377.692152,200.527276 C377.692152,198.58041 377.692152,196.390185 377.692152,194.443318 C377.93551,194.443318 377.93551,194.443318 378.178868,194.443318 C382.31596,194.686676 386.453052,194.930034 390.590144,195.173393 C390.590144,191.523018 390.590144,187.872642 390.590144,184.222267 C391.076861,184.222267 391.563577,184.465626 392.050294,184.465626 C392.050294,190.549584 391.806936,196.633543 391.806936,202.717502 C396.430744,202.717502 399.351044,200.770635 403.00142,199.797201 C402.758061,193.469884 404.704928,191.036301 409.328737,189.576151 C409.328737,180.328534 413.709187,176.4348 414.68262,169.377408 C414.68262,166.21375 414.439262,163.29345 414.439262,160.129791 C414.439262,155.749341 413.952545,150.395457 415.412695,147.475157 C415.412695,141.391199 415.656054,135.063882 415.656054,128.979923 C415.899412,128.979923 416.386129,128.979923 416.629487,128.979923 C416.629487,135.063882 416.629487,141.391199 416.629487,147.475157 C416.872845,148.448591 417.846279,148.935307 417.60292,150.882174 C417.60292,156.966133 417.359562,163.050091 417.359562,169.13405 C418.576354,173.027783 419.793145,176.678159 421.009937,180.571892 C421.740012,182.518759 421.009937,188.116001 421.983371,189.332793 C423.686879,191.036301 425.633746,192.496451 427.337254,194.199959 C428.067329,195.416751 428.067329,197.606976 429.040763,198.823768 C428.310687,200.283918 427.823971,201.50071 427.093896,202.96086 C428.554046,202.96086 429.284121,202.96086 430.014196,203.447577 C430.257554,204.664368 430.744271,205.88116 431.717704,206.367877 C433.177854,206.854593 434.881363,207.097952 436.341513,207.584668 C436.341513,207.584668 436.341513,207.828027 436.341513,207.828027 C436.341513,208.071385 436.098155,208.314743 436.098155,208.558102 C435.368079,208.80146 434.394646,208.80146 433.664571,209.044818 C433.421213,209.774894 433.421213,210.504969 433.177854,211.235044 C432.204421,211.478402 431.474346,211.72176 430.500913,211.965119 C430.500913,211.965119 430.500913,212.208477 430.500913,212.208477 C430.744271,213.668627 431.717704,214.155344 431.961063,215.128777 C432.447779,217.075644 430.257554,217.562361 430.987629,219.509227 C431.717704,220.239302 432.204421,220.969377 432.934496,221.699452 C432.447779,221.942811 432.204421,222.429527 431.717704,222.672886 C432.447779,223.402961 432.934496,224.133036 433.664571,224.863111 C433.664571,225.349828 433.421213,225.593186 433.421213,226.079903 C432.691138,226.323261 431.961063,226.566619 431.230988,226.809978 C431.230988,227.053336 431.230988,227.540053 431.230988,227.783411 C433.177854,229.243561 434.151288,231.433786 435.368079,233.624011 C434.394646,235.32752 435.854796,235.084161 435.124721,237.031028 C434.638004,237.031028 434.151288,237.031028 433.664571,237.031028 C434.151288,239.221253 433.177854,241.16812 432.447779,242.384912 C432.447779,245.305212 432.204421,248.225512 432.204421,251.145812 C434.394646,252.362604 436.341513,253.336037 438.531738,254.552829 C438.531738,256.986412 438.775096,259.419996 438.775096,261.853579 C440.478605,262.340296 442.66883,262.827013 443.642263,264.043805 C442.182113,266.23403 440.721963,268.180896 438.28838,269.397688 C437.071588,268.667613 435.124721,268.424255 433.177854,268.910971 C433.177854,272.561347 432.934496,275.968363 432.934496,279.618739 C435.124721,280.592172 437.071588,281.565605 439.261813,282.539039 C439.261813,283.269114 439.261813,284.242547 439.261813,284.972622 C440.965321,285.459339 441.452038,286.432772 442.66883,287.162847 C447.779355,286.432772 453.133239,285.946056 458.243764,285.215981 C458.243764,283.512472 458.243764,281.808964 458.730481,280.83553 C460.920706,280.83553 462.867573,280.592172 465.057798,280.592172 C465.057798,278.888664 464.814439,277.671872 465.301156,276.698438 C466.761306,276.698438 467.004664,276.941797 467.734739,277.428513 C467.734739,275.725005 467.491381,274.751572 467.978098,273.778138 C468.708173,274.021497 469.681606,274.021497 470.411681,274.264855 C471.141756,276.698438 471.871831,278.401947 471.871831,282.29568 C474.548773,282.29568 476.738998,283.269114 478.199148,283.269114 C482.822957,282.782397 487.446765,282.052322 492.070574,281.565605 C492.070574,279.862097 492.070574,278.645305 492.800649,277.91523 C495.234232,276.941797 497.911174,266.964105 501.074833,265.503955 C503.265058,265.260596 505.698641,264.77388 507.888866,264.530521 C507.888866,263.070371 507.888866,262.340296 508.375583,261.610221 C514.216183,259.419996 520.056784,257.229771 525.897384,255.039546 C532.468059,253.579396 540.742243,258.203204 547.556277,256.986412 C547.799635,255.526262 548.286352,254.796187 548.773068,253.822754 C550.476577,253.822754 551.206652,254.309471 551.936727,255.282904 C551.936727,256.256337 552.180085,256.986412 552.180085,257.959846 C555.100385,258.203204 558.264044,258.446563 561.184344,258.689921 C561.184344,257.716488 561.427702,256.986412 561.427702,256.012979 C564.591361,255.769621 567.511661,255.526262 569.945244,255.039546 C572.865545,258.203204 580.653012,258.689921 585.763537,259.419996 C585.763537,259.663354 585.763537,259.906713 585.763537,260.150071 C583.81667,263.557088 586.250253,264.287163 587.953762,266.477388 C589.65727,266.23403 591.360779,266.23403 593.064287,265.990671 C593.794362,267.207463 594.524437,268.180896 596.471304,268.180896 C595.984587,267.207463 595.984587,266.23403 596.227946,265.017238 C597.688096,265.017238 599.391604,265.017238 600.851754,265.017238 C600.851754,265.990671 600.851754,267.207463 600.851754,268.180896 C606.448996,268.180896 612.289596,267.937538 617.886838,267.937538 C617.886838,266.964105 617.64348,267.207463 618.130197,266.477388 C619.346988,266.477388 620.320422,266.23403 621.537214,266.23403 C621.537214,263.557088 621.537214,260.880146 621.537214,258.203204 C621.780572,258.203204 622.02393,258.203204 622.267289,258.203204 C622.510647,258.203204 622.510647,258.446563 622.754005,258.446563 C622.754005,260.880146 622.754005,263.557088 622.754005,265.990671 C622.997364,265.990671 623.240722,265.990671 623.48408,265.990671 C623.48408,264.043805 623.240722,262.340296 623.970797,261.610221 C624.214155,261.853579 624.214155,262.096938 624.457514,262.340296 C624.457514,263.557088 624.700872,265.017238 624.700872,266.23403 C626.161022,266.23403 627.621172,266.23403 629.081322,266.23403 C629.081322,264.043805 629.081322,262.096938 629.081322,259.906713 C629.324681,259.906713 629.811397,259.906713 630.054756,259.906713 C630.054756,260.150071 630.054756,260.150071 630.054756,260.393429 C630.054756,262.340296 630.298114,264.530521 630.298114,266.477388 C630.784831,266.477388 631.271547,266.477388 631.758264,266.477388 C631.758264,264.530521 631.758264,262.340296 631.758264,260.393429 C632.001622,260.393429 632.488339,260.393429 632.731697,260.393429 C632.731697,260.636788 632.731697,260.636788 632.731697,260.880146 C632.731697,262.583654 632.975056,264.530521 632.975056,266.23403 C637.112148,266.23403 642.222673,268.180896 645.62969,268.180896 C645.62969,267.69418 645.62969,267.207463 645.62969,266.720746 C646.359765,266.23403 647.08984,265.503955 647.819915,265.017238 C650.253498,265.017238 650.496857,265.747313 652.200365,265.990671 C652.200365,264.287163 652.443723,262.827013 652.443723,261.123504 C653.903873,261.123504 654.877307,261.123504 655.607382,261.610221 C655.85074,263.070371 655.85074,264.530521 656.094099,265.990671 C657.554249,265.990671 658.77104,265.990671 659.501115,266.477388 C659.501115,266.964105 659.744474,267.450821 659.744474,267.937538 C661.69134,267.937538 663.394849,267.937538 665.341716,267.937538 C665.341716,267.207463 665.585074,266.720746 665.585074,265.990671 C667.288582,265.990671 668.748733,265.990671 669.722166,266.477388 C669.722166,266.964105 669.722166,267.69418 669.722166,268.180896 C671.182316,268.180896 672.399108,268.180896 673.129183,267.69418 C673.129183,265.503955 673.129183,263.313729 673.129183,261.123504 C674.345974,261.123504 674.345974,261.366863 675.076049,261.610221 C675.076049,263.313729 675.319408,265.260596 675.319408,266.964105 C680.186575,267.937538 679.943216,266.964105 684.323667,265.503955 C684.323667,263.070371 684.567025,260.636788 684.567025,258.203204 C686.027175,258.203204 686.027175,257.959846 686.75725,258.446563 C687.000608,260.150071 687.243967,261.610221 687.487325,263.313729 C692.841209,263.313729 697.221659,263.070371 701.358751,264.043805 C701.358751,262.340296 701.115392,261.123504 701.602109,260.393429 C703.548976,260.150071 706.225918,260.150071 709.146218,260.150071 C709.146218,259.663354 709.146218,259.176638 709.146218,258.689921 C709.389576,258.446563 709.389576,258.446563 709.632934,258.203204 C712.309876,258.203204 715.230176,258.203204 717.907118,258.203204 C717.907118,258.689921 717.907118,258.933279 717.907118,259.419996 C723.017643,259.176638 728.128169,259.176638 733.238694,258.933279 C735.428919,257.716488 738.349219,256.256337 741.756236,256.012979 C741.999594,255.282904 741.999594,254.552829 742.242953,253.822754 C748.083553,253.092679 757.087812,252.119246 763.658487,253.336037 C763.901845,254.309471 763.901845,255.526262 764.145204,256.499696 C764.631921,256.499696 764.875279,256.499696 765.361996,256.499696 C765.361996,254.796187 765.118637,254.309471 765.605354,253.336037 C767.795579,253.092679 778.990063,252.362604 780.206855,253.579396 C780.206855,255.039546 780.450213,256.256337 780.450213,257.716488 C787.020888,257.716488 795.051714,256.012979 802.109106,256.499696 C802.109106,256.743054 802.352464,256.743054 802.352464,256.986412 C802.352464,257.473129 802.352464,257.716488 802.352464,258.203204 C802.839181,258.203204 803.569256,257.959846 804.055972,257.959846 C805.029406,253.579396 809.409856,250.172379 813.790306,249.442304 C813.790306,231.677145 814.520381,209.531535 811.600081,190.549584 C811.113364,180.571892 810.383289,170.837558 809.896573,160.859866 C809.166498,156.722774 811.113364,153.559116 811.113364,150.882174 C809.166498,123.626039 807.462989,96.3699047 805.516122,69.11377 C806.246198,69.11377 806.732914,69.11377 807.462989,69.11377 C807.706348,34.556885 790.427905,22.3889678 760.494829,17.7651592 C755.140945,17.0350842 748.326911,18.0085175 744.433178,18.9819509 C741.269519,19.2253093 737.862503,19.2253093 734.698844,19.4686676 C734.212127,19.9553843 733.725411,20.6854593 733.238694,21.172176 C730.561752,21.172176 727.88481,20.9288177 725.207869,20.9288177 C724.234435,19.9553843 723.017643,18.9819509 722.04421,18.0085175 C722.04421,14.6015007 722.287568,11.9245589 723.017643,9.49097546 C723.017643,9.49097546 723.261002,9.49097546 723.261002,9.49097546 C730.805111,10.4644088 738.349219,11.6812006 745.893328,12.6546339 C745.893328,13.384709 745.893328,14.114784 745.893328,14.8448591 C775.583046,11.6812006 801.865747,23.8491178 807.706348,45.5080105 C807.706348,45.5080105 807.949706,45.5080105 807.949706,45.5080105 C810.139931,25.3092679 829.121882,15.5749341 846.887041,10.7077672 C853.214358,9.73433381 859.785033,8.76090043 866.11235,7.78746705 C868.545934,5.59724194 885.824376,-1.21679173 889.231393,0.243358345 C889.961468,1.46015007 890.691543,2.43358345 891.421618,3.65037518 C891.421618,7.05739201 889.231393,9.00425877 887.771243,11.4378422 C885.824376,11.9245589 883.87751,12.1679173 881.930643,12.6546339 C879.983776,13.1413506 879.253701,11.9245589 878.280268,11.6812006 C877.306834,11.4378422 864.165484,11.6812006 862.948692,11.9245589 C838.126141,16.0616508 821.091057,20.9288177 813.060231,41.3709187 C810.383289,47.941594 811.600081,59.8661529 811.600081,68.8704117 Z M820.360982,164.7536 C821.821132,190.062868 823.037923,215.372135 824.498073,240.681403 C825.228148,241.898195 826.201582,243.358345 826.931657,244.575137 C827.175015,247.495437 827.661732,250.415737 827.90509,253.336037 C828.878524,255.769621 830.82539,257.716488 831.798824,260.880146 C841.533158,260.636788 850.0507,259.906713 853.457716,266.720746 C851.024133,269.884405 851.267491,275.968363 852.240925,281.322247 C853.214358,292.760089 853.944433,304.197931 854.917867,315.635774 C859.541675,315.879132 864.408842,316.12249 869.032651,316.365849 C868.789292,309.308457 868.789292,302.494423 868.545934,295.437031 C868.789292,293.976881 870.006084,292.760089 869.519367,290.326506 C868.302576,274.508213 867.085784,258.933279 865.868992,243.114987 C865.868992,241.411478 867.085784,239.70797 866.599067,237.274387 C865.868992,227.783411 865.138917,218.535794 864.408842,209.044818 C861.7319,191.766376 866.842425,175.218009 855.161225,166.21375 C849.807341,162.076658 838.369499,159.399716 829.121882,162.320016 C825.958223,163.29345 823.52464,164.7536 820.360982,164.7536 Z M1031.10931,212.938552 C1028.91908,213.425269 1026.72886,214.155344 1024.53863,214.64206 C1027.21557,214.885419 1029.64916,215.128777 1032.3261,215.372135 C1032.56946,214.64206 1032.81282,214.155344 1033.05618,213.425269 C1032.81282,213.425269 1032.81282,213.18191 1032.56946,213.18191 C1032.08274,213.18191 1031.59603,212.938552 1031.10931,212.938552 Z M950.801055,220.726019 C950.557696,221.212736 950.557696,221.699452 950.314338,222.186169 C951.53113,222.186169 952.504563,222.186169 953.721355,222.186169 C954.938146,221.212736 956.154938,221.456094 958.101805,220.726019 C955.668221,220.726019 953.234638,220.726019 950.801055,220.726019 Z M991.928615,245.061854 C991.928615,245.305212 991.928615,245.791929 991.928615,246.035287 C991.928615,246.035287 992.171973,246.035287 992.171973,246.035287 C992.171973,245.791929 991.928615,245.305212 991.928615,245.061854 Z M992.171973,247.495437 C992.171973,248.225512 992.415332,248.712229 992.415332,249.442304 C992.415332,248.712229 992.171973,248.225512 992.171973,247.495437 Z M1063.47597,252.119246 C1061.77246,252.605962 1060.31231,253.336037 1058.6088,253.822754 C1058.6088,254.066112 1058.6088,254.066112 1058.6088,254.309471 C1060.79903,254.309471 1062.98925,253.822754 1064.4494,253.092679 C1064.4494,253.092679 1064.4494,252.849321 1064.4494,252.849321 C1064.4494,252.605962 1064.4494,252.605962 1064.4494,252.362604 C1064.20604,252.362604 1063.71933,252.119246 1063.47597,252.119246 Z M930.602312,273.53478 C930.84567,273.53478 931.332387,273.778138 931.575745,273.778138 C931.332387,273.778138 930.84567,273.53478 930.602312,273.53478 Z M1099.73636,276.211722 C1099.493,276.45508 1099.24965,276.45508 1099.00629,276.698438 C1099.00629,276.941797 1099.00629,276.941797 1099.00629,277.185155 C1099.493,277.185155 1100.22308,277.185155 1100.7098,277.185155 C1101.19651,276.941797 1101.68323,276.941797 1102.16995,276.698438 C1101.43987,276.45508 1100.46644,276.45508 1099.73636,276.211722 Z M467.734739,279.132022 C467.734739,279.37538 467.734739,279.618739 467.734739,279.862097 C467.734739,279.618739 467.978098,279.37538 467.978098,279.132022 C467.978098,279.132022 467.734739,279.132022 467.734739,279.132022 Z M1000.93287,322.693166 C1000.93287,325.370107 1001.17623,328.290408 1001.17623,330.967349 C1001.17623,328.290408 1000.93287,325.370107 1000.93287,322.693166 Z" id="Shape"></path>
        </g>
    </g>
</svg>